NimbusSanL-ReguCondItal.ufo
<glyph name="exclam" format="1">
  <advance width="228"/>
  <unicode hex="0021"/>
  <outline>
    <contour>
      <point x="171" y="102" type="line"/>
      <point x="153" y="0" type="line"/>
      <point x="74" y="0" type="line"/>
      <point x="92" y="102" type="line"/>
    </contour>
    <contour>
      <point x="163" y="171" type="line"/>
      <point x="123" y="171" type="line"/>
      <point x="158" y="481" type="line"/>
      <point x="199" y="718" type="line"/>
      <point x="278" y="718" type="line"/>
      <point x="237" y="481" type="line"/>
    </contour>
  </outline>
</glyph>
<glyph name="ampersand" format="1">
  <advance width="547"/>
  <unicode hex="0026"/>
  <outline>
    <contour>
      <point x="451" y="155" type="curve"/>
      <point x="528" y="0" type="line"/>
      <point x="435" y="0" type="line"/>
      <point x="394" y="82" type="line"/>
      <point x="328" y="10"/>
      <point x="279" y="-15"/>
      <point x="207" y="-15" type="curve" smooth="yes"/>
      <point x="115" y="-15"/>
      <point x="63" y="38"/>
      <point x="63" y="133" type="curve" smooth="yes"/>
      <point x="63" y="191"/>
      <point x="80" y="249"/>
      <point x="110" y="291" type="curve" smooth="yes"/>
      <point x="136" y="328"/>
      <point x="165" y="352"/>
      <point x="238" y="399" type="curve"/>
      <point x="207" y="462"/>
      <point x="200" y="485"/>
      <point x="200" y="521" type="curve" smooth="yes"/>
      <point x="200" y="628"/>
      <point x="278" y="718"/>
      <point x="372" y="718" type="curve" smooth="yes"/>
      <point x="439" y="718"/>
      <point x="480" y="674"/>
      <point x="480" y="603" type="curve" smooth="yes"/>
      <point x="480" y="556"/>
      <point x="462" y="506"/>
      <point x="431" y="465" type="curve" smooth="yes"/>
      <point x="410" y="437"/>
      <point x="389" y="419"/>
      <point x="338" y="382" type="curve"/>
      <point x="419" y="226" type="line"/>
      <point x="440" y="270"/>
      <point x="445" y="283"/>
      <point x="462" y="338" type="curve"/>
      <point x="530" y="338" type="line"/>
      <point x="515" y="277"/>
      <point x="489" y="217"/>
    </contour>
    <contour>
      <point x="366" y="141" type="curve"/>
      <point x="268" y="339" type="line"/>
      <point x="202" y="293"/>
      <point x="179" y="273"/>
      <point x="162" y="243" type="curve"/>
      <point x="146" y="217"/>
      <point x="137" y="184"/>
      <point x="137" y="155" type="curve" smooth="yes"/>
      <point x="137" y="101"/>
      <point x="175" y="61"/>
      <point x="227" y="61" type="curve" smooth="yes"/>
      <point x="277" y="61"/>
      <point x="320" y="86"/>
    </contour>
    <contour>
      <point x="311" y="439" type="curve"/>
      <point x="338" y="459"/>
      <point x="343" y="464"/>
      <point x="356" y="476" type="curve" smooth="yes"/>
      <point x="390" y="508"/>
      <point x="408" y="546"/>
      <point x="408" y="585" type="curve" smooth="yes"/>
      <point x="408" y="621"/>
      <point x="388" y="642"/>
      <point x="355" y="642" type="curve" smooth="yes"/>
      <point x="309" y="642"/>
      <point x="273" y="600"/>
      <point x="273" y="546" type="curve" smooth="yes"/>
      <point x="273" y="514"/>
      <point x="285" y="481"/>
    </contour>
  </outline>
</glyph>
<glyph name="parenleft" format="1">
  <advance width="273"/>
  <unicode hex="0028"/>
  <outline>
    <contour>
      <point x="322" y="733" type="curve"/>
      <point x="372" y="733" type="line"/>
      <point x="279" y="581"/>
      <point x="247" y="516"/>
      <point x="217" y="418" type="curve" smooth="yes"/>
      <point x="182" y="307"/>
      <point x="162" y="188"/>
      <point x="162" y="96" type="curve" smooth="yes"/>
      <point x="162" y="14"/>
      <point x="173" y="-56"/>
      <point x="209" y="-207" type="curve"/>
      <point x="161" y="-207" type="line"/>
      <point x="105" y="-54"/>
      <point x="89" y="21"/>
      <point x="89" y="123" type="curve" smooth="yes"/>
      <point x="89" y="220"/>
      <point x="110" y="330"/>
      <point x="148" y="429" type="curve" smooth="yes"/>
      <point x="186" y="530"/>
      <point x="227" y="602"/>
    </contour>
  </outline>
</glyph>
<glyph name="parenright" format="1">
  <advance width="273"/>
  <unicode hex="0029"/>
  <outline>
    <contour>
      <point x="43" y="-207" type="curve"/>
      <point x="-7" y="-207" type="line"/>
      <point x="86" y="-55"/>
      <point x="118" y="10"/>
      <point x="148" y="108" type="curve" smooth="yes"/>
      <point x="183" y="220"/>
      <point x="203" y="338"/>
      <point x="203" y="430" type="curve" smooth="yes"/>
      <point x="203" y="513"/>
      <point x="192" y="581"/>
      <point x="156" y="733" type="curve"/>
      <point x="204" y="733" type="line"/>
      <point x="260" y="580"/>
      <point x="276" y="505"/>
      <point x="276" y="403" type="curve" smooth="yes"/>
      <point x="276" y="306"/>
      <point x="255" y="196"/>
      <point x="217" y="97" type="curve" smooth="yes"/>
      <point x="179" y="-4"/>
      <point x="138" y="-76"/>
    </contour>
  </outline>
</glyph>
<glyph name="asterisk" format="1">
  <advance width="319"/>
  <unicode hex="002A"/>
  <outline>
    <contour>
      <point x="135" y="591" type="line"/>
      <point x="161" y="646" type="line"/>
      <point x="240" y="608" type="line"/>
      <point x="260" y="718" type="line"/>
      <point x="309" y="718" type="line"/>
      <point x="290" y="608" type="line"/>
      <point x="382" y="646" type="line"/>
      <point x="389" y="591" type="line"/>
      <point x="295" y="557" type="line"/>
      <point x="333" y="465" type="line"/>
      <point x="287" y="431" type="line"/>
      <point x="251" y="525" type="line"/>
      <point x="181" y="431" type="line"/>
      <point x="147" y="465" type="line"/>
      <point x="218" y="557" type="line"/>
    </contour>
  </outline>
</glyph>
<glyph name="plus" format="1">
  <advance width="479"/>
  <unicode hex="002B"/>
  <outline>
    <contour>
      <point x="260" y="289" type="line"/>
      <point x="298" y="505" type="line"/>
      <point x="358" y="505" type="line"/>
      <point x="320" y="289" type="line"/>
      <point x="497" y="289" type="line"/>
      <point x="484" y="216" type="line"/>
      <point x="307" y="216" type="line"/>
      <point x="270" y="0" type="line"/>
      <point x="210" y="0" type="line"/>
      <point x="248" y="216" type="line"/>
      <point x="70" y="216" type="line"/>
      <point x="83" y="289" type="line"/>
    </contour>
  </outline>
</glyph>
<glyph name="hyphen" format="1">
  <advance width="273"/>
  <unicode hex="002D"/>
  <outline>
    <contour>
      <point x="293" y="322" type="line"/>
      <point x="277" y="232" type="line"/>
      <point x="77" y="232" type="line"/>
      <point x="93" y="322" type="line"/>
    </contour>
  </outline>
</glyph>
<glyph name="one" format="1">
  <advance width="456"/>
  <unicode hex="0031"/>
  <outline>
    <contour>
      <point x="417" y="703" type="line"/>
      <point x="295" y="0" type="line"/>
      <point x="217" y="0" type="line"/>
      <point x="304" y="499" type="line"/>
      <point x="170" y="499" type="line"/>
      <point x="182" y="569" type="line"/>
      <point x="291" y="577"/>
      <point x="320" y="599"/>
      <point x="360" y="703" type="curve"/>
    </contour>
  </outline>
</glyph>
<glyph name="two" format="1">
  <advance width="456"/>
  <unicode hex="0032"/>
  <outline>
    <contour>
      <point x="187" y="451" type="curve"/>
      <point x="114" y="451" type="line"/>
      <point x="131" y="533"/>
      <point x="147" y="572"/>
      <point x="179" y="615" type="curve" smooth="yes"/>
      <point x="221" y="670"/>
      <point x="285" y="703"/>
      <point x="354" y="703" type="curve" smooth="yes"/>
      <point x="447" y="703"/>
      <point x="506" y="641"/>
      <point x="506" y="543" type="curve" smooth="yes"/>
      <point x="506" y="483"/>
      <point x="487" y="422"/>
      <point x="455" y="377" type="curve" smooth="yes"/>
      <point x="425" y="336"/>
      <point x="391" y="308"/>
      <point x="306" y="258" type="curve"/>
      <point x="240" y="218" type="line"/>
      <point x="175" y="180"/>
      <point x="131" y="131"/>
      <point x="117" y="83" type="curve"/>
      <point x="430" y="83" type="line"/>
      <point x="416" y="0" type="line"/>
      <point x="21" y="0" type="line"/>
      <point x="48" y="131"/>
      <point x="103" y="214"/>
      <point x="205" y="279" type="curve" smooth="yes"/>
      <point x="291" y="333" type="line" smooth="yes"/>
      <point x="359" y="376"/>
      <point x="380" y="394"/>
      <point x="399" y="424" type="curve" smooth="yes"/>
      <point x="417" y="453"/>
      <point x="427" y="491"/>
      <point x="427" y="525" type="curve" smooth="yes"/>
      <point x="427" y="587"/>
      <point x="392" y="624"/>
      <point x="333" y="624" type="curve" smooth="yes"/>
      <point x="258" y="624"/>
      <point x="214" y="572"/>
    </contour>
  </outline>
</glyph>
<glyph name="four" format="1">
  <advance width="456"/>
  <unicode hex="0034"/>
  <outline>
    <contour>
      <point x="459" y="171" type="line"/>
      <point x="374" y="171" type="line"/>
      <point x="344" y="0" type="line"/>
      <point x="272" y="0" type="line"/>
      <point x="302" y="171" type="line"/>
      <point x="50" y="171" type="line"/>
      <point x="65" y="257" type="line"/>
      <point x="407" y="703" type="line"/>
      <point x="467" y="703" type="line"/>
      <point x="387" y="247" type="line"/>
      <point x="472" y="247" type="line"/>
    </contour>
    <contour>
      <point x="371" y="569" type="line"/>
      <point x="130" y="247" type="line"/>
      <point x="315" y="247" type="line"/>
    </contour>
  </outline>
</glyph>
<glyph name="seven" format="1">
  <advance width="456"/>
  <unicode hex="0037"/>
  <outline>
    <contour>
      <point x="135" y="602" type="line"/>
      <point x="150" y="688" type="line"/>
      <point x="549" y="688" type="line"/>
      <point x="536" y="611" type="line"/>
      <point x="385" y="446"/>
      <point x="271" y="243"/>
      <point x="192" y="0" type="curve"/>
      <point x="112" y="0" type="line"/>
      <point x="172" y="200"/>
      <point x="294" y="415"/>
      <point x="453" y="602" type="curve"/>
    </contour>
  </outline>
</glyph>
<glyph name="nine" format="1">
  <advance width="456"/>
  <unicode hex="0039"/>
  <outline>
    <contour>
      <point x="70" y="169" type="curve"/>
      <point x="142" y="169" type="line"/>
      <point x="141" y="157"/>
      <point x="141" y="148"/>
      <point x="141" y="140" type="curve" smooth="yes"/>
      <point x="141" y="87"/>
      <point x="171" y="54"/>
      <point x="220" y="54" type="curve" smooth="yes"/>
      <point x="258" y="54"/>
      <point x="289" y="72"/>
      <point x="319" y="112" type="curve" smooth="yes"/>
      <point x="351" y="154"/>
      <point x="373" y="208"/>
      <point x="406" y="325" type="curve"/>
      <point x="370" y="266"/>
      <point x="318" y="235"/>
      <point x="255" y="235" type="curve" smooth="yes"/>
      <point x="166" y="235"/>
      <point x="110" y="300"/>
      <point x="110" y="402" type="curve" smooth="yes"/>
      <point x="110" y="478"/>
      <point x="136" y="558"/>
      <point x="179" y="615" type="curve" smooth="yes"/>
      <point x="223" y="673"/>
      <point x="279" y="703"/>
      <point x="344" y="703" type="curve" smooth="yes"/>
      <point x="444" y="703"/>
      <point x="499" y="633"/>
      <point x="499" y="504" type="curve" smooth="yes"/>
      <point x="499" y="392"/>
      <point x="463" y="241"/>
      <point x="411" y="138" type="curve" smooth="yes"/>
      <point x="359" y="35"/>
      <point x="289" y="-19"/>
      <point x="207" y="-19" type="curve" smooth="yes"/>
      <point x="122" y="-19"/>
      <point x="67" y="38"/>
      <point x="67" y="126" type="curve" smooth="yes"/>
      <point x="67" y="136"/>
      <point x="68" y="151"/>
    </contour>
    <contour>
      <point x="331" y="624" type="curve" smooth="yes"/>
      <point x="250" y="624"/>
      <point x="186" y="532"/>
      <point x="186" y="415" type="curve" smooth="yes"/>
      <point x="186" y="349"/>
      <point x="218" y="314"/>
      <point x="277" y="314" type="curve" smooth="yes"/>
      <point x="321" y="314"/>
      <point x="357" y="334"/>
      <point x="383" y="374" type="curve" smooth="yes"/>
      <point x="407" y="410"/>
      <point x="423" y="468"/>
      <point x="423" y="518" type="curve" smooth="yes"/>
      <point x="423" y="585"/>
      <point x="389" y="624"/>
    </contour>
  </outline>
</glyph>
<glyph name="semicolon" format="1">
  <advance width="228"/>
  <unicode hex="003B"/>
  <outline>
    <contour>
      <point x="72" y="0" type="line"/>
      <point x="90" y="106" type="line"/>
      <point x="176" y="106" type="line"/>
      <point x="158" y="8" type="line" smooth="yes"/>
      <point x="142" y="-82"/>
      <point x="103" y="-136"/>
      <point x="46" y="-147" type="curve"/>
      <point x="54" y="-101" type="line"/>
      <point x="84" y="-97"/>
      <point x="103" y="-64"/>
      <point x="115" y="0" type="curve"/>
    </contour>
    <contour>
      <point x="229" y="410" type="line"/>
      <point x="143" y="410" type="line"/>
      <point x="162" y="516" type="line"/>
      <point x="247" y="516" type="line"/>
    </contour>
  </outline>
</glyph>
<glyph name="equal" format="1">
  <advance width="479"/>
  <unicode hex="003D"/>
  <outline>
    <contour>
      <point x="515" y="390" type="line"/>
      <point x="502" y="317" type="line"/>
      <point x="87" y="317" type="line"/>
      <point x="100" y="390" type="line"/>
    </contour>
    <contour>
      <point x="480" y="188" type="line"/>
      <point x="467" y="115" type="line"/>
      <point x="52" y="115" type="line"/>
      <point x="65" y="188" type="line"/>
    </contour>
  </outline>
</glyph>
<glyph name="D" format="1">
  <advance width="592"/>
  <unicode hex="0044"/>
  <outline>
    <contour>
      <point x="66" y="0" type="line"/>
      <point x="191" y="718" type="line"/>
      <point x="430" y="718" type="line" smooth="yes"/>
      <point x="553" y="718"/>
      <point x="626" y="626"/>
      <point x="626" y="472" type="curve" smooth="yes"/>
      <point x="626" y="345"/>
      <point x="583" y="206"/>
      <point x="515" y="116" type="curve" smooth="yes"/>
      <point x="457" y="38"/>
      <point x="386" y="0"/>
      <point x="302" y="0" type="curve" smooth="yes"/>
    </contour>
    <contour>
      <point x="256" y="635" type="line"/>
      <point x="160" y="83" type="line"/>
      <point x="314" y="83" type="line" smooth="yes"/>
      <point x="374" y="83"/>
      <point x="427" y="116"/>
      <point x="468" y="178" type="curve" smooth="yes"/>
      <point x="512" y="245"/>
      <point x="543" y="361"/>
      <point x="543" y="461" type="curve" smooth="yes"/>
      <point x="543" y="573"/>
      <point x="494" y="635"/>
      <point x="405" y="635" type="curve" smooth="yes"/>
    </contour>
  </outline>
</glyph>
<glyph name="F" format="1">
  <advance width="501"/>
  <unicode hex="0046"/>
  <outline>
    <contour>
      <point x="207" y="326" type="line"/>
      <point x="150" y="0" type="line"/>
      <point x="71" y="0" type="line"/>
      <point x="196" y="718" type="line"/>
      <point x="603" y="718" type="line"/>
      <point x="588" y="632" type="line"/>
      <point x="260" y="632" type="line"/>
      <point x="222" y="412" type="line"/>
      <point x="510" y="412" type="line"/>
      <point x="495" y="326" type="line"/>
    </contour>
  </outline>
</glyph>
<glyph name="H" format="1">
  <advance width="592"/>
  <unicode hex="0048"/>
  <outline>
    <contour>
      <point x="524" y="421" type="line"/>
      <point x="575" y="718" type="line"/>
      <point x="655" y="718" type="line"/>
      <point x="530" y="0" type="line"/>
      <point x="450" y="0" type="line"/>
      <point x="509" y="335" type="line"/>
      <point x="201" y="335" type="line"/>
      <point x="143" y="0" type="line"/>
      <point x="63" y="0" type="line"/>
      <point x="188" y="718" type="line"/>
      <point x="268" y="718" type="line"/>
      <point x="216" y="421" type="line"/>
    </contour>
  </outline>
</glyph>
<glyph name="J" format="1">
  <advance width="410"/>
  <unicode hex="004A"/>
  <outline>
    <contour>
      <point x="55" y="231" type="line"/>
      <point x="129" y="231" type="line"/>
      <point x="121" y="181" type="line" smooth="yes"/>
      <point x="118" y="167"/>
      <point x="117" y="154"/>
      <point x="117" y="139" type="curve" smooth="yes"/>
      <point x="117" y="89"/>
      <point x="141" y="64"/>
      <point x="189" y="64" type="curve" smooth="yes"/>
      <point x="252" y="64"/>
      <point x="290" y="104"/>
      <point x="304" y="188" type="curve" smooth="yes"/>
      <point x="397" y="718" type="line"/>
      <point x="476" y="718" type="line"/>
      <point x="385" y="194" type="line" smooth="yes"/>
      <point x="361" y="58"/>
      <point x="286" y="-19"/>
      <point x="178" y="-19" type="curve" smooth="yes"/>
      <point x="89" y="-19"/>
      <point x="39" y="31"/>
      <point x="39" y="120" type="curve" smooth="yes"/>
      <point x="39" y="133"/>
      <point x="40" y="147"/>
      <point x="42" y="160" type="curve" smooth="yes"/>
    </contour>
  </outline>
</glyph>
<glyph name="K" format="1">
  <advance width="547"/>
  <unicode hex="004B"/>
  <outline>
    <contour>
      <point x="185" y="252" type="line"/>
      <point x="142" y="0" type="line"/>
      <point x="62" y="0" type="line"/>
      <point x="187" y="718" type="line"/>
      <point x="267" y="718" type="line"/>
      <point x="206" y="370" type="line"/>
      <point x="552" y="718" type="line"/>
      <point x="662" y="718" type="line"/>
      <point x="366" y="428" type="line"/>
      <point x="543" y="0" type="line"/>
      <point x="440" y="0" type="line"/>
      <point x="297" y="360" type="line"/>
    </contour>
  </outline>
</glyph>
<glyph name="L" format="1">
  <advance width="456"/>
  <unicode hex="004C"/>
  <outline>
    <contour>
      <point x="267" y="718" type="line"/>
      <point x="157" y="86" type="line"/>
      <point x="455" y="86" type="line"/>
      <point x="440" y="0" type="line"/>
      <point x="62" y="0" type="line"/>
      <point x="187" y="718" type="line"/>
    </contour>
  </outline>
</glyph>
<glyph name="T" format="1">
  <advance width="501"/>
  <unicode hex="0054"/>
  <outline>
    <contour>
      <point x="122" y="632" type="line"/>
      <point x="137" y="718" type="line"/>
      <point x="615" y="718" type="line"/>
      <point x="600" y="632" type="line"/>
      <point x="401" y="632" type="line"/>
      <point x="291" y="0" type="line"/>
      <point x="211" y="0" type="line"/>
      <point x="321" y="632" type="line"/>
    </contour>
  </outline>
</glyph>
<glyph name="U" format="1">
  <advance width="592"/>
  <unicode hex="0055"/>
  <outline>
    <contour>
      <point x="574" y="718" type="line"/>
      <point x="653" y="718" type="line"/>
      <point x="572" y="252" type="line" smooth="yes"/>
      <point x="543" y="87"/>
      <point x="433" y="-19"/>
      <point x="289" y="-19" type="curve" smooth="yes"/>
      <point x="169" y="-19"/>
      <point x="101" y="52"/>
      <point x="101" y="176" type="curve" smooth="yes"/>
      <point x="101" y="197"/>
      <point x="103" y="218"/>
      <point x="106" y="239" type="curve" smooth="yes"/>
      <point x="190" y="718" type="line"/>
      <point x="269" y="718" type="line"/>
      <point x="191" y="266" type="line" smooth="yes"/>
      <point x="187" y="245"/>
      <point x="185" y="223"/>
      <point x="185" y="202" type="curve" smooth="yes"/>
      <point x="185" y="115"/>
      <point x="228" y="67"/>
      <point x="307" y="67" type="curve" smooth="yes"/>
      <point x="404" y="67"/>
      <point x="473" y="139"/>
      <point x="494" y="264" type="curve"/>
    </contour>
  </outline>
</glyph>
<glyph name="V" format="1">
  <advance width="547"/>
  <unicode hex="0056"/>
  <outline>
    <contour>
      <point x="292" y="103" type="line"/>
      <point x="567" y="718" type="line"/>
      <point x="656" y="718" type="line"/>
      <point x="316" y="0" type="line"/>
      <point x="232" y="0" type="line"/>
      <point x="142" y="718" type="line"/>
      <point x="231" y="718" type="line"/>
    </contour>
  </outline>
</glyph>
<glyph name="W" format="1">
  <advance width="774"/>
  <unicode hex="0057"/>
  <outline>
    <contour>
      <point x="491" y="599" type="line"/>
      <point x="250" y="0" type="line"/>
      <point x="166" y="0" type="line"/>
      <point x="138" y="718" type="line"/>
      <point x="224" y="718" type="line"/>
      <point x="232" y="130" type="line"/>
      <point x="468" y="718" type="line"/>
      <point x="555" y="718" type="line"/>
      <point x="585" y="130" type="line"/>
      <point x="798" y="718" type="line"/>
      <point x="886" y="718" type="line"/>
      <point x="606" y="0" type="line"/>
      <point x="522" y="0" type="line"/>
    </contour>
  </outline>
</glyph>
<glyph name="X" format="1">
  <advance width="547"/>
  <unicode hex="0058"/>
  <outline>
    <contour>
      <point x="389" y="368" type="line"/>
      <point x="531" y="0" type="line"/>
      <point x="433" y="0" type="line"/>
      <point x="326" y="295" type="line"/>
      <point x="112" y="0" type="line"/>
      <point x="16" y="0" type="line"/>
      <point x="290" y="368" type="line"/>
      <point x="154" y="718" type="line"/>
      <point x="254" y="718" type="line"/>
      <point x="355" y="443" type="line"/>
      <point x="552" y="718" type="line"/>
      <point x="647" y="718" type="line"/>
    </contour>
  </outline>
</glyph>
<glyph name="Y" format="1">
  <advance width="547"/>
  <unicode hex="0059"/>
  <outline>
    <contour>
      <point x="364" y="289" type="line"/>
      <point x="314" y="0" type="line"/>
      <point x="234" y="0" type="line"/>
      <point x="284" y="289" type="line"/>
      <point x="137" y="718" type="line"/>
      <point x="230" y="718" type="line"/>
      <point x="338" y="373" type="line"/>
      <point x="568" y="718" type="line"/>
      <point x="661" y="718" type="line"/>
    </contour>
  </outline>
</glyph>
<glyph name="Z" format="1">
  <advance width="501"/>
  <unicode hex="005A"/>
  <outline>
    <contour>
      <point x="497" y="86" type="line"/>
      <point x="482" y="0" type="line"/>
      <point x="19" y="0" type="line"/>
      <point x="33" y="81" type="line"/>
      <point x="490" y="632" type="line"/>
      <point x="156" y="632" type="line"/>
      <point x="171" y="718" type="line"/>
      <point x="607" y="718" type="line"/>
      <point x="592" y="634" type="line"/>
      <point x="135" y="86" type="line"/>
    </contour>
  </outline>
</glyph>
<glyph name="bracketleft" format="1">
  <advance width="228"/>
  <unicode hex="005B"/>
  <outline>
    <contour>
      <point x="230" y="651" type="line"/>
      <point x="94" y="-125" type="line"/>
      <point x="183" y="-125" type="line"/>
      <point x="171" y="-196" type="line"/>
      <point x="17" y="-196" type="line"/>
      <point x="177" y="722" type="line"/>
      <point x="331" y="722" type="line"/>
      <point x="319" y="651" type="line"/>
    </contour>
  </outline>
</glyph>
<glyph name="b" format="1">
  <advance width="456"/>
  <unicode hex="0062"/>
  <outline>
    <contour>
      <point x="116" y="0" type="line"/>
      <point x="48" y="0" type="line"/>
      <point x="173" y="718" type="line"/>
      <point x="245" y="718" type="line"/>
      <point x="199" y="455" type="line"/>
      <point x="247" y="514"/>
      <point x="288" y="538"/>
      <point x="341" y="538" type="curve" smooth="yes"/>
      <point x="426" y="538"/>
      <point x="479" y="468"/>
      <point x="479" y="355" type="curve" smooth="yes"/>
      <point x="479" y="256"/>
      <point x="445" y="145"/>
      <point x="391" y="73" type="curve" smooth="yes"/>
      <point x="348" y="15"/>
      <point x="295" y="-15"/>
      <point x="234" y="-15" type="curve" smooth="yes"/>
      <point x="179" y="-15"/>
      <point x="149" y="8"/>
      <point x="128" y="68" type="curve"/>
    </contour>
    <contour>
      <point x="313" y="459" type="curve" smooth="yes"/>
      <point x="266" y="459"/>
      <point x="227" y="431"/>
      <point x="200" y="378" type="curve" smooth="yes"/>
      <point x="173" y="323"/>
      <point x="153" y="240"/>
      <point x="153" y="179" type="curve" smooth="yes"/>
      <point x="153" y="107"/>
      <point x="189" y="61"/>
      <point x="245" y="61" type="curve" smooth="yes"/>
      <point x="290" y="61"/>
      <point x="331" y="92"/>
      <point x="359" y="147" type="curve" smooth="yes"/>
      <point x="386" y="199"/>
      <point x="404" y="281"/>
      <point x="404" y="348" type="curve" smooth="yes"/>
      <point x="404" y="419"/>
      <point x="371" y="459"/>
    </contour>
  </outline>
</glyph>
<glyph name="e" format="1">
  <advance width="456"/>
  <unicode hex="0065"/>
  <outline>
    <contour>
      <point x="373" y="164" type="curve"/>
      <point x="445" y="164" type="line"/>
      <point x="407" y="51"/>
      <point x="326" y="-15"/>
      <point x="226" y="-15" type="curve" smooth="yes"/>
      <point x="126" y="-15"/>
      <point x="69" y="53"/>
      <point x="69" y="172" type="curve" smooth="yes"/>
      <point x="69" y="269"/>
      <point x="102" y="375"/>
      <point x="153" y="443" type="curve" smooth="yes"/>
      <point x="199" y="505"/>
      <point x="261" y="538"/>
      <point x="329" y="538" type="curve" smooth="yes"/>
      <point x="380" y="538"/>
      <point x="421" y="518"/>
      <point x="442" y="482" type="curve" smooth="yes"/>
      <point x="461" y="449"/>
      <point x="474" y="399"/>
      <point x="474" y="354" type="curve" smooth="yes"/>
      <point x="474" y="323"/>
      <point x="470" y="282"/>
      <point x="463" y="233" type="curve"/>
      <point x="150" y="233" type="line"/>
      <point x="146" y="208"/>
      <point x="144" y="187"/>
      <point x="144" y="171" type="curve" smooth="yes"/>
      <point x="144" y="103"/>
      <point x="181" y="61"/>
      <point x="242" y="61" type="curve" smooth="yes"/>
      <point x="300" y="61"/>
      <point x="355" y="104"/>
    </contour>
    <contour>
      <point x="162" y="303" type="curve"/>
      <point x="401" y="303" type="line"/>
      <point x="402" y="321"/>
      <point x="403" y="337"/>
      <point x="403" y="350" type="curve" smooth="yes"/>
      <point x="403" y="417"/>
      <point x="368" y="459"/>
      <point x="312" y="459" type="curve" smooth="yes"/>
      <point x="243" y="459"/>
      <point x="183" y="396"/>
    </contour>
  </outline>
</glyph>
<glyph name="j" format="1">
  <advance width="182"/>
  <unicode hex="006A"/>
  <outline>
    <contour>
      <point x="218" y="523" type="line"/>
      <point x="114" y="-77" type="line" smooth="yes"/>
      <point x="98" y="-168"/>
      <point x="57" y="-210"/>
      <point x="-17" y="-210" type="curve" smooth="yes"/>
      <point x="-28" y="-210"/>
      <point x="-38" y="-209"/>
      <point x="-49" y="-207" type="curve"/>
      <point x="-36" y="-131" type="line"/>
      <point x="-21" y="-131" type="line" smooth="yes"/>
      <point x="25" y="-131"/>
      <point x="34" y="-122"/>
      <point x="43" y="-67" type="curve" smooth="yes"/>
      <point x="146" y="523" type="line"/>
    </contour>
    <contour>
      <point x="252" y="718" type="line"/>
      <point x="235" y="618" type="line"/>
      <point x="163" y="618" type="line"/>
      <point x="180" y="718" type="line"/>
    </contour>
  </outline>
</glyph>
<glyph name="k" format="1">
  <advance width="410"/>
  <unicode hex="006B"/>
  <outline>
    <contour>
      <point x="294" y="328" type="line"/>
      <point x="411" y="0" type="line"/>
      <point x="318" y="0" type="line"/>
      <point x="231" y="264" type="line"/>
      <point x="159" y="198" type="line"/>
      <point x="125" y="0" type="line"/>
      <point x="55" y="0" type="line"/>
      <point x="180" y="718" type="line"/>
      <point x="250" y="718" type="line"/>
      <point x="177" y="302" type="line"/>
      <point x="400" y="523" type="line"/>
      <point x="492" y="523" type="line"/>
    </contour>
  </outline>
</glyph>
<glyph name="l" format="1">
  <advance width="182"/>
  <unicode hex="006C"/>
  <outline>
    <contour>
      <point x="252" y="718" type="line"/>
      <point x="127" y="0" type="line"/>
      <point x="55" y="0" type="line"/>
      <point x="180" y="718" type="line"/>
    </contour>
  </outline>
</glyph>
<glyph name="m" format="1">
  <advance width="683"/>
  <unicode hex="006D"/>
  <outline>
    <contour>
      <point x="53" y="0" type="line"/>
      <point x="144" y="523" type="line"/>
      <point x="213" y="523" type="line"/>
      <point x="199" y="446" type="line"/>
      <point x="248" y="511"/>
      <point x="291" y="538"/>
      <point x="348" y="538" type="curve" smooth="yes"/>
      <point x="401" y="538"/>
      <point x="430" y="513"/>
      <point x="446" y="453" type="curve"/>
      <point x="508" y="520"/>
      <point x="538" y="538"/>
      <point x="590" y="538" type="curve" smooth="yes"/>
      <point x="658" y="538"/>
      <point x="699" y="491"/>
      <point x="699" y="414" type="curve" smooth="yes"/>
      <point x="699" y="397"/>
      <point x="697" y="379"/>
      <point x="694" y="362" type="curve" smooth="yes"/>
      <point x="631" y="0" type="line"/>
      <point x="559" y="0" type="line"/>
      <point x="618" y="338" type="line" smooth="yes"/>
      <point x="621" y="354"/>
      <point x="622" y="369"/>
      <point x="622" y="387" type="curve" smooth="yes"/>
      <point x="622" y="434"/>
      <point x="601" y="459"/>
      <point x="561" y="459" type="curve" smooth="yes"/>
      <point x="503" y="459"/>
      <point x="448" y="398"/>
      <point x="434" y="319" type="curve" smooth="yes"/>
      <point x="378" y="0" type="line"/>
      <point x="306" y="0" type="line"/>
      <point x="369" y="362" type="line" smooth="yes"/>
      <point x="371" y="372"/>
      <point x="372" y="384"/>
      <point x="372" y="393" type="curve" smooth="yes"/>
      <point x="372" y="436"/>
      <point x="353" y="459"/>
      <point x="320" y="459" type="curve" smooth="yes"/>
      <point x="250" y="459"/>
      <point x="193" y="391"/>
      <point x="175" y="285" type="curve" smooth="yes"/>
      <point x="125" y="0" type="line"/>
    </contour>
  </outline>
</glyph>
<glyph name="n" format="1">
  <advance width="456"/>
  <unicode hex="006E"/>
  <outline>
    <contour>
      <point x="212" y="523" type="line"/>
      <point x="199" y="446" type="line"/>
      <point x="249" y="511"/>
      <point x="293" y="538"/>
      <point x="352" y="538" type="curve" smooth="yes"/>
      <point x="426" y="538"/>
      <point x="470" y="490"/>
      <point x="470" y="410" type="curve" smooth="yes"/>
      <point x="470" y="393"/>
      <point x="468" y="375"/>
      <point x="465" y="356" type="curve" smooth="yes"/>
      <point x="403" y="0" type="line"/>
      <point x="331" y="0" type="line"/>
      <point x="387" y="322" type="line" smooth="yes"/>
      <point x="390" y="342"/>
      <point x="392" y="362"/>
      <point x="392" y="382" type="curve" smooth="yes"/>
      <point x="392" y="433"/>
      <point x="369" y="459"/>
      <point x="323" y="459" type="curve" smooth="yes"/>
      <point x="250" y="459"/>
      <point x="194" y="393"/>
      <point x="175" y="285" type="curve" smooth="yes"/>
      <point x="125" y="0" type="line"/>
      <point x="53" y="0" type="line"/>
      <point x="144" y="523" type="line"/>
    </contour>
  </outline>
</glyph>
<glyph name="p" format="1">
  <advance width="456"/>
  <unicode hex="0070"/>
  <outline>
    <contour>
      <point x="11" y="-207" type="line"/>
      <point x="138" y="523" type="line"/>
      <point x="207" y="523" type="line"/>
      <point x="193" y="446" type="line"/>
      <point x="245" y="515"/>
      <point x="282" y="538"/>
      <point x="341" y="538" type="curve" smooth="yes"/>
      <point x="426" y="538"/>
      <point x="479" y="468"/>
      <point x="479" y="355" type="curve" smooth="yes"/>
      <point x="479" y="256"/>
      <point x="445" y="145"/>
      <point x="391" y="73" type="curve" smooth="yes"/>
      <point x="348" y="15"/>
      <point x="295" y="-15"/>
      <point x="234" y="-15" type="curve" smooth="yes"/>
      <point x="181" y="-15"/>
      <point x="149" y="7"/>
      <point x="130" y="58" type="curve"/>
      <point x="83" y="-207" type="line"/>
    </contour>
    <contour>
      <point x="313" y="459" type="curve" smooth="yes"/>
      <point x="266" y="459"/>
      <point x="226" y="430"/>
      <point x="200" y="378" type="curve" smooth="yes"/>
      <point x="172" y="320"/>
      <point x="153" y="239"/>
      <point x="153" y="178" type="curve" smooth="yes"/>
      <point x="153" y="107"/>
      <point x="189" y="61"/>
      <point x="245" y="61" type="curve" smooth="yes"/>
      <point x="283" y="61"/>
      <point x="319" y="84"/>
      <point x="346" y="125" type="curve" smooth="yes"/>
      <point x="378" y="173"/>
      <point x="404" y="273"/>
      <point x="404" y="348" type="curve" smooth="yes"/>
      <point x="404" y="419"/>
      <point x="372" y="459"/>
    </contour>
  </outline>
</glyph>
<glyph name="q" format="1">
  <advance width="456"/>
  <unicode hex="0071"/>
  <outline>
    <contour>
      <point x="496" y="523" type="line"/>
      <point x="369" y="-207" type="line"/>
      <point x="297" y="-207" type="line"/>
      <point x="343" y="58" type="line"/>
      <point x="305" y="7"/>
      <point x="266" y="-15"/>
      <point x="213" y="-15" type="curve" smooth="yes"/>
      <point x="121" y="-15"/>
      <point x="69" y="58"/>
      <point x="69" y="185" type="curve" smooth="yes"/>
      <point x="69" y="381"/>
      <point x="171" y="538"/>
      <point x="300" y="538" type="curve" smooth="yes"/>
      <point x="357" y="538"/>
      <point x="387" y="514"/>
      <point x="415" y="446" type="curve"/>
      <point x="428" y="523" type="line"/>
    </contour>
    <contour>
      <point x="299" y="459" type="curve" smooth="yes"/>
      <point x="251" y="459"/>
      <point x="210" y="431"/>
      <point x="184" y="380" type="curve" smooth="yes"/>
      <point x="159" y="331"/>
      <point x="143" y="254"/>
      <point x="143" y="186" type="curve" smooth="yes"/>
      <point x="143" y="107"/>
      <point x="174" y="61"/>
      <point x="228" y="61" type="curve" smooth="yes"/>
      <point x="321" y="61"/>
      <point x="387" y="174"/>
      <point x="387" y="335" type="curve" smooth="yes"/>
      <point x="387" y="417"/>
      <point x="357" y="459"/>
    </contour>
  </outline>
</glyph>
<glyph name="r" format="1">
  <advance width="273"/>
  <unicode hex="0072"/>
  <outline>
    <contour>
      <point x="349" y="444" type="line"/>
      <point x="322" y="444" type="line" smooth="yes"/>
      <point x="259" y="444"/>
      <point x="202" y="385"/>
      <point x="188" y="304" type="curve" smooth="yes"/>
      <point x="135" y="0" type="line"/>
      <point x="63" y="0" type="line"/>
      <point x="154" y="523" type="line"/>
      <point x="222" y="523" type="line"/>
      <point x="206" y="433" type="line"/>
      <point x="258" y="509"/>
      <point x="296" y="538"/>
      <point x="347" y="538" type="curve" smooth="yes"/>
      <point x="354" y="538"/>
      <point x="359" y="537"/>
      <point x="365" y="535" type="curve"/>
    </contour>
  </outline>
</glyph>
<glyph name="v" format="1">
  <advance width="410"/>
  <unicode hex="0076"/>
  <outline>
    <contour>
      <point x="219" y="94" type="line"/>
      <point x="416" y="523" type="line"/>
      <point x="495" y="523" type="line"/>
      <point x="241" y="0" type="line"/>
      <point x="163" y="0" type="line"/>
      <point x="98" y="523" type="line"/>
      <point x="182" y="523" type="line"/>
    </contour>
  </outline>
</glyph>
<glyph name="w" format="1">
  <advance width="592"/>
  <unicode hex="0077"/>
  <outline>
    <contour>
      <point x="366" y="409" type="line"/>
      <point x="210" y="0" type="line"/>
      <point x="136" y="0" type="line"/>
      <point x="103" y="523" type="line"/>
      <point x="182" y="523" type="line"/>
      <point x="192" y="108" type="line"/>
      <point x="348" y="523" type="line"/>
      <point x="429" y="523" type="line"/>
      <point x="441" y="108" type="line"/>
      <point x="601" y="523" type="line"/>
      <point x="673" y="523" type="line"/>
      <point x="457" y="0" type="line"/>
      <point x="383" y="0" type="line"/>
    </contour>
  </outline>
</glyph>
<glyph name="braceleft" format="1">
  <advance width="274"/>
  <unicode hex="007B"/>
  <outline>
    <contour>
      <point x="75" y="234" type="curve"/>
      <point x="85" y="294" type="line"/>
      <point x="124" y="295"/>
      <point x="161" y="347"/>
      <point x="174" y="421" type="curve" smooth="yes"/>
      <point x="204" y="593" type="line" smooth="yes"/>
      <point x="217" y="667"/>
      <point x="262" y="722"/>
      <point x="310" y="722" type="curve" smooth="yes"/>
      <point x="365" y="722" type="line"/>
      <point x="354" y="657" type="line"/>
      <point x="318" y="657" type="line" smooth="yes"/>
      <point x="293" y="657"/>
      <point x="275" y="629"/>
      <point x="266" y="575" type="curve" smooth="yes"/>
      <point x="236" y="405" type="line" smooth="yes"/>
      <point x="226" y="344"/>
      <point x="179" y="277"/>
      <point x="137" y="264" type="curve"/>
      <point x="171" y="246"/>
      <point x="189" y="209"/>
      <point x="189" y="155" type="curve" smooth="yes"/>
      <point x="189" y="141"/>
      <point x="188" y="131"/>
      <point x="186" y="120" type="curve" smooth="yes"/>
      <point x="157" y="-49" type="line" smooth="yes"/>
      <point x="154" y="-64"/>
      <point x="153" y="-77"/>
      <point x="153" y="-88" type="curve" smooth="yes"/>
      <point x="153" y="-116"/>
      <point x="163" y="-131"/>
      <point x="180" y="-131" type="curve" smooth="yes"/>
      <point x="216" y="-131" type="line"/>
      <point x="205" y="-196" type="line"/>
      <point x="150" y="-196" type="line" smooth="yes"/>
      <point x="112" y="-196"/>
      <point x="86" y="-158"/>
      <point x="86" y="-103" type="curve" smooth="yes"/>
      <point x="86" y="-89"/>
      <point x="87" y="-79"/>
      <point x="89" y="-67" type="curve" smooth="yes"/>
      <point x="119" y="104" type="line" smooth="yes"/>
      <point x="121" y="118"/>
      <point x="122" y="129"/>
      <point x="122" y="149" type="curve" smooth="yes"/>
      <point x="122" y="180"/>
      <point x="112" y="214"/>
      <point x="99" y="225" type="curve" smooth="yes"/>
      <point x="94" y="230"/>
      <point x="87" y="232"/>
    </contour>
  </outline>
</glyph>
<glyph name="bar" format="1">
  <advance width="213"/>
  <unicode hex="007C"/>
  <outline>
    <contour>
      <point x="74" y="-19" type="line"/>
      <point x="205" y="737" type="line"/>
      <point x="265" y="737" type="line"/>
      <point x="134" y="-19" type="line"/>
    </contour>
  </outline>
</glyph>
<glyph name="braceright" format="1">
  <advance width="274"/>
  <unicode hex="007D"/>
  <outline>
    <contour>
      <point x="291" y="294" type="curve"/>
      <point x="281" y="234" type="line"/>
      <point x="242" y="233"/>
      <point x="206" y="180"/>
      <point x="191" y="104" type="curve"/>
      <point x="161" y="-67" type="line" smooth="yes"/>
      <point x="149" y="-140"/>
      <point x="103" y="-196"/>
      <point x="55" y="-196" type="curve" smooth="yes"/>
      <point x="0" y="-196" type="line"/>
      <point x="11" y="-131" type="line"/>
      <point x="48" y="-131" type="line" smooth="yes"/>
      <point x="72" y="-131"/>
      <point x="90" y="-102"/>
      <point x="100" y="-49" type="curve" smooth="yes"/>
      <point x="129" y="120" type="line" smooth="yes"/>
      <point x="140" y="185"/>
      <point x="184" y="248"/>
      <point x="229" y="264" type="curve"/>
      <point x="196" y="279"/>
      <point x="176" y="320"/>
      <point x="176" y="373" type="curve" smooth="yes"/>
      <point x="176" y="383"/>
      <point x="177" y="394"/>
      <point x="179" y="405" type="curve" smooth="yes"/>
      <point x="209" y="575" type="line" smooth="yes"/>
      <point x="211" y="591"/>
      <point x="213" y="606"/>
      <point x="213" y="615" type="curve" smooth="yes"/>
      <point x="213" y="642"/>
      <point x="203" y="657"/>
      <point x="185" y="657" type="curve" smooth="yes"/>
      <point x="149" y="657" type="line"/>
      <point x="160" y="722" type="line"/>
      <point x="215" y="722" type="line" smooth="yes"/>
      <point x="254" y="722"/>
      <point x="280" y="684"/>
      <point x="280" y="629" type="curve" smooth="yes"/>
      <point x="280" y="618"/>
      <point x="279" y="605"/>
      <point x="277" y="593" type="curve" smooth="yes"/>
      <point x="247" y="421" type="line" smooth="yes"/>
      <point x="244" y="407"/>
      <point x="243" y="393"/>
      <point x="243" y="378" type="curve" smooth="yes"/>
      <point x="243" y="347"/>
      <point x="253" y="315"/>
      <point x="266" y="303" type="curve" smooth="yes"/>
      <point x="272" y="298"/>
      <point x="278" y="296"/>
    </contour>
  </outline>
</glyph>
<glyph name="asciitilde" format="1">
  <advance width="479"/>
  <unicode hex="007E"/>
  <outline>
    <contour>
      <point x="441" y="305" type="curve"/>
      <point x="476" y="267" type="line"/>
      <point x="431" y="205"/>
      <point x="398" y="181"/>
      <point x="357" y="181" type="curve" smooth="yes"/>
      <point x="333" y="181"/>
      <point x="313" y="190"/>
      <point x="280" y="214" type="curve" smooth="yes"/>
      <point x="246" y="239"/>
      <point x="222" y="249"/>
      <point x="194" y="249" type="curve" smooth="yes"/>
      <point x="168" y="249"/>
      <point x="149" y="236"/>
      <point x="124" y="200" type="curve"/>
      <point x="91" y="236" type="line"/>
      <point x="129" y="296"/>
      <point x="164" y="322"/>
      <point x="208" y="322" type="curve" smooth="yes"/>
      <point x="235" y="322"/>
      <point x="254" y="314"/>
      <point x="315" y="277" type="curve" smooth="yes"/>
      <point x="340" y="263"/>
      <point x="361" y="254"/>
      <point x="373" y="254" type="curve" smooth="yes"/>
      <point x="394" y="254"/>
      <point x="412" y="268"/>
    </contour>
  </outline>
</glyph>
<glyph name="exclamdown" format="1">
  <advance width="273"/>
  <unicode hex="00A1"/>
  <outline>
    <contour>
      <point x="170" y="421" type="line"/>
      <point x="188" y="523" type="line"/>
      <point x="267" y="523" type="line"/>
      <point x="249" y="421" type="line"/>
    </contour>
    <contour>
      <point x="178" y="352" type="line"/>
      <point x="218" y="352" type="line"/>
      <point x="183" y="42" type="line"/>
      <point x="142" y="-195" type="line"/>
      <point x="63" y="-195" type="line"/>
      <point x="104" y="42" type="line"/>
    </contour>
  </outline>
</glyph>
<glyph name="cent" format="1">
  <advance width="456"/>
  <unicode hex="00A2"/>
  <outline>
    <contour>
      <point x="478" y="345" type="curve"/>
      <point x="411" y="345" type="line"/>
      <point x="409" y="405"/>
      <point x="399" y="432"/>
      <point x="373" y="447" type="curve"/>
      <point x="215" y="61" type="line"/>
      <point x="224" y="58"/>
      <point x="229" y="57"/>
      <point x="242" y="57" type="curve" smooth="yes"/>
      <point x="309" y="57"/>
      <point x="346" y="90"/>
      <point x="383" y="183" type="curve"/>
      <point x="453" y="183" type="line"/>
      <point x="411" y="52"/>
      <point x="334" y="-19"/>
      <point x="234" y="-19" type="curve" smooth="yes"/>
      <point x="222" y="-19"/>
      <point x="214" y="-18"/>
      <point x="184" y="-12" type="curve"/>
      <point x="141" y="-115" type="line"/>
      <point x="107" y="-115" type="line"/>
      <point x="155" y="-1" type="line"/>
      <point x="134" y="15"/>
      <point x="123" y="25"/>
      <point x="114" y="37" type="curve" smooth="yes"/>
      <point x="92" y="69"/>
      <point x="78" y="120"/>
      <point x="78" y="169" type="curve" smooth="yes"/>
      <point x="78" y="267"/>
      <point x="113" y="381"/>
      <point x="163" y="447" type="curve"/>
      <point x="210" y="507"/>
      <point x="268" y="538"/>
      <point x="337" y="538" type="curve" smooth="yes"/>
      <point x="353" y="538"/>
      <point x="363" y="536"/>
      <point x="372" y="532" type="curve"/>
      <point x="409" y="623" type="line"/>
      <point x="441" y="623" type="line"/>
      <point x="403" y="523" type="line"/>
      <point x="453" y="499"/>
      <point x="479" y="450"/>
      <point x="479" y="379" type="curve" smooth="yes"/>
      <point x="479" y="370"/>
      <point x="479" y="359"/>
    </contour>
    <contour>
      <point x="187" y="78" type="curve"/>
      <point x="343" y="459" type="line"/>
      <point x="337" y="461"/>
      <point x="332" y="462"/>
      <point x="324" y="462" type="curve" smooth="yes"/>
      <point x="277" y="462"/>
      <point x="240" y="440"/>
      <point x="209" y="393" type="curve" smooth="yes"/>
      <point x="178" y="345"/>
      <point x="152" y="254"/>
      <point x="152" y="190" type="curve" smooth="yes"/>
      <point x="152" y="139"/>
      <point x="163" y="103"/>
    </contour>
  </outline>
</glyph>
<glyph name="sterling" format="1">
  <advance width="456"/>
  <unicode hex="00A3"/>
  <outline>
    <contour>
      <point x="233" y="380" type="curve"/>
      <point x="371" y="380" type="line"/>
      <point x="360" y="317" type="line"/>
      <point x="246" y="317" type="line"/>
      <point x="247" y="310"/>
      <point x="247" y="303"/>
      <point x="247" y="300" type="curve" smooth="yes"/>
      <point x="247" y="276"/>
      <point x="243" y="250"/>
      <point x="237" y="229" type="curve" smooth="yes"/>
      <point x="219" y="168"/>
      <point x="180" y="119"/>
      <point x="105" y="61" type="curve"/>
      <point x="154" y="90"/>
      <point x="188" y="102"/>
      <point x="225" y="102" type="curve" smooth="yes"/>
      <point x="246" y="102"/>
      <point x="269" y="96"/>
      <point x="304" y="82" type="curve" smooth="yes"/>
      <point x="330" y="72"/>
      <point x="347" y="67"/>
      <point x="357" y="67" type="curve" smooth="yes"/>
      <point x="378" y="67"/>
      <point x="403" y="78"/>
      <point x="426" y="98" type="curve"/>
      <point x="448" y="32" type="line"/>
      <point x="403" y="-3"/>
      <point x="372" y="-16"/>
      <point x="337" y="-16" type="curve" smooth="yes"/>
      <point x="318" y="-16"/>
      <point x="298" y="-10"/>
      <point x="262" y="5" type="curve" smooth="yes"/>
      <point x="221" y="22"/>
      <point x="194" y="29"/>
      <point x="172" y="29" type="curve" smooth="yes"/>
      <point x="143" y="29"/>
      <point x="112" y="17"/>
      <point x="68" y="-11" type="curve"/>
      <point x="40" y="58" type="line"/>
      <point x="93" y="98"/>
      <point x="117" y="124"/>
      <point x="142" y="167" type="curve" smooth="yes"/>
      <point x="165" y="205"/>
      <point x="175" y="237"/>
      <point x="175" y="269" type="curve" smooth="yes"/>
      <point x="175" y="282"/>
      <point x="174" y="294"/>
      <point x="170" y="317" type="curve"/>
      <point x="82" y="317" type="line"/>
      <point x="93" y="380" type="line"/>
      <point x="150" y="380" type="line"/>
      <point x="138" y="431"/>
      <point x="135" y="452"/>
      <point x="135" y="477" type="curve" smooth="yes"/>
      <point x="135" y="610"/>
      <point x="241" y="718"/>
      <point x="371" y="718" type="curve" smooth="yes"/>
      <point x="467" y="718"/>
      <point x="520" y="660"/>
      <point x="520" y="555" type="curve" smooth="yes"/>
      <point x="520" y="538"/>
      <point x="519" y="521"/>
      <point x="516" y="505" type="curve" smooth="yes"/>
      <point x="513" y="490" type="line"/>
      <point x="441" y="490" type="line"/>
      <point x="442" y="499" type="line" smooth="yes"/>
      <point x="444" y="511"/>
      <point x="445" y="519"/>
      <point x="445" y="535" type="curve" smooth="yes"/>
      <point x="445" y="601"/>
      <point x="410" y="642"/>
      <point x="353" y="642" type="curve" smooth="yes"/>
      <point x="278" y="642"/>
      <point x="214" y="572"/>
      <point x="214" y="490" type="curve" smooth="yes"/>
      <point x="214" y="462"/>
      <point x="219" y="436"/>
    </contour>
  </outline>
</glyph>
<glyph name="currency" format="1">
  <advance width="456"/>
  <unicode hex="00A4"/>
  <outline>
    <contour>
      <point x="499" y="603" type="line"/>
      <point x="530" y="555" type="line"/>
      <point x="475" y="501" type="line"/>
      <point x="490" y="467"/>
      <point x="495" y="445"/>
      <point x="495" y="408" type="curve" smooth="yes"/>
      <point x="495" y="331"/>
      <point x="471" y="263"/>
      <point x="423" y="200" type="curve"/>
      <point x="458" y="144" type="line"/>
      <point x="413" y="99" type="line"/>
      <point x="378" y="157" type="line"/>
      <point x="333" y="119"/>
      <point x="294" y="102"/>
      <point x="246" y="102" type="curve" smooth="yes"/>
      <point x="198" y="102"/>
      <point x="164" y="118"/>
      <point x="133" y="157" type="curve"/>
      <point x="78" y="99" type="line"/>
      <point x="49" y="144" type="line"/>
      <point x="103" y="200" type="line"/>
      <point x="88" y="235"/>
      <point x="83" y="259"/>
      <point x="83" y="295" type="curve" smooth="yes"/>
      <point x="83" y="371"/>
      <point x="108" y="443"/>
      <point x="156" y="501" type="curve"/>
      <point x="120" y="555" type="line"/>
      <point x="168" y="603" type="line"/>
      <point x="205" y="547" type="line"/>
      <point x="247" y="582"/>
      <point x="287" y="598"/>
      <point x="332" y="598" type="curve" smooth="yes"/>
      <point x="377" y="598"/>
      <point x="411" y="582"/>
      <point x="443" y="547" type="curve"/>
    </contour>
    <contour>
      <point x="320" y="528" type="curve" smooth="yes"/>
      <point x="231" y="528"/>
      <point x="145" y="423"/>
      <point x="145" y="313" type="curve" smooth="yes"/>
      <point x="145" y="231"/>
      <point x="192" y="172"/>
      <point x="258" y="172" type="curve" smooth="yes"/>
      <point x="346" y="172"/>
      <point x="433" y="278"/>
      <point x="433" y="387" type="curve" smooth="yes"/>
      <point x="433" y="468"/>
      <point x="385" y="528"/>
    </contour>
  </outline>
</glyph>
<glyph name="section" format="1">
  <advance width="456"/>
  <unicode hex="00A7"/>
  <outline>
    <contour>
      <point x="474" y="554" type="curve"/>
      <point x="404" y="554" type="line"/>
      <point x="406" y="569"/>
      <point x="407" y="582"/>
      <point x="407" y="592" type="curve" smooth="yes"/>
      <point x="407" y="635"/>
      <point x="383" y="661"/>
      <point x="344" y="661" type="curve" smooth="yes"/>
      <point x="293" y="661"/>
      <point x="251" y="618"/>
      <point x="251" y="566" type="curve" smooth="yes"/>
      <point x="251" y="539"/>
      <point x="265" y="516"/>
      <point x="296" y="490" type="curve" smooth="yes"/>
      <point x="401" y="404" type="line" smooth="yes"/>
      <point x="447" y="366"/>
      <point x="466" y="330"/>
      <point x="466" y="281" type="curve" smooth="yes"/>
      <point x="466" y="239"/>
      <point x="452" y="193"/>
      <point x="429" y="159" type="curve" smooth="yes"/>
      <point x="410" y="131"/>
      <point x="392" y="113"/>
      <point x="350" y="84" type="curve"/>
      <point x="370" y="50"/>
      <point x="376" y="30"/>
      <point x="376" y="1" type="curve" smooth="yes"/>
      <point x="376" y="-102"/>
      <point x="290" y="-191"/>
      <point x="191" y="-191" type="curve" smooth="yes"/>
      <point x="113" y="-191"/>
      <point x="63" y="-140"/>
      <point x="63" y="-61" type="curve" smooth="yes"/>
      <point x="63" y="-47"/>
      <point x="65" y="-26"/>
      <point x="68" y="-3" type="curve"/>
      <point x="140" y="-3" type="line"/>
      <point x="137" y="-19"/>
      <point x="136" y="-33"/>
      <point x="136" y="-43" type="curve" smooth="yes"/>
      <point x="136" y="-89"/>
      <point x="160" y="-115"/>
      <point x="201" y="-115" type="curve" smooth="yes"/>
      <point x="259" y="-115"/>
      <point x="302" y="-73"/>
      <point x="302" y="-17" type="curve" smooth="yes"/>
      <point x="302" y="6"/>
      <point x="292" y="25"/>
      <point x="269" y="47" type="curve" smooth="yes"/>
      <point x="122" y="187" type="line" smooth="yes"/>
      <point x="100" y="208"/>
      <point x="87" y="241"/>
      <point x="87" y="279" type="curve" smooth="yes"/>
      <point x="87" y="318"/>
      <point x="102" y="366"/>
      <point x="124" y="399" type="curve" smooth="yes"/>
      <point x="142" y="425"/>
      <point x="159" y="440"/>
      <point x="199" y="467" type="curve"/>
      <point x="181" y="499"/>
      <point x="175" y="516"/>
      <point x="175" y="540" type="curve" smooth="yes"/>
      <point x="175" y="580"/>
      <point x="194" y="632"/>
      <point x="222" y="668" type="curve"/>
      <point x="255" y="713"/>
      <point x="302" y="737"/>
      <point x="355" y="737" type="curve" smooth="yes"/>
      <point x="431" y="737"/>
      <point x="479" y="689"/>
      <point x="479" y="612" type="curve" smooth="yes"/>
      <point x="479" y="598"/>
      <point x="477" y="577"/>
    </contour>
    <contour>
      <point x="184" y="246" type="curve" smooth="yes"/>
      <point x="317" y="124" type="line"/>
      <point x="372" y="163"/>
      <point x="393" y="197"/>
      <point x="393" y="245" type="curve" smooth="yes"/>
      <point x="393" y="274"/>
      <point x="381" y="301"/>
      <point x="357" y="321" type="curve" smooth="yes"/>
      <point x="233" y="428" type="line"/>
      <point x="182" y="397"/>
      <point x="159" y="359"/>
      <point x="159" y="307" type="curve" smooth="yes"/>
      <point x="159" y="281"/>
      <point x="167" y="261"/>
    </contour>
  </outline>
</glyph>
<glyph name="logicalnot" format="1">
  <advance width="479"/>
  <unicode hex="00AC"/>
  <outline>
    <contour>
      <point x="406" y="108" type="line"/>
      <point x="442" y="317" type="line"/>
      <point x="87" y="317" type="line"/>
      <point x="100" y="390" type="line"/>
      <point x="515" y="390" type="line"/>
      <point x="466" y="108" type="line"/>
    </contour>
  </outline>
</glyph>
<glyph name="macron" format="1">
  <advance width="273"/>
  <unicode hex="00AF"/>
  <outline>
    <contour>
      <point x="384" y="684" type="line"/>
      <point x="374" y="627" type="line"/>
      <point x="117" y="627" type="line"/>
      <point x="127" y="684" type="line"/>
    </contour>
  </outline>
</glyph>
<glyph name="degree" format="1">
  <advance width="328"/>
  <unicode hex="00B0"/>
  <outline>
    <contour>
      <point x="287" y="703" type="curve" smooth="yes"/>
      <point x="344" y="703"/>
      <point x="384" y="657"/>
      <point x="384" y="589" type="curve" smooth="yes"/>
      <point x="384" y="495"/>
      <point x="314" y="411"/>
      <point x="236" y="411" type="curve" smooth="yes"/>
      <point x="178" y="411"/>
      <point x="138" y="457"/>
      <point x="138" y="525" type="curve" smooth="yes"/>
      <point x="138" y="619"/>
      <point x="208" y="703"/>
    </contour>
    <contour>
      <point x="279" y="660" type="curve" smooth="yes"/>
      <point x="230" y="660"/>
      <point x="179" y="597"/>
      <point x="179" y="537" type="curve" smooth="yes"/>
      <point x="179" y="490"/>
      <point x="207" y="454"/>
      <point x="243" y="454" type="curve" smooth="yes"/>
      <point x="292" y="454"/>
      <point x="343" y="517"/>
      <point x="343" y="577" type="curve" smooth="yes"/>
      <point x="343" y="623"/>
      <point x="315" y="660"/>
    </contour>
  </outline>
</glyph>
<glyph name="twosuperior" format="1">
  <advance width="273"/>
  <unicode hex="00B2"/>
  <outline>
    <contour>
      <point x="161" y="552" type="curve"/>
      <point x="112" y="552" type="line"/>
      <point x="123" y="610"/>
      <point x="136" y="641"/>
      <point x="163" y="669" type="curve" smooth="yes"/>
      <point x="190" y="698"/>
      <point x="228" y="714"/>
      <point x="268" y="714" type="curve" smooth="yes"/>
      <point x="329" y="714"/>
      <point x="368" y="671"/>
      <point x="368" y="605" type="curve" smooth="yes"/>
      <point x="368" y="569"/>
      <point x="357" y="535"/>
      <point x="337" y="508" type="curve" smooth="yes"/>
      <point x="318" y="482"/>
      <point x="295" y="464"/>
      <point x="243" y="435" type="curve" smooth="yes"/>
      <point x="202" y="412" type="line" smooth="yes"/>
      <point x="166" y="391"/>
      <point x="143" y="371"/>
      <point x="124" y="342" type="curve"/>
      <point x="325" y="342" type="line"/>
      <point x="314" y="281" type="line"/>
      <point x="52" y="281" type="line"/>
      <point x="69" y="359"/>
      <point x="104" y="410"/>
      <point x="167" y="448" type="curve" smooth="yes"/>
      <point x="222" y="481" type="line" smooth="yes"/>
      <point x="272" y="511"/>
      <point x="283" y="519"/>
      <point x="294" y="537" type="curve" smooth="yes"/>
      <point x="304" y="552"/>
      <point x="311" y="580"/>
      <point x="311" y="600" type="curve" smooth="yes"/>
      <point x="311" y="634"/>
      <point x="288" y="656"/>
      <point x="252" y="656" type="curve" smooth="yes"/>
      <point x="205" y="656"/>
      <point x="177" y="624"/>
    </contour>
  </outline>
</glyph>
<glyph name="threesuperior" format="1">
  <advance width="273"/>
  <unicode hex="00B3"/>
  <outline>
    <contour>
      <point x="76" y="421" type="curve"/>
      <point x="132" y="421" type="line"/>
      <point x="131" y="410"/>
      <point x="130" y="400"/>
      <point x="130" y="393" type="curve" smooth="yes"/>
      <point x="130" y="350"/>
      <point x="150" y="328"/>
      <point x="189" y="328" type="curve" smooth="yes"/>
      <point x="245" y="328"/>
      <point x="281" y="368"/>
      <point x="281" y="429" type="curve" smooth="yes"/>
      <point x="281" y="467"/>
      <point x="260" y="482"/>
      <point x="207" y="482" type="curve" smooth="yes"/>
      <point x="188" y="482" type="line"/>
      <point x="197" y="533" type="line"/>
      <point x="219" y="533" type="line" smooth="yes"/>
      <point x="268" y="533"/>
      <point x="299" y="564"/>
      <point x="299" y="612" type="curve" smooth="yes"/>
      <point x="299" y="640"/>
      <point x="279" y="656"/>
      <point x="243" y="656" type="curve" smooth="yes"/>
      <point x="200" y="656"/>
      <point x="176" y="633"/>
      <point x="162" y="576" type="curve"/>
      <point x="112" y="576" type="line"/>
      <point x="132" y="668"/>
      <point x="181" y="714"/>
      <point x="258" y="714" type="curve" smooth="yes"/>
      <point x="320" y="714"/>
      <point x="358" y="680"/>
      <point x="358" y="625" type="curve" smooth="yes"/>
      <point x="358" y="573"/>
      <point x="332" y="532"/>
      <point x="290" y="515" type="curve"/>
      <point x="327" y="500"/>
      <point x="340" y="481"/>
      <point x="340" y="442" type="curve" smooth="yes"/>
      <point x="340" y="346"/>
      <point x="269" y="270"/>
      <point x="178" y="270" type="curve" smooth="yes"/>
      <point x="112" y="270"/>
      <point x="74" y="312"/>
      <point x="74" y="383" type="curve" smooth="yes"/>
      <point x="74" y="392"/>
      <point x="75" y="406"/>
    </contour>
  </outline>
</glyph>
<glyph name="acute" format="1">
  <advance width="273"/>
  <unicode hex="00B4"/>
  <outline>
    <contour>
      <point x="390" y="734" type="line"/>
      <point x="258" y="593" type="line"/>
      <point x="203" y="593" type="line"/>
      <point x="301" y="734" type="line"/>
    </contour>
  </outline>
</glyph>
<glyph name="cedilla" format="1">
  <advance width="273"/>
  <unicode hex="00B8"/>
  <outline>
    <contour>
      <point x="50" y="-86" type="line"/>
      <point x="118" y="0" type="line"/>
      <point x="156" y="0" type="line"/>
      <point x="108" y="-62" type="line"/>
      <point x="121" y="-59"/>
      <point x="127" y="-58"/>
      <point x="135" y="-58" type="curve" smooth="yes"/>
      <point x="170" y="-58"/>
      <point x="191" y="-80"/>
      <point x="191" y="-116" type="curve" smooth="yes"/>
      <point x="191" y="-177"/>
      <point x="141" y="-225"/>
      <point x="77" y="-225" type="curve" smooth="yes"/>
      <point x="52" y="-225"/>
      <point x="31" y="-219"/>
      <point x="2" y="-203" type="curve"/>
      <point x="23" y="-163" type="line"/>
      <point x="44" y="-174"/>
      <point x="56" y="-178"/>
      <point x="72" y="-178" type="curve" smooth="yes"/>
      <point x="105" y="-178"/>
      <point x="127" y="-158"/>
      <point x="127" y="-128" type="curve" smooth="yes"/>
      <point x="127" y="-110"/>
      <point x="113" y="-97"/>
      <point x="94" y="-97" type="curve" smooth="yes"/>
      <point x="87" y="-97"/>
      <point x="78" y="-99"/>
      <point x="61" y="-105" type="curve"/>
    </contour>
  </outline>
</glyph>
<glyph name="ordmasculine" format="1">
  <advance width="299"/>
  <unicode hex="00BA"/>
  <outline>
    <contour>
      <point x="279" y="737" type="curve" smooth="yes"/>
      <point x="346" y="737"/>
      <point x="384" y="695"/>
      <point x="384" y="621" type="curve" smooth="yes"/>
      <point x="384" y="565"/>
      <point x="364" y="499"/>
      <point x="337" y="463" type="curve" smooth="yes"/>
      <point x="308" y="426"/>
      <point x="267" y="405"/>
      <point x="221" y="405" type="curve" smooth="yes"/>
      <point x="154" y="405"/>
      <point x="116" y="447"/>
      <point x="116" y="520" type="curve" smooth="yes"/>
      <point x="116" y="647"/>
      <point x="184" y="737"/>
    </contour>
    <contour>
      <point x="270" y="685" type="curve" smooth="yes"/>
      <point x="238" y="685"/>
      <point x="213" y="667"/>
      <point x="196" y="633" type="curve"/>
      <point x="181" y="606"/>
      <point x="172" y="565"/>
      <point x="172" y="533" type="curve" smooth="yes"/>
      <point x="172" y="483"/>
      <point x="192" y="457"/>
      <point x="230" y="457" type="curve" smooth="yes"/>
      <point x="262" y="457"/>
      <point x="287" y="475"/>
      <point x="304" y="509" type="curve" smooth="yes"/>
      <point x="319" y="537"/>
      <point x="328" y="577"/>
      <point x="328" y="609" type="curve" smooth="yes"/>
      <point x="328" y="659"/>
      <point x="308" y="685"/>
    </contour>
    <contour>
      <point x="90" y="352" type="line"/>
      <point x="333" y="352" type="line"/>
      <point x="325" y="304" type="line"/>
      <point x="82" y="304" type="line"/>
    </contour>
  </outline>
</glyph>
<glyph name="onehalf" format="1">
  <advance width="684"/>
  <unicode hex="00BD"/>
  <outline>
    <contour>
      <point x="629" y="703" type="line"/>
      <point x="140" y="-19" type="line"/>
      <point x="93" y="-19" type="line"/>
      <point x="582" y="703" type="line"/>
    </contour>
    <contour>
      <point x="224" y="577" type="line"/>
      <point x="135" y="577" type="line"/>
      <point x="143" y="623" type="line"/>
      <point x="215" y="628"/>
      <point x="233" y="641"/>
      <point x="258" y="703" type="curve"/>
      <point x="304" y="703" type="line"/>
      <point x="231" y="281" type="line"/>
      <point x="172" y="281" type="line"/>
    </contour>
    <contour>
      <point x="481" y="271" type="curve"/>
      <point x="432" y="271" type="line"/>
      <point x="444" y="330"/>
      <point x="457" y="360"/>
      <point x="483" y="388" type="curve" smooth="yes"/>
      <point x="510" y="417"/>
      <point x="548" y="433"/>
      <point x="588" y="433" type="curve" smooth="yes"/>
      <point x="649" y="433"/>
      <point x="688" y="390"/>
      <point x="688" y="324" type="curve" smooth="yes"/>
      <point x="688" y="289"/>
      <point x="677" y="254"/>
      <point x="657" y="227" type="curve" smooth="yes"/>
      <point x="638" y="201"/>
      <point x="615" y="183"/>
      <point x="563" y="154" type="curve" smooth="yes"/>
      <point x="522" y="131" type="line"/>
      <point x="487" y="110"/>
      <point x="463" y="90"/>
      <point x="444" y="61" type="curve"/>
      <point x="645" y="61" type="line"/>
      <point x="634" y="0" type="line"/>
      <point x="372" y="0" type="line"/>
      <point x="389" y="78"/>
      <point x="424" y="129"/>
      <point x="487" y="167" type="curve" smooth="yes"/>
      <point x="542" y="200" type="line" smooth="yes"/>
      <point x="592" y="230"/>
      <point x="603" y="239"/>
      <point x="614" y="256" type="curve" smooth="yes"/>
      <point x="624" y="271"/>
      <point x="631" y="299"/>
      <point x="631" y="319" type="curve" smooth="yes"/>
      <point x="631" y="353"/>
      <point x="608" y="375"/>
      <point x="572" y="375" type="curve" smooth="yes"/>
      <point x="525" y="375"/>
      <point x="497" y="343"/>
    </contour>
  </outline>
</glyph>
<glyph name="Atilde" format="1">
  <advance width="547"/>
  <unicode hex="00C3"/>
  <outline>
    <contour>
      <point x="427" y="209" type="line"/>
      <point x="191" y="209" type="line"/>
      <point x="93" y="0" type="line"/>
      <point x="11" y="0" type="line"/>
      <point x="358" y="718" type="line"/>
      <point x="448" y="718" type="line"/>
      <point x="536" y="0" type="line"/>
      <point x="449" y="0" type="line"/>
    </contour>
    <contour>
      <point x="231" y="295" type="line"/>
      <point x="414" y="295" type="line"/>
      <point x="381" y="614" type="line"/>
    </contour>
    <contour>
      <point x="532" y="917" type="curve"/>
      <point x="573" y="917" type="line"/>
      <point x="551" y="846"/>
      <point x="516" y="808"/>
      <point x="471" y="808" type="curve" smooth="yes"/>
      <point x="459" y="808"/>
      <point x="446" y="812"/>
      <point x="426" y="821" type="curve" smooth="yes"/>
      <point x="406" y="830" type="line" smooth="yes"/>
      <point x="383" y="841"/>
      <point x="369" y="845"/>
      <point x="359" y="845" type="curve" smooth="yes"/>
      <point x="339" y="845"/>
      <point x="326" y="833"/>
      <point x="312" y="801" type="curve"/>
      <point x="273" y="801" type="line"/>
      <point x="296" y="875"/>
      <point x="328" y="908"/>
      <point x="377" y="908" type="curve" smooth="yes"/>
      <point x="393" y="908"/>
      <point x="412" y="903"/>
      <point x="430" y="893" type="curve" smooth="yes"/>
      <point x="447" y="884" type="line" smooth="yes"/>
      <point x="462" y="876"/>
      <point x="476" y="871"/>
      <point x="485" y="871" type="curve" smooth="yes"/>
      <point x="507" y="871"/>
      <point x="520" y="884"/>
    </contour>
  </outline>
</glyph>
<glyph name="AE" format="1">
  <advance width="820"/>
  <unicode hex="00C6"/>
  <outline>
    <contour>
      <point x="194" y="209" type="line"/>
      <point x="93" y="0" type="line"/>
      <point x="7" y="0" type="line"/>
      <point x="371" y="718" type="line"/>
      <point x="899" y="718" type="line"/>
      <point x="884" y="632" type="line"/>
      <point x="564" y="632" type="line"/>
      <point x="526" y="412" type="line"/>
      <point x="818" y="412" type="line"/>
      <point x="803" y="326" type="line"/>
      <point x="511" y="326" type="line"/>
      <point x="469" y="86" type="line"/>
      <point x="795" y="86" type="line"/>
      <point x="780" y="0" type="line"/>
      <point x="375" y="0" type="line"/>
      <point x="411" y="209" type="line"/>
    </contour>
    <contour>
      <point x="426" y="295" type="line"/>
      <point x="485" y="632" type="line"/>
      <point x="406" y="632" type="line"/>
      <point x="238" y="295" type="line"/>
    </contour>
  </outline>
</glyph>
<glyph name="Igrave" format="1">
  <advance width="228"/>
  <unicode hex="00CC"/>
  <outline>
    <contour>
      <point x="279" y="718" type="line"/>
      <point x="154" y="0" type="line"/>
      <point x="75" y="0" type="line"/>
      <point x="200" y="718" type="line"/>
    </contour>
    <contour>
      <point x="233" y="788" type="line"/>
      <point x="151" y="929" type="line"/>
      <point x="240" y="929" type="line"/>
      <point x="288" y="788" type="line"/>
    </contour>
  </outline>
</glyph>
<glyph name="Iacute" format="1">
  <advance width="228"/>
  <unicode hex="00CD"/>
  <outline>
    <contour>
      <point x="279" y="718" type="line"/>
      <point x="154" y="0" type="line"/>
      <point x="75" y="0" type="line"/>
      <point x="200" y="718" type="line"/>
    </contour>
    <contour>
      <point x="401" y="929" type="line"/>
      <point x="269" y="788" type="line"/>
      <point x="214" y="788" type="line"/>
      <point x="312" y="929" type="line"/>
    </contour>
  </outline>
</glyph>
<glyph name="Eth" format="1">
  <advance width="592"/>
  <unicode hex="00D0"/>
  <outline>
    <contour>
      <point x="57" y="326" type="line"/>
      <point x="72" y="412" type="line"/>
      <point x="138" y="412" type="line"/>
      <point x="192" y="718" type="line"/>
      <point x="430" y="718" type="line" smooth="yes"/>
      <point x="553" y="718"/>
      <point x="626" y="625"/>
      <point x="626" y="470" type="curve" smooth="yes"/>
      <point x="626" y="375"/>
      <point x="599" y="267"/>
      <point x="553" y="178" type="curve" smooth="yes"/>
      <point x="494" y="61"/>
      <point x="407" y="0"/>
      <point x="302" y="0" type="curve" smooth="yes"/>
      <point x="67" y="0" type="line"/>
      <point x="123" y="326" type="line"/>
    </contour>
    <contour>
      <point x="375" y="412" type="line"/>
      <point x="360" y="326" type="line"/>
      <point x="203" y="326" type="line"/>
      <point x="161" y="83" type="line"/>
      <point x="315" y="83" type="line" smooth="yes"/>
      <point x="374" y="83"/>
      <point x="427" y="116"/>
      <point x="468" y="178" type="curve"/>
      <point x="511" y="245"/>
      <point x="542" y="361"/>
      <point x="542" y="461" type="curve" smooth="yes"/>
      <point x="542" y="573"/>
      <point x="494" y="635"/>
      <point x="405" y="635" type="curve" smooth="yes"/>
      <point x="257" y="635" type="line"/>
      <point x="218" y="412" type="line"/>
    </contour>
  </outline>
</glyph>
<glyph name="Ntilde" format="1">
  <advance width="592"/>
  <unicode hex="00D1"/>
  <outline>
    <contour>
      <point x="476" y="135" type="line"/>
      <point x="578" y="718" type="line"/>
      <point x="655" y="718" type="line"/>
      <point x="530" y="0" type="line"/>
      <point x="440" y="0" type="line"/>
      <point x="241" y="583" type="line"/>
      <point x="139" y="0" type="line"/>
      <point x="62" y="0" type="line"/>
      <point x="187" y="718" type="line"/>
      <point x="282" y="718" type="line"/>
    </contour>
    <contour>
      <point x="555" y="917" type="curve"/>
      <point x="596" y="917" type="line"/>
      <point x="574" y="846"/>
      <point x="539" y="808"/>
      <point x="494" y="808" type="curve" smooth="yes"/>
      <point x="482" y="808"/>
      <point x="469" y="812"/>
      <point x="449" y="821" type="curve" smooth="yes"/>
      <point x="429" y="830" type="line" smooth="yes"/>
      <point x="406" y="841"/>
      <point x="392" y="845"/>
      <point x="382" y="845" type="curve" smooth="yes"/>
      <point x="362" y="845"/>
      <point x="349" y="833"/>
      <point x="335" y="801" type="curve"/>
      <point x="296" y="801" type="line"/>
      <point x="319" y="875"/>
      <point x="351" y="908"/>
      <point x="400" y="908" type="curve" smooth="yes"/>
      <point x="416" y="908"/>
      <point x="435" y="903"/>
      <point x="453" y="893" type="curve" smooth="yes"/>
      <point x="470" y="884" type="line" smooth="yes"/>
      <point x="485" y="876"/>
      <point x="499" y="871"/>
      <point x="508" y="871" type="curve" smooth="yes"/>
      <point x="530" y="871"/>
      <point x="543" y="884"/>
    </contour>
  </outline>
</glyph>
<glyph name="multiply" format="1">
  <advance width="479"/>
  <unicode hex="00D7"/>
  <outline>
    <contour>
      <point x="242" y="253" type="line"/>
      <point x="111" y="455" type="line"/>
      <point x="163" y="506" type="line"/>
      <point x="293" y="305" type="line"/>
      <point x="493" y="506" type="line"/>
      <point x="526" y="455" type="line"/>
      <point x="326" y="253" type="line"/>
      <point x="456" y="51" type="line"/>
      <point x="405" y="0" type="line"/>
      <point x="274" y="201" type="line"/>
      <point x="74" y="0" type="line"/>
      <point x="41" y="51" type="line"/>
    </contour>
  </outline>
</glyph>
<glyph name="Oslash" format="1">
  <advance width="638"/>
  <unicode hex="00D8"/>
  <outline>
    <contour>
      <point x="730" y="707" type="line"/>
      <point x="646" y="616" type="line"/>
      <point x="670" y="556"/>
      <point x="677" y="518"/>
      <point x="677" y="455" type="curve" smooth="yes"/>
      <point x="677" y="335"/>
      <point x="635" y="207"/>
      <point x="566" y="115" type="curve" smooth="yes"/>
      <point x="499" y="26"/>
      <point x="415" y="-19"/>
      <point x="315" y="-19" type="curve" smooth="yes"/>
      <point x="236" y="-19"/>
      <point x="183" y="6"/>
      <point x="137" y="68" type="curve"/>
      <point x="56" y="-19" type="line"/>
      <point x="35" y="9" type="line"/>
      <point x="119" y="99" type="line"/>
      <point x="94" y="159"/>
      <point x="86" y="199"/>
      <point x="86" y="263" type="curve" smooth="yes"/>
      <point x="86" y="382"/>
      <point x="128" y="512"/>
      <point x="197" y="603" type="curve" smooth="yes"/>
      <point x="264" y="692"/>
      <point x="348" y="737"/>
      <point x="449" y="737" type="curve" smooth="yes"/>
      <point x="529" y="737"/>
      <point x="582" y="711"/>
      <point x="628" y="648" type="curve"/>
      <point x="710" y="737" type="line"/>
    </contour>
    <contour>
      <point x="578" y="543" type="curve"/>
      <point x="202" y="138" type="line"/>
      <point x="235" y="88"/>
      <point x="273" y="67"/>
      <point x="330" y="67" type="curve" smooth="yes"/>
      <point x="403" y="67"/>
      <point x="469" y="107"/>
      <point x="519" y="181" type="curve" smooth="yes"/>
      <point x="565" y="250"/>
      <point x="594" y="352"/>
      <point x="594" y="443" type="curve" smooth="yes"/>
      <point x="594" y="481"/>
      <point x="590" y="505"/>
    </contour>
    <contour>
      <point x="185" y="171" type="curve"/>
      <point x="563" y="578" type="line"/>
      <point x="530" y="629"/>
      <point x="491" y="651"/>
      <point x="433" y="651" type="curve" smooth="yes"/>
      <point x="360" y="651"/>
      <point x="293" y="611"/>
      <point x="244" y="537" type="curve" smooth="yes"/>
      <point x="199" y="469"/>
      <point x="169" y="366"/>
      <point x="169" y="276" type="curve" smooth="yes"/>
      <point x="169" y="237"/>
      <point x="173" y="211"/>
    </contour>
  </outline>
</glyph>
<glyph name="Thorn" format="1">
  <advance width="547"/>
  <unicode hex="00DE"/>
  <outline>
    <contour>
      <point x="71" y="0" type="line"/>
      <point x="196" y="718" type="line"/>
      <point x="276" y="718" type="line"/>
      <point x="255" y="599" type="line"/>
      <point x="440" y="599" type="line" smooth="yes"/>
      <point x="529" y="599"/>
      <point x="584" y="540"/>
      <point x="584" y="445" type="curve" smooth="yes"/>
      <point x="584" y="382"/>
      <point x="561" y="313"/>
      <point x="524" y="264" type="curve" smooth="yes"/>
      <point x="484" y="211"/>
      <point x="431" y="184"/>
      <point x="368" y="184" type="curve" smooth="yes"/>
      <point x="183" y="184" type="line"/>
      <point x="151" y="0" type="line"/>
    </contour>
    <contour>
      <point x="241" y="516" type="line"/>
      <point x="197" y="267" type="line"/>
      <point x="355" y="267" type="line" smooth="yes"/>
      <point x="408" y="267"/>
      <point x="446" y="285"/>
      <point x="471" y="321" type="curve" smooth="yes"/>
      <point x="489" y="348"/>
      <point x="501" y="392"/>
      <point x="501" y="430" type="curve" smooth="yes"/>
      <point x="501" y="487"/>
      <point x="467" y="516"/>
      <point x="402" y="516" type="curve" smooth="yes"/>
    </contour>
  </outline>
</glyph>
<glyph name="atilde" format="1">
  <advance width="456"/>
  <unicode hex="00E3"/>
  <outline>
    <contour>
      <point x="180" y="364" type="curve"/>
      <point x="114" y="364" type="line"/>
      <point x="126" y="416"/>
      <point x="137" y="441"/>
      <point x="159" y="469" type="curve" smooth="yes"/>
      <point x="193" y="513"/>
      <point x="250" y="538"/>
      <point x="316" y="538" type="curve" smooth="yes"/>
      <point x="405" y="538"/>
      <point x="458" y="495"/>
      <point x="458" y="423" type="curve" smooth="yes"/>
      <point x="458" y="413"/>
      <point x="457" y="402"/>
      <point x="455" y="392" type="curve" smooth="yes"/>
      <point x="403" y="91" type="line" smooth="yes"/>
      <point x="402" y="85"/>
      <point x="401" y="81"/>
      <point x="401" y="80" type="curve" smooth="yes"/>
      <point x="400" y="69"/>
      <point x="408" y="60"/>
      <point x="420" y="60" type="curve" smooth="yes"/>
      <point x="426" y="60"/>
      <point x="433" y="61"/>
      <point x="446" y="64" type="curve"/>
      <point x="434" y="0" type="line"/>
      <point x="425" y="-3" type="line" smooth="yes"/>
      <point x="409" y="-9"/>
      <point x="402" y="-10"/>
      <point x="391" y="-10" type="curve" smooth="yes"/>
      <point x="351" y="-10"/>
      <point x="329" y="10"/>
      <point x="329" y="46" type="curve" smooth="yes"/>
      <point x="329" y="51"/>
      <point x="330" y="61"/>
      <point x="331" y="70" type="curve"/>
      <point x="274" y="10"/>
      <point x="225" y="-15"/>
      <point x="164" y="-15" type="curve" smooth="yes"/>
      <point x="93" y="-15"/>
      <point x="50" y="29"/>
      <point x="50" y="101" type="curve" smooth="yes"/>
      <point x="50" y="206"/>
      <point x="115" y="286"/>
      <point x="212" y="300" type="curve" smooth="yes"/>
      <point x="334" y="318" type="line" smooth="yes"/>
      <point x="366" y="323"/>
      <point x="384" y="353"/>
      <point x="384" y="400" type="curve" smooth="yes"/>
      <point x="384" y="442"/>
      <point x="354" y="465"/>
      <point x="298" y="465" type="curve" smooth="yes"/>
      <point x="235" y="465"/>
      <point x="203" y="438"/>
    </contour>
    <contour>
      <point x="346" y="181" type="curve" smooth="yes"/>
      <point x="361" y="267" type="line"/>
      <point x="344" y="253"/>
      <point x="322" y="248"/>
      <point x="236" y="234" type="curve" smooth="yes"/>
      <point x="160" y="221"/>
      <point x="127" y="187"/>
      <point x="127" y="121" type="curve" smooth="yes"/>
      <point x="127" y="80"/>
      <point x="149" y="58"/>
      <point x="190" y="58" type="curve" smooth="yes"/>
      <point x="263" y="58"/>
      <point x="335" y="114"/>
    </contour>
    <contour>
      <point x="445" y="722" type="curve"/>
      <point x="486" y="722" type="line"/>
      <point x="464" y="651"/>
      <point x="429" y="613"/>
      <point x="384" y="613" type="curve" smooth="yes"/>
      <point x="372" y="613"/>
      <point x="359" y="617"/>
      <point x="339" y="626" type="curve" smooth="yes"/>
      <point x="319" y="635" type="line" smooth="yes"/>
      <point x="296" y="646"/>
      <point x="282" y="650"/>
      <point x="272" y="650" type="curve" smooth="yes"/>
      <point x="252" y="650"/>
      <point x="239" y="638"/>
      <point x="225" y="606" type="curve"/>
      <point x="186" y="606" type="line"/>
      <point x="209" y="680"/>
      <point x="241" y="713"/>
      <point x="290" y="713" type="curve" smooth="yes"/>
      <point x="306" y="713"/>
      <point x="325" y="708"/>
      <point x="343" y="698" type="curve" smooth="yes"/>
      <point x="360" y="689" type="line" smooth="yes"/>
      <point x="375" y="681"/>
      <point x="389" y="676"/>
      <point x="398" y="676" type="curve" smooth="yes"/>
      <point x="420" y="676"/>
      <point x="433" y="689"/>
    </contour>
  </outline>
</glyph>
<glyph name="ae" format="1">
  <advance width="729"/>
  <unicode hex="00E6"/>
  <outline>
    <contour>
      <point x="645" y="164" type="curve"/>
      <point x="717" y="164" type="line"/>
      <point x="679" y="51"/>
      <point x="598" y="-15"/>
      <point x="497" y="-15" type="curve" smooth="yes"/>
      <point x="419" y="-15"/>
      <point x="378" y="16"/>
      <point x="355" y="94" type="curve"/>
      <point x="295" y="16"/>
      <point x="241" y="-15"/>
      <point x="167" y="-15" type="curve" smooth="yes"/>
      <point x="94" y="-15"/>
      <point x="50" y="28"/>
      <point x="50" y="101" type="curve" smooth="yes"/>
      <point x="50" y="206"/>
      <point x="115" y="286"/>
      <point x="212" y="300" type="curve" smooth="yes"/>
      <point x="334" y="318" type="line" smooth="yes"/>
      <point x="366" y="323"/>
      <point x="384" y="353"/>
      <point x="384" y="400" type="curve" smooth="yes"/>
      <point x="384" y="442"/>
      <point x="354" y="465"/>
      <point x="298" y="465" type="curve" smooth="yes"/>
      <point x="235" y="465"/>
      <point x="203" y="437"/>
      <point x="180" y="364" type="curve"/>
      <point x="114" y="364" type="line"/>
      <point x="126" y="416"/>
      <point x="137" y="441"/>
      <point x="159" y="469" type="curve" smooth="yes"/>
      <point x="195" y="515"/>
      <point x="250" y="538"/>
      <point x="322" y="538" type="curve" smooth="yes"/>
      <point x="385" y="538"/>
      <point x="414" y="521"/>
      <point x="448" y="464" type="curve"/>
      <point x="504" y="520"/>
      <point x="541" y="538"/>
      <point x="601" y="538" type="curve" smooth="yes"/>
      <point x="652" y="538"/>
      <point x="692" y="518"/>
      <point x="714" y="482" type="curve" smooth="yes"/>
      <point x="733" y="449"/>
      <point x="746" y="399"/>
      <point x="746" y="354" type="curve" smooth="yes"/>
      <point x="746" y="323"/>
      <point x="742" y="282"/>
      <point x="735" y="233" type="curve"/>
      <point x="422" y="233" type="line"/>
      <point x="418" y="208"/>
      <point x="416" y="186"/>
      <point x="416" y="171" type="curve" smooth="yes"/>
      <point x="416" y="103"/>
      <point x="453" y="61"/>
      <point x="513" y="61" type="curve" smooth="yes"/>
      <point x="572" y="61"/>
      <point x="627" y="104"/>
    </contour>
    <contour>
      <point x="434" y="303" type="curve"/>
      <point x="673" y="303" type="line"/>
      <point x="674" y="321"/>
      <point x="675" y="337"/>
      <point x="675" y="350" type="curve" smooth="yes"/>
      <point x="675" y="417"/>
      <point x="640" y="459"/>
      <point x="584" y="459" type="curve" smooth="yes"/>
      <point x="515" y="459"/>
      <point x="454" y="396"/>
    </contour>
    <contour>
      <point x="346" y="181" type="curve" smooth="yes"/>
      <point x="361" y="267" type="line"/>
      <point x="344" y="253"/>
      <point x="322" y="247"/>
      <point x="236" y="234" type="curve"/>
      <point x="160" y="221"/>
      <point x="127" y="187"/>
      <point x="127" y="122" type="curve" smooth="yes"/>
      <point x="127" y="80"/>
      <point x="149" y="58"/>
      <point x="190" y="58" type="curve" smooth="yes"/>
      <point x="263" y="58"/>
      <point x="334" y="114"/>
    </contour>
  </outline>
</glyph>
<glyph name="idieresis" format="1">
  <advance width="228"/>
  <unicode hex="00EF"/>
  <outline>
    <contour>
      <point x="241" y="523" type="line"/>
      <point x="150" y="0" type="line"/>
      <point x="78" y="0" type="line"/>
      <point x="169" y="523" type="line"/>
    </contour>
    <contour>
      <point x="208" y="706" type="line"/>
      <point x="191" y="604" type="line"/>
      <point x="116" y="604" type="line"/>
      <point x="134" y="706" type="line"/>
    </contour>
    <contour>
      <point x="341" y="706" type="line"/>
      <point x="323" y="604" type="line"/>
      <point x="249" y="604" type="line"/>
      <point x="266" y="706" type="line"/>
    </contour>
  </outline>
</glyph>
<glyph name="ntilde" format="1">
  <advance width="456"/>
  <unicode hex="00F1"/>
  <outline>
    <contour>
      <point x="212" y="523" type="line"/>
      <point x="199" y="446" type="line"/>
      <point x="249" y="511"/>
      <point x="293" y="538"/>
      <point x="352" y="538" type="curve" smooth="yes"/>
      <point x="426" y="538"/>
      <point x="470" y="490"/>
      <point x="470" y="410" type="curve" smooth="yes"/>
      <point x="470" y="393"/>
      <point x="468" y="375"/>
      <point x="465" y="356" type="curve" smooth="yes"/>
      <point x="403" y="0" type="line"/>
      <point x="331" y="0" type="line"/>
      <point x="387" y="322" type="line" smooth="yes"/>
      <point x="390" y="342"/>
      <point x="392" y="362"/>
      <point x="392" y="382" type="curve" smooth="yes"/>
      <point x="392" y="433"/>
      <point x="369" y="459"/>
      <point x="323" y="459" type="curve" smooth="yes"/>
      <point x="250" y="459"/>
      <point x="194" y="393"/>
      <point x="175" y="285" type="curve" smooth="yes"/>
      <point x="125" y="0" type="line"/>
      <point x="53" y="0" type="line"/>
      <point x="144" y="523" type="line"/>
    </contour>
    <contour>
      <point x="445" y="722" type="curve"/>
      <point x="486" y="722" type="line"/>
      <point x="464" y="651"/>
      <point x="429" y="613"/>
      <point x="384" y="613" type="curve" smooth="yes"/>
      <point x="372" y="613"/>
      <point x="359" y="617"/>
      <point x="339" y="626" type="curve" smooth="yes"/>
      <point x="319" y="635" type="line" smooth="yes"/>
      <point x="296" y="646"/>
      <point x="282" y="650"/>
      <point x="272" y="650" type="curve" smooth="yes"/>
      <point x="252" y="650"/>
      <point x="239" y="638"/>
      <point x="225" y="606" type="curve"/>
      <point x="186" y="606" type="line"/>
      <point x="209" y="680"/>
      <point x="241" y="713"/>
      <point x="290" y="713" type="curve" smooth="yes"/>
      <point x="306" y="713"/>
      <point x="325" y="708"/>
      <point x="343" y="698" type="curve" smooth="yes"/>
      <point x="360" y="689" type="line" smooth="yes"/>
      <point x="375" y="681"/>
      <point x="389" y="676"/>
      <point x="398" y="676" type="curve" smooth="yes"/>
      <point x="420" y="676"/>
      <point x="433" y="689"/>
    </contour>
  </outline>
</glyph>
<glyph name="otilde" format="1">
  <advance width="456"/>
  <unicode hex="00F5"/>
  <outline>
    <contour>
      <point x="322" y="538" type="curve" smooth="yes"/>
      <point x="420" y="538"/>
      <point x="479" y="462"/>
      <point x="479" y="336" type="curve" smooth="yes"/>
      <point x="479" y="244"/>
      <point x="448" y="149"/>
      <point x="397" y="81" type="curve" smooth="yes"/>
      <point x="350" y="18"/>
      <point x="292" y="-14"/>
      <point x="225" y="-14" type="curve" smooth="yes"/>
      <point x="127" y="-14"/>
      <point x="68" y="62"/>
      <point x="68" y="189" type="curve" smooth="yes"/>
      <point x="68" y="278"/>
      <point x="100" y="377"/>
      <point x="150" y="443" type="curve" smooth="yes"/>
      <point x="197" y="505"/>
      <point x="256" y="538"/>
    </contour>
    <contour>
      <point x="308" y="462" type="curve" smooth="yes"/>
      <point x="258" y="462"/>
      <point x="215" y="430"/>
      <point x="184" y="370" type="curve" smooth="yes"/>
      <point x="158" y="320"/>
      <point x="143" y="256"/>
      <point x="143" y="198" type="curve" smooth="yes"/>
      <point x="143" y="110"/>
      <point x="177" y="62"/>
      <point x="239" y="62" type="curve" smooth="yes"/>
      <point x="289" y="62"/>
      <point x="332" y="94"/>
      <point x="363" y="154" type="curve" smooth="yes"/>
      <point x="389" y="204"/>
      <point x="404" y="268"/>
      <point x="404" y="325" type="curve" smooth="yes"/>
      <point x="404" y="413"/>
      <point x="370" y="462"/>
    </contour>
    <contour>
      <point x="453" y="722" type="curve"/>
      <point x="494" y="722" type="line"/>
      <point x="472" y="651"/>
      <point x="437" y="613"/>
      <point x="392" y="613" type="curve" smooth="yes"/>
      <point x="380" y="613"/>
      <point x="367" y="617"/>
      <point x="347" y="626" type="curve" smooth="yes"/>
      <point x="327" y="635" type="line" smooth="yes"/>
      <point x="304" y="646"/>
      <point x="290" y="650"/>
      <point x="280" y="650" type="curve" smooth="yes"/>
      <point x="260" y="650"/>
      <point x="247" y="638"/>
      <point x="233" y="606" type="curve"/>
      <point x="194" y="606" type="line"/>
      <point x="217" y="680"/>
      <point x="249" y="713"/>
      <point x="298" y="713" type="curve" smooth="yes"/>
      <point x="314" y="713"/>
      <point x="333" y="708"/>
      <point x="351" y="698" type="curve" smooth="yes"/>
      <point x="368" y="689" type="line" smooth="yes"/>
      <point x="383" y="681"/>
      <point x="397" y="676"/>
      <point x="406" y="676" type="curve" smooth="yes"/>
      <point x="428" y="676"/>
      <point x="441" y="689"/>
    </contour>
  </outline>
</glyph>
<glyph name="divide" format="1">
  <advance width="479"/>
  <unicode hex="00F7"/>
  <outline>
    <contour>
      <point x="484" y="216" type="line"/>
      <point x="70" y="216" type="line"/>
      <point x="83" y="289" type="line"/>
      <point x="497" y="289" type="line"/>
    </contour>
    <contour>
      <point x="331" y="524" type="curve" smooth="yes"/>
      <point x="357" y="524"/>
      <point x="376" y="500"/>
      <point x="376" y="469" type="curve" smooth="yes"/>
      <point x="376" y="429"/>
      <point x="341" y="388"/>
      <point x="307" y="388" type="curve" smooth="yes"/>
      <point x="282" y="388"/>
      <point x="262" y="412"/>
      <point x="262" y="442" type="curve" smooth="yes"/>
      <point x="262" y="484"/>
      <point x="296" y="524"/>
    </contour>
    <contour>
      <point x="260" y="117" type="curve" smooth="yes"/>
      <point x="286" y="117"/>
      <point x="305" y="94"/>
      <point x="305" y="63" type="curve" smooth="yes"/>
      <point x="305" y="22"/>
      <point x="270" y="-19"/>
      <point x="236" y="-19" type="curve" smooth="yes"/>
      <point x="211" y="-19"/>
      <point x="191" y="5"/>
      <point x="191" y="36" type="curve" smooth="yes"/>
      <point x="191" y="77"/>
      <point x="225" y="117"/>
    </contour>
  </outline>
</glyph>
<glyph name="oslash" format="1">
  <advance width="501"/>
  <unicode hex="00F8"/>
  <outline>
    <contour>
      <point x="531" y="519" type="line"/>
      <point x="461" y="441" type="line"/>
      <point x="475" y="401"/>
      <point x="480" y="376"/>
      <point x="480" y="335" type="curve" smooth="yes"/>
      <point x="480" y="245"/>
      <point x="449" y="148"/>
      <point x="398" y="81" type="curve" smooth="yes"/>
      <point x="350" y="18"/>
      <point x="292" y="-14"/>
      <point x="225" y="-14" type="curve" smooth="yes"/>
      <point x="173" y="-14"/>
      <point x="137" y="4"/>
      <point x="106" y="46" type="curve"/>
      <point x="45" y="-22" type="line"/>
      <point x="24" y="4" type="line"/>
      <point x="89" y="76" type="line"/>
      <point x="73" y="118"/>
      <point x="68" y="145"/>
      <point x="68" y="189" type="curve" smooth="yes"/>
      <point x="68" y="278"/>
      <point x="100" y="376"/>
      <point x="150" y="443" type="curve" smooth="yes"/>
      <point x="198" y="506"/>
      <point x="256" y="538"/>
      <point x="323" y="538" type="curve" smooth="yes"/>
      <point x="377" y="538"/>
      <point x="413" y="519"/>
      <point x="445" y="473" type="curve"/>
      <point x="510" y="545" type="line"/>
    </contour>
    <contour>
      <point x="149" y="143" type="curve"/>
      <point x="389" y="410" type="line"/>
      <point x="370" y="447"/>
      <point x="346" y="462"/>
      <point x="309" y="462" type="curve" smooth="yes"/>
      <point x="251" y="462"/>
      <point x="204" y="421"/>
      <point x="173" y="343" type="curve" smooth="yes"/>
      <point x="154" y="296"/>
      <point x="144" y="246"/>
      <point x="144" y="197" type="curve" smooth="yes"/>
      <point x="144" y="178"/>
      <point x="145" y="167"/>
    </contour>
    <contour>
      <point x="400" y="373" type="curve"/>
      <point x="162" y="108" type="line"/>
      <point x="179" y="76"/>
      <point x="203" y="62"/>
      <point x="239" y="62" type="curve" smooth="yes"/>
      <point x="297" y="62"/>
      <point x="344" y="103"/>
      <point x="376" y="181" type="curve" smooth="yes"/>
      <point x="395" y="227"/>
      <point x="405" y="279"/>
      <point x="405" y="326" type="curve" smooth="yes"/>
      <point x="405" y="341"/>
      <point x="404" y="351"/>
    </contour>
  </outline>
</glyph>
<glyph name="yacute" format="1">
  <advance width="410"/>
  <unicode hex="00FD"/>
  <outline>
    <contour>
      <point x="222" y="94" type="line"/>
      <point x="412" y="523" type="line"/>
      <point x="492" y="523" type="line"/>
      <point x="248" y="10" type="line"/>
      <point x="148" y="-195"/>
      <point x="131" y="-214"/>
      <point x="47" y="-214" type="curve" smooth="yes"/>
      <point x="35" y="-214"/>
      <point x="31" y="-213"/>
      <point x="18" y="-208" type="curve" smooth="yes"/>
      <point x="15" y="-207" type="line"/>
      <point x="12" y="-206" type="line"/>
      <point x="26" y="-126" type="line"/>
      <point x="40" y="-132"/>
      <point x="53" y="-135"/>
      <point x="68" y="-135" type="curve" smooth="yes"/>
      <point x="98" y="-135"/>
      <point x="113" y="-121"/>
      <point x="138" y="-68" type="curve"/>
      <point x="165" y="-14" type="line"/>
      <point x="100" y="523" type="line"/>
      <point x="182" y="523" type="line"/>
    </contour>
    <contour>
      <point x="459" y="734" type="line"/>
      <point x="327" y="593" type="line"/>
      <point x="272" y="593" type="line"/>
      <point x="370" y="734" type="line"/>
    </contour>
  </outline>
</glyph>
<glyph name="Amacron" format="1">
  <advance width="547"/>
  <unicode hex="0100"/>
  <outline>
    <contour>
      <point x="427" y="209" type="line"/>
      <point x="191" y="209" type="line"/>
      <point x="93" y="0" type="line"/>
      <point x="11" y="0" type="line"/>
      <point x="358" y="718" type="line"/>
      <point x="448" y="718" type="line"/>
      <point x="536" y="0" type="line"/>
      <point x="449" y="0" type="line"/>
    </contour>
    <contour>
      <point x="231" y="295" type="line"/>
      <point x="414" y="295" type="line"/>
      <point x="381" y="614" type="line"/>
    </contour>
    <contour>
      <point x="555" y="879" type="line"/>
      <point x="545" y="822" type="line"/>
      <point x="288" y="822" type="line"/>
      <point x="298" y="879" type="line"/>
    </contour>
  </outline>
</glyph>
<glyph name="Abreve" format="1">
  <advance width="547"/>
  <unicode hex="0102"/>
  <outline>
    <contour>
      <point x="427" y="209" type="line"/>
      <point x="191" y="209" type="line"/>
      <point x="93" y="0" type="line"/>
      <point x="11" y="0" type="line"/>
      <point x="358" y="718" type="line"/>
      <point x="448" y="718" type="line"/>
      <point x="536" y="0" type="line"/>
      <point x="449" y="0" type="line"/>
    </contour>
    <contour>
      <point x="231" y="295" type="line"/>
      <point x="414" y="295" type="line"/>
      <point x="381" y="614" type="line"/>
    </contour>
    <contour>
      <point x="523" y="926" type="curve"/>
      <point x="562" y="926" type="line"/>
      <point x="549" y="882"/>
      <point x="539" y="862"/>
      <point x="520" y="839" type="curve" smooth="yes"/>
      <point x="493" y="807"/>
      <point x="454" y="790"/>
      <point x="409" y="790" type="curve" smooth="yes"/>
      <point x="343" y="790"/>
      <point x="308" y="827"/>
      <point x="308" y="897" type="curve"/>
      <point x="309" y="926" type="line"/>
      <point x="349" y="926" type="line"/>
      <point x="351" y="904"/>
      <point x="352" y="898"/>
      <point x="356" y="888" type="curve" smooth="yes"/>
      <point x="366" y="861"/>
      <point x="390" y="847"/>
      <point x="424" y="847" type="curve" smooth="yes"/>
      <point x="473" y="847"/>
      <point x="498" y="868"/>
    </contour>
  </outline>
</glyph>
<glyph name="aogonek" format="1">
  <advance width="456"/>
  <unicode hex="0105"/>
  <outline>
    <contour>
      <point x="446" y="64" type="curve"/>
      <point x="434" y="0" type="line"/>
      <point x="384" y="-34"/>
      <point x="364" y="-52"/>
      <point x="349" y="-75" type="curve" smooth="yes"/>
      <point x="337" y="-94"/>
      <point x="329" y="-122"/>
      <point x="329" y="-143" type="curve" smooth="yes"/>
      <point x="329" y="-166"/>
      <point x="343" y="-178"/>
      <point x="369" y="-178" type="curve" smooth="yes"/>
      <point x="385" y="-178"/>
      <point x="397" y="-175"/>
      <point x="423" y="-163" type="curve"/>
      <point x="430" y="-203" type="line"/>
      <point x="397" y="-218"/>
      <point x="371" y="-225"/>
      <point x="345" y="-225" type="curve" smooth="yes"/>
      <point x="297" y="-225"/>
      <point x="265" y="-196"/>
      <point x="265" y="-152" type="curve" smooth="yes"/>
      <point x="265" y="-93"/>
      <point x="307" y="-31"/>
      <point x="364" y="-6" type="curve"/>
      <point x="340" y="2"/>
      <point x="329" y="18"/>
      <point x="329" y="46" type="curve" smooth="yes"/>
      <point x="329" y="51"/>
      <point x="330" y="60"/>
      <point x="331" y="70" type="curve"/>
      <point x="274" y="10"/>
      <point x="225" y="-15"/>
      <point x="164" y="-15" type="curve" smooth="yes"/>
      <point x="93" y="-15"/>
      <point x="50" y="29"/>
      <point x="50" y="101" type="curve" smooth="yes"/>
      <point x="50" y="206"/>
      <point x="115" y="286"/>
      <point x="212" y="300" type="curve" smooth="yes"/>
      <point x="334" y="318" type="line" smooth="yes"/>
      <point x="366" y="323"/>
      <point x="384" y="353"/>
      <point x="384" y="400" type="curve" smooth="yes"/>
      <point x="384" y="442"/>
      <point x="354" y="465"/>
      <point x="298" y="465" type="curve" smooth="yes"/>
      <point x="235" y="465"/>
      <point x="203" y="438"/>
      <point x="180" y="364" type="curve"/>
      <point x="114" y="364" type="line"/>
      <point x="126" y="416"/>
      <point x="137" y="441"/>
      <point x="159" y="469" type="curve" smooth="yes"/>
      <point x="193" y="513"/>
      <point x="250" y="538"/>
      <point x="316" y="538" type="curve" smooth="yes"/>
      <point x="405" y="538"/>
      <point x="458" y="495"/>
      <point x="458" y="423" type="curve" smooth="yes"/>
      <point x="458" y="413"/>
      <point x="457" y="402"/>
      <point x="455" y="392" type="curve" smooth="yes"/>
      <point x="403" y="91" type="line" smooth="yes"/>
      <point x="402" y="85"/>
      <point x="401" y="81"/>
      <point x="401" y="80" type="curve" smooth="yes"/>
      <point x="400" y="69"/>
      <point x="408" y="60"/>
      <point x="420" y="60" type="curve" smooth="yes"/>
      <point x="426" y="60"/>
      <point x="433" y="61"/>
    </contour>
    <contour>
      <point x="346" y="181" type="curve" smooth="yes"/>
      <point x="361" y="267" type="line"/>
      <point x="344" y="253"/>
      <point x="322" y="248"/>
      <point x="236" y="234" type="curve" smooth="yes"/>
      <point x="160" y="221"/>
      <point x="127" y="187"/>
      <point x="127" y="121" type="curve" smooth="yes"/>
      <point x="127" y="80"/>
      <point x="149" y="58"/>
      <point x="190" y="58" type="curve" smooth="yes"/>
      <point x="263" y="58"/>
      <point x="335" y="114"/>
    </contour>
  </outline>
</glyph>
<glyph name="cacute" format="1">
  <advance width="410"/>
  <unicode hex="0107"/>
  <outline>
    <contour>
      <point x="452" y="347" type="curve"/>
      <point x="382" y="347" type="line"/>
      <point x="381" y="384"/>
      <point x="381" y="387"/>
      <point x="377" y="403" type="curve" smooth="yes"/>
      <point x="366" y="440"/>
      <point x="340" y="459"/>
      <point x="300" y="459" type="curve" smooth="yes"/>
      <point x="252" y="459"/>
      <point x="211" y="429"/>
      <point x="182" y="372" type="curve" smooth="yes"/>
      <point x="156" y="321"/>
      <point x="139" y="245"/>
      <point x="139" y="180" type="curve" smooth="yes"/>
      <point x="139" y="103"/>
      <point x="170" y="61"/>
      <point x="227" y="61" type="curve" smooth="yes"/>
      <point x="282" y="61"/>
      <point x="324" y="102"/>
      <point x="354" y="185" type="curve"/>
      <point x="424" y="185" type="line"/>
      <point x="383" y="52"/>
      <point x="313" y="-15"/>
      <point x="214" y="-15" type="curve" smooth="yes"/>
      <point x="119" y="-15"/>
      <point x="61" y="55"/>
      <point x="61" y="172" type="curve" smooth="yes"/>
      <point x="61" y="269"/>
      <point x="94" y="375"/>
      <point x="145" y="443" type="curve" smooth="yes"/>
      <point x="192" y="505"/>
      <point x="253" y="538"/>
      <point x="323" y="538" type="curve" smooth="yes"/>
      <point x="404" y="538"/>
      <point x="454" y="482"/>
      <point x="454" y="390" type="curve" smooth="yes"/>
      <point x="454" y="379"/>
      <point x="453" y="364"/>
    </contour>
    <contour>
      <point x="480" y="734" type="line"/>
      <point x="348" y="593" type="line"/>
      <point x="293" y="593" type="line"/>
      <point x="391" y="734" type="line"/>
    </contour>
  </outline>
</glyph>
<glyph name="cdotaccent" format="1">
  <advance width="410"/>
  <unicode hex="010B"/>
  <outline>
    <contour>
      <point x="376" y="725" type="line"/>
      <point x="358" y="623" type="line"/>
      <point x="283" y="623" type="line"/>
      <point x="301" y="725" type="line"/>
    </contour>
    <contour>
      <point x="452" y="347" type="curve"/>
      <point x="382" y="347" type="line"/>
      <point x="381" y="384"/>
      <point x="381" y="387"/>
      <point x="377" y="403" type="curve" smooth="yes"/>
      <point x="366" y="440"/>
      <point x="340" y="459"/>
      <point x="300" y="459" type="curve" smooth="yes"/>
      <point x="252" y="459"/>
      <point x="211" y="429"/>
      <point x="182" y="372" type="curve" smooth="yes"/>
      <point x="156" y="321"/>
      <point x="139" y="245"/>
      <point x="139" y="180" type="curve" smooth="yes"/>
      <point x="139" y="103"/>
      <point x="170" y="61"/>
      <point x="227" y="61" type="curve" smooth="yes"/>
      <point x="282" y="61"/>
      <point x="324" y="102"/>
      <point x="354" y="185" type="curve"/>
      <point x="424" y="185" type="line"/>
      <point x="383" y="52"/>
      <point x="313" y="-15"/>
      <point x="214" y="-15" type="curve" smooth="yes"/>
      <point x="119" y="-15"/>
      <point x="61" y="55"/>
      <point x="61" y="172" type="curve" smooth="yes"/>
      <point x="61" y="269"/>
      <point x="94" y="375"/>
      <point x="145" y="443" type="curve" smooth="yes"/>
      <point x="192" y="505"/>
      <point x="253" y="538"/>
      <point x="323" y="538" type="curve" smooth="yes"/>
      <point x="404" y="538"/>
      <point x="454" y="482"/>
      <point x="454" y="390" type="curve" smooth="yes"/>
      <point x="454" y="379"/>
      <point x="453" y="364"/>
    </contour>
  </outline>
</glyph>
<glyph name="dcaron" format="1">
  <advance width="503"/>
  <unicode hex="010F"/>
  <outline>
    <contour>
      <point x="534" y="718" type="line"/>
      <point x="409" y="0" type="line"/>
      <point x="341" y="0" type="line"/>
      <point x="354" y="75" type="line"/>
      <point x="311" y="10"/>
      <point x="272" y="-15"/>
      <point x="214" y="-15" type="curve" smooth="yes"/>
      <point x="121" y="-15"/>
      <point x="69" y="57"/>
      <point x="69" y="185" type="curve" smooth="yes"/>
      <point x="69" y="381"/>
      <point x="171" y="538"/>
      <point x="300" y="538" type="curve" smooth="yes"/>
      <point x="358" y="538"/>
      <point x="392" y="511"/>
      <point x="414" y="444" type="curve"/>
      <point x="462" y="718" type="line"/>
    </contour>
    <contour>
      <point x="299" y="459" type="curve" smooth="yes"/>
      <point x="251" y="459"/>
      <point x="209" y="430"/>
      <point x="185" y="380" type="curve" smooth="yes"/>
      <point x="159" y="328"/>
      <point x="143" y="253"/>
      <point x="143" y="186" type="curve" smooth="yes"/>
      <point x="143" y="107"/>
      <point x="174" y="61"/>
      <point x="228" y="61" type="curve" smooth="yes"/>
      <point x="269" y="61"/>
      <point x="309" y="85"/>
      <point x="337" y="128" type="curve"/>
      <point x="366" y="170"/>
      <point x="387" y="257"/>
      <point x="387" y="334" type="curve" smooth="yes"/>
      <point x="387" y="417"/>
      <point x="358" y="459"/>
    </contour>
    <contour>
      <point x="566" y="718" type="line"/>
      <point x="643" y="718" type="line"/>
      <point x="627" y="624" type="line" smooth="yes"/>
      <point x="613" y="544"/>
      <point x="576" y="496"/>
      <point x="527" y="492" type="curve"/>
      <point x="534" y="531" type="line"/>
      <point x="562" y="534"/>
      <point x="580" y="563"/>
      <point x="588" y="617" type="curve"/>
      <point x="548" y="617" type="line"/>
    </contour>
  </outline>
</glyph>
<glyph name="Ebreve" format="1">
  <advance width="547"/>
  <unicode hex="0114"/>
  <outline>
    <contour>
      <point x="543" y="954" type="curve"/>
      <point x="582" y="954" type="line"/>
      <point x="569" y="910"/>
      <point x="559" y="890"/>
      <point x="540" y="867" type="curve" smooth="yes"/>
      <point x="513" y="835"/>
      <point x="474" y="818"/>
      <point x="429" y="818" type="curve" smooth="yes"/>
      <point x="363" y="818"/>
      <point x="328" y="855"/>
      <point x="328" y="925" type="curve"/>
      <point x="329" y="954" type="line"/>
      <point x="369" y="954" type="line"/>
      <point x="371" y="932"/>
      <point x="372" y="926"/>
      <point x="376" y="916" type="curve" smooth="yes"/>
      <point x="386" y="889"/>
      <point x="410" y="875"/>
      <point x="444" y="875" type="curve" smooth="yes"/>
      <point x="493" y="875"/>
      <point x="518" y="896"/>
    </contour>
    <contour>
      <point x="521" y="86" type="line"/>
      <point x="506" y="0" type="line"/>
      <point x="71" y="0" type="line"/>
      <point x="196" y="718" type="line"/>
      <point x="625" y="718" type="line"/>
      <point x="610" y="632" type="line"/>
      <point x="261" y="632" type="line"/>
      <point x="222" y="412" type="line"/>
      <point x="545" y="412" type="line"/>
      <point x="530" y="326" type="line"/>
      <point x="207" y="326" type="line"/>
      <point x="166" y="86" type="line"/>
    </contour>
  </outline>
</glyph>
<glyph name="ebreve" format="1">
  <advance width="456"/>
  <unicode hex="0115"/>
  <outline>
    <contour>
      <point x="451" y="759" type="curve"/>
      <point x="490" y="759" type="line"/>
      <point x="477" y="715"/>
      <point x="467" y="695"/>
      <point x="448" y="672" type="curve" smooth="yes"/>
      <point x="421" y="640"/>
      <point x="382" y="623"/>
      <point x="337" y="623" type="curve" smooth="yes"/>
      <point x="271" y="623"/>
      <point x="236" y="660"/>
      <point x="236" y="730" type="curve"/>
      <point x="237" y="759" type="line"/>
      <point x="277" y="759" type="line"/>
      <point x="279" y="737"/>
      <point x="280" y="731"/>
      <point x="284" y="721" type="curve" smooth="yes"/>
      <point x="294" y="694"/>
      <point x="318" y="680"/>
      <point x="352" y="680" type="curve" smooth="yes"/>
      <point x="401" y="680"/>
      <point x="426" y="701"/>
    </contour>
    <contour>
      <point x="373" y="164" type="curve"/>
      <point x="445" y="164" type="line"/>
      <point x="407" y="51"/>
      <point x="326" y="-15"/>
      <point x="226" y="-15" type="curve" smooth="yes"/>
      <point x="126" y="-15"/>
      <point x="69" y="53"/>
      <point x="69" y="172" type="curve" smooth="yes"/>
      <point x="69" y="269"/>
      <point x="102" y="375"/>
      <point x="153" y="443" type="curve" smooth="yes"/>
      <point x="199" y="505"/>
      <point x="261" y="538"/>
      <point x="329" y="538" type="curve" smooth="yes"/>
      <point x="380" y="538"/>
      <point x="421" y="518"/>
      <point x="442" y="482" type="curve" smooth="yes"/>
      <point x="461" y="449"/>
      <point x="474" y="399"/>
      <point x="474" y="354" type="curve" smooth="yes"/>
      <point x="474" y="323"/>
      <point x="470" y="282"/>
      <point x="463" y="233" type="curve"/>
      <point x="150" y="233" type="line"/>
      <point x="146" y="208"/>
      <point x="144" y="187"/>
      <point x="144" y="171" type="curve" smooth="yes"/>
      <point x="144" y="103"/>
      <point x="181" y="61"/>
      <point x="242" y="61" type="curve" smooth="yes"/>
      <point x="300" y="61"/>
      <point x="355" y="104"/>
    </contour>
    <contour>
      <point x="162" y="303" type="curve"/>
      <point x="401" y="303" type="line"/>
      <point x="402" y="321"/>
      <point x="403" y="337"/>
      <point x="403" y="350" type="curve" smooth="yes"/>
      <point x="403" y="417"/>
      <point x="368" y="459"/>
      <point x="312" y="459" type="curve" smooth="yes"/>
      <point x="243" y="459"/>
      <point x="183" y="396"/>
    </contour>
  </outline>
</glyph>
<glyph name="Eogonek" format="1">
  <advance width="547"/>
  <unicode hex="0118"/>
  <outline>
    <contour>
      <point x="625" y="718" type="line"/>
      <point x="610" y="632" type="line"/>
      <point x="261" y="632" type="line"/>
      <point x="222" y="412" type="line"/>
      <point x="545" y="412" type="line"/>
      <point x="530" y="326" type="line"/>
      <point x="207" y="326" type="line"/>
      <point x="166" y="86" type="line"/>
      <point x="521" y="86" type="line"/>
      <point x="506" y="0" type="line"/>
      <point x="456" y="-34"/>
      <point x="436" y="-52"/>
      <point x="421" y="-76" type="curve" smooth="yes"/>
      <point x="409" y="-94"/>
      <point x="401" y="-122"/>
      <point x="401" y="-143" type="curve" smooth="yes"/>
      <point x="401" y="-166"/>
      <point x="415" y="-178"/>
      <point x="440" y="-178" type="curve" smooth="yes"/>
      <point x="456" y="-178"/>
      <point x="469" y="-175"/>
      <point x="494" y="-163" type="curve"/>
      <point x="501" y="-203" type="line"/>
      <point x="468" y="-218"/>
      <point x="442" y="-225"/>
      <point x="417" y="-225" type="curve" smooth="yes"/>
      <point x="369" y="-225"/>
      <point x="337" y="-196"/>
      <point x="337" y="-152" type="curve" smooth="yes"/>
      <point x="337" y="-119"/>
      <point x="354" y="-77"/>
      <point x="378" y="-48" type="curve" smooth="yes"/>
      <point x="398" y="-24"/>
      <point x="413" y="-15"/>
      <point x="451" y="0" type="curve"/>
      <point x="71" y="0" type="line"/>
      <point x="196" y="718" type="line"/>
    </contour>
  </outline>
</glyph>
<glyph name="eogonek" format="1">
  <advance width="456"/>
  <unicode hex="0119"/>
  <outline>
    <contour>
      <point x="463" y="233" type="curve"/>
      <point x="150" y="233" type="line"/>
      <point x="146" y="208"/>
      <point x="144" y="187"/>
      <point x="144" y="171" type="curve" smooth="yes"/>
      <point x="144" y="103"/>
      <point x="181" y="61"/>
      <point x="242" y="61" type="curve" smooth="yes"/>
      <point x="300" y="61"/>
      <point x="355" y="104"/>
      <point x="373" y="164" type="curve"/>
      <point x="445" y="164" type="line"/>
      <point x="422" y="99"/>
      <point x="410" y="82"/>
      <point x="318" y="-12" type="curve"/>
      <point x="257" y="-76"/>
      <point x="243" y="-98"/>
      <point x="243" y="-136" type="curve" smooth="yes"/>
      <point x="243" y="-166"/>
      <point x="255" y="-178"/>
      <point x="283" y="-178" type="curve" smooth="yes"/>
      <point x="299" y="-178"/>
      <point x="312" y="-175"/>
      <point x="338" y="-163" type="curve"/>
      <point x="345" y="-203" type="line"/>
      <point x="312" y="-218"/>
      <point x="286" y="-225"/>
      <point x="260" y="-225" type="curve" smooth="yes"/>
      <point x="212" y="-225"/>
      <point x="180" y="-196"/>
      <point x="180" y="-152" type="curve" smooth="yes"/>
      <point x="180" y="-98"/>
      <point x="216" y="-39"/>
      <point x="267" y="-12" type="curve"/>
      <point x="248" y="-14"/>
      <point x="239" y="-15"/>
      <point x="227" y="-15" type="curve" smooth="yes"/>
      <point x="126" y="-15"/>
      <point x="69" y="53"/>
      <point x="69" y="172" type="curve" smooth="yes"/>
      <point x="69" y="269"/>
      <point x="102" y="375"/>
      <point x="153" y="443" type="curve" smooth="yes"/>
      <point x="199" y="505"/>
      <point x="261" y="538"/>
      <point x="329" y="538" type="curve" smooth="yes"/>
      <point x="380" y="538"/>
      <point x="421" y="518"/>
      <point x="442" y="482" type="curve" smooth="yes"/>
      <point x="461" y="449"/>
      <point x="474" y="399"/>
      <point x="474" y="354" type="curve" smooth="yes"/>
      <point x="474" y="323"/>
      <point x="470" y="282"/>
    </contour>
    <contour>
      <point x="162" y="303" type="curve"/>
      <point x="401" y="303" type="line"/>
      <point x="402" y="321"/>
      <point x="403" y="337"/>
      <point x="403" y="350" type="curve" smooth="yes"/>
      <point x="403" y="417"/>
      <point x="368" y="459"/>
      <point x="312" y="459" type="curve" smooth="yes"/>
      <point x="243" y="459"/>
      <point x="183" y="396"/>
    </contour>
  </outline>
</glyph>
<glyph name="Gcircumflex" format="1">
  <advance width="638"/>
  <unicode hex="011C"/>
  <outline>
    <contour>
      <point x="472" y="911" type="line"/>
      <point x="402" y="818" type="line"/>
      <point x="337" y="818" type="line"/>
      <point x="443" y="959" type="line"/>
      <point x="519" y="959" type="line"/>
      <point x="575" y="818" type="line"/>
      <point x="510" y="818" type="line"/>
    </contour>
    <contour>
      <point x="372" y="301" type="line"/>
      <point x="386" y="384" type="line"/>
      <point x="644" y="384" type="line"/>
      <point x="578" y="0" type="line"/>
      <point x="526" y="0" type="line"/>
      <point x="523" y="93" type="line"/>
      <point x="458" y="16"/>
      <point x="390" y="-19"/>
      <point x="305" y="-19" type="curve" smooth="yes"/>
      <point x="240" y="-19"/>
      <point x="190" y="3"/>
      <point x="155" y="47" type="curve" smooth="yes"/>
      <point x="113" y="100"/>
      <point x="91" y="168"/>
      <point x="91" y="246" type="curve" smooth="yes"/>
      <point x="91" y="370"/>
      <point x="136" y="513"/>
      <point x="203" y="602" type="curve" smooth="yes"/>
      <point x="270" y="690"/>
      <point x="354" y="737"/>
      <point x="445" y="737" type="curve" smooth="yes"/>
      <point x="570" y="737"/>
      <point x="655" y="651"/>
      <point x="655" y="524" type="curve" smooth="yes"/>
      <point x="655" y="500" type="line"/>
      <point x="578" y="500" type="line"/>
      <point x="574" y="557"/>
      <point x="564" y="585"/>
      <point x="538" y="612" type="curve"/>
      <point x="513" y="636"/>
      <point x="474" y="651"/>
      <point x="432" y="651" type="curve" smooth="yes"/>
      <point x="288" y="651"/>
      <point x="175" y="476"/>
      <point x="175" y="252" type="curve" smooth="yes"/>
      <point x="175" y="128"/>
      <point x="228" y="64"/>
      <point x="331" y="64" type="curve" smooth="yes"/>
      <point x="387" y="64"/>
      <point x="436" y="85"/>
      <point x="478" y="129" type="curve" smooth="yes"/>
      <point x="519" y="171"/>
      <point x="539" y="215"/>
      <point x="555" y="301" type="curve"/>
    </contour>
  </outline>
</glyph>
<glyph name="Gbreve" format="1">
  <advance width="638"/>
  <unicode hex="011E"/>
  <outline>
    <contour>
      <point x="372" y="301" type="line"/>
      <point x="386" y="384" type="line"/>
      <point x="644" y="384" type="line"/>
      <point x="578" y="0" type="line"/>
      <point x="526" y="0" type="line"/>
      <point x="523" y="93" type="line"/>
      <point x="458" y="16"/>
      <point x="390" y="-19"/>
      <point x="305" y="-19" type="curve" smooth="yes"/>
      <point x="240" y="-19"/>
      <point x="190" y="3"/>
      <point x="155" y="47" type="curve" smooth="yes"/>
      <point x="113" y="100"/>
      <point x="91" y="168"/>
      <point x="91" y="246" type="curve" smooth="yes"/>
      <point x="91" y="370"/>
      <point x="136" y="513"/>
      <point x="203" y="602" type="curve" smooth="yes"/>
      <point x="270" y="690"/>
      <point x="354" y="737"/>
      <point x="445" y="737" type="curve" smooth="yes"/>
      <point x="570" y="737"/>
      <point x="655" y="651"/>
      <point x="655" y="524" type="curve" smooth="yes"/>
      <point x="655" y="500" type="line"/>
      <point x="578" y="500" type="line"/>
      <point x="574" y="557"/>
      <point x="564" y="585"/>
      <point x="538" y="612" type="curve"/>
      <point x="513" y="636"/>
      <point x="474" y="651"/>
      <point x="432" y="651" type="curve" smooth="yes"/>
      <point x="288" y="651"/>
      <point x="175" y="476"/>
      <point x="175" y="252" type="curve" smooth="yes"/>
      <point x="175" y="128"/>
      <point x="228" y="64"/>
      <point x="331" y="64" type="curve" smooth="yes"/>
      <point x="387" y="64"/>
      <point x="436" y="85"/>
      <point x="478" y="129" type="curve" smooth="yes"/>
      <point x="519" y="171"/>
      <point x="539" y="215"/>
      <point x="555" y="301" type="curve"/>
    </contour>
    <contour>
      <point x="568" y="926" type="curve"/>
      <point x="607" y="926" type="line"/>
      <point x="594" y="882"/>
      <point x="584" y="862"/>
      <point x="565" y="839" type="curve" smooth="yes"/>
      <point x="538" y="807"/>
      <point x="499" y="790"/>
      <point x="454" y="790" type="curve" smooth="yes"/>
      <point x="388" y="790"/>
      <point x="353" y="827"/>
      <point x="353" y="897" type="curve"/>
      <point x="354" y="926" type="line"/>
      <point x="394" y="926" type="line"/>
      <point x="396" y="904"/>
      <point x="397" y="898"/>
      <point x="401" y="888" type="curve" smooth="yes"/>
      <point x="411" y="861"/>
      <point x="435" y="847"/>
      <point x="469" y="847" type="curve" smooth="yes"/>
      <point x="518" y="847"/>
      <point x="543" y="868"/>
    </contour>
  </outline>
</glyph>
<glyph name="hcircumflex" format="1">
  <advance width="456"/>
  <unicode hex="0125"/>
  <outline>
    <contour>
      <point x="387" y="911" type="line"/>
      <point x="317" y="818" type="line"/>
      <point x="252" y="818" type="line"/>
      <point x="358" y="959" type="line"/>
      <point x="434" y="959" type="line"/>
      <point x="490" y="818" type="line"/>
      <point x="425" y="818" type="line"/>
    </contour>
    <contour>
      <point x="251" y="718" type="line"/>
      <point x="204" y="451" type="line"/>
      <point x="257" y="516"/>
      <point x="294" y="538"/>
      <point x="351" y="538" type="curve" smooth="yes"/>
      <point x="426" y="538"/>
      <point x="470" y="491"/>
      <point x="470" y="410" type="curve" smooth="yes"/>
      <point x="470" y="393"/>
      <point x="468" y="375"/>
      <point x="465" y="356" type="curve" smooth="yes"/>
      <point x="403" y="0" type="line"/>
      <point x="331" y="0" type="line"/>
      <point x="390" y="342" type="line" smooth="yes"/>
      <point x="393" y="358"/>
      <point x="395" y="378"/>
      <point x="395" y="390" type="curve" smooth="yes"/>
      <point x="395" y="437"/>
      <point x="373" y="459"/>
      <point x="327" y="459" type="curve" smooth="yes"/>
      <point x="250" y="459"/>
      <point x="194" y="396"/>
      <point x="175" y="285" type="curve" smooth="yes"/>
      <point x="125" y="0" type="line"/>
      <point x="53" y="0" type="line"/>
      <point x="178" y="718" type="line"/>
    </contour>
  </outline>
</glyph>
<glyph name="Hbar" format="1">
  <advance width="632"/>
  <unicode hex="0126"/>
  <outline>
    <contour>
      <point x="660" y="634" type="line"/>
      <point x="737" y="634" type="line"/>
      <point x="724" y="561" type="line"/>
      <point x="648" y="561" type="line"/>
      <point x="550" y="0" type="line"/>
      <point x="470" y="0" type="line"/>
      <point x="529" y="335" type="line"/>
      <point x="221" y="335" type="line"/>
      <point x="163" y="0" type="line"/>
      <point x="83" y="0" type="line"/>
      <point x="181" y="561" type="line"/>
      <point x="100" y="561" type="line"/>
      <point x="113" y="634" type="line"/>
      <point x="193" y="634" type="line"/>
      <point x="208" y="718" type="line"/>
      <point x="288" y="718" type="line"/>
      <point x="273" y="634" type="line"/>
      <point x="581" y="634" type="line"/>
      <point x="595" y="718" type="line"/>
      <point x="675" y="718" type="line"/>
    </contour>
    <contour>
      <point x="261" y="561" type="line"/>
      <point x="236" y="421" type="line"/>
      <point x="544" y="421" type="line"/>
      <point x="568" y="561" type="line"/>
    </contour>
  </outline>
</glyph>
<glyph name="Itilde" format="1">
  <advance width="228"/>
  <unicode hex="0128"/>
  <outline>
    <contour>
      <point x="376" y="934" type="curve"/>
      <point x="417" y="934" type="line"/>
      <point x="395" y="863"/>
      <point x="360" y="825"/>
      <point x="315" y="825" type="curve" smooth="yes"/>
      <point x="303" y="825"/>
      <point x="290" y="829"/>
      <point x="270" y="838" type="curve" smooth="yes"/>
      <point x="250" y="847" type="line" smooth="yes"/>
      <point x="227" y="858"/>
      <point x="213" y="862"/>
      <point x="203" y="862" type="curve" smooth="yes"/>
      <point x="183" y="862"/>
      <point x="170" y="850"/>
      <point x="156" y="818" type="curve"/>
      <point x="117" y="818" type="line"/>
      <point x="140" y="892"/>
      <point x="172" y="925"/>
      <point x="221" y="925" type="curve" smooth="yes"/>
      <point x="237" y="925"/>
      <point x="256" y="920"/>
      <point x="274" y="910" type="curve" smooth="yes"/>
      <point x="291" y="901" type="line" smooth="yes"/>
      <point x="306" y="893"/>
      <point x="320" y="888"/>
      <point x="329" y="888" type="curve" smooth="yes"/>
      <point x="351" y="888"/>
      <point x="364" y="901"/>
    </contour>
    <contour>
      <point x="279" y="718" type="line"/>
      <point x="154" y="0" type="line"/>
      <point x="75" y="0" type="line"/>
      <point x="200" y="718" type="line"/>
    </contour>
  </outline>
</glyph>
<glyph name="itilde" format="1">
  <advance width="228"/>
  <unicode hex="0129"/>
  <outline>
    <contour>
      <point x="342" y="739" type="curve"/>
      <point x="383" y="739" type="line"/>
      <point x="361" y="668"/>
      <point x="326" y="630"/>
      <point x="281" y="630" type="curve" smooth="yes"/>
      <point x="269" y="630"/>
      <point x="256" y="634"/>
      <point x="236" y="643" type="curve" smooth="yes"/>
      <point x="216" y="652" type="line" smooth="yes"/>
      <point x="193" y="663"/>
      <point x="179" y="667"/>
      <point x="169" y="667" type="curve" smooth="yes"/>
      <point x="149" y="667"/>
      <point x="136" y="655"/>
      <point x="122" y="623" type="curve"/>
      <point x="83" y="623" type="line"/>
      <point x="106" y="697"/>
      <point x="138" y="730"/>
      <point x="187" y="730" type="curve" smooth="yes"/>
      <point x="203" y="730"/>
      <point x="222" y="725"/>
      <point x="240" y="715" type="curve" smooth="yes"/>
      <point x="257" y="706" type="line" smooth="yes"/>
      <point x="272" y="698"/>
      <point x="286" y="693"/>
      <point x="295" y="693" type="curve" smooth="yes"/>
      <point x="317" y="693"/>
      <point x="330" y="706"/>
    </contour>
    <contour>
      <point x="241" y="523" type="line"/>
      <point x="150" y="0" type="line"/>
      <point x="78" y="0" type="line"/>
      <point x="169" y="523" type="line"/>
    </contour>
  </outline>
</glyph>
<glyph name="Imacron" format="1">
  <advance width="228"/>
  <unicode hex="012A"/>
  <outline>
    <contour>
      <point x="279" y="718" type="line"/>
      <point x="154" y="0" type="line"/>
      <point x="75" y="0" type="line"/>
      <point x="200" y="718" type="line"/>
    </contour>
    <contour>
      <point x="395" y="879" type="line"/>
      <point x="385" y="822" type="line"/>
      <point x="128" y="822" type="line"/>
      <point x="138" y="879" type="line"/>
    </contour>
  </outline>
</glyph>
<glyph name="Ibreve" format="1">
  <advance width="228"/>
  <unicode hex="012C"/>
  <outline>
    <contour>
      <point x="369" y="954" type="curve"/>
      <point x="408" y="954" type="line"/>
      <point x="395" y="910"/>
      <point x="385" y="890"/>
      <point x="366" y="867" type="curve" smooth="yes"/>
      <point x="339" y="835"/>
      <point x="300" y="818"/>
      <point x="255" y="818" type="curve" smooth="yes"/>
      <point x="189" y="818"/>
      <point x="154" y="855"/>
      <point x="154" y="925" type="curve"/>
      <point x="155" y="954" type="line"/>
      <point x="195" y="954" type="line"/>
      <point x="197" y="932"/>
      <point x="198" y="926"/>
      <point x="202" y="916" type="curve" smooth="yes"/>
      <point x="212" y="889"/>
      <point x="236" y="875"/>
      <point x="270" y="875" type="curve" smooth="yes"/>
      <point x="319" y="875"/>
      <point x="344" y="896"/>
    </contour>
    <contour>
      <point x="279" y="718" type="line"/>
      <point x="154" y="0" type="line"/>
      <point x="75" y="0" type="line"/>
      <point x="200" y="718" type="line"/>
    </contour>
  </outline>
</glyph>
<glyph name="ibreve" format="1">
  <advance width="228"/>
  <unicode hex="012D"/>
  <outline>
    <contour>
      <point x="334" y="759" type="curve"/>
      <point x="373" y="759" type="line"/>
      <point x="360" y="715"/>
      <point x="350" y="695"/>
      <point x="331" y="672" type="curve" smooth="yes"/>
      <point x="304" y="640"/>
      <point x="265" y="623"/>
      <point x="220" y="623" type="curve" smooth="yes"/>
      <point x="154" y="623"/>
      <point x="119" y="660"/>
      <point x="119" y="730" type="curve"/>
      <point x="120" y="759" type="line"/>
      <point x="160" y="759" type="line"/>
      <point x="162" y="737"/>
      <point x="163" y="731"/>
      <point x="167" y="721" type="curve" smooth="yes"/>
      <point x="177" y="694"/>
      <point x="201" y="680"/>
      <point x="235" y="680" type="curve" smooth="yes"/>
      <point x="284" y="680"/>
      <point x="309" y="701"/>
    </contour>
    <contour>
      <point x="241" y="523" type="line"/>
      <point x="150" y="0" type="line"/>
      <point x="78" y="0" type="line"/>
      <point x="169" y="523" type="line"/>
    </contour>
  </outline>
</glyph>
<glyph name="Iogonek" format="1">
  <advance width="228"/>
  <unicode hex="012E"/>
  <outline>
    <contour>
      <point x="279" y="718" type="line"/>
      <point x="154" y="0" type="line"/>
      <point x="104" y="-34"/>
      <point x="84" y="-52"/>
      <point x="69" y="-76" type="curve" smooth="yes"/>
      <point x="57" y="-94"/>
      <point x="49" y="-122"/>
      <point x="49" y="-143" type="curve" smooth="yes"/>
      <point x="49" y="-166"/>
      <point x="63" y="-178"/>
      <point x="88" y="-178" type="curve" smooth="yes"/>
      <point x="105" y="-178"/>
      <point x="117" y="-175"/>
      <point x="143" y="-163" type="curve"/>
      <point x="150" y="-203" type="line"/>
      <point x="117" y="-218"/>
      <point x="91" y="-225"/>
      <point x="65" y="-225" type="curve" smooth="yes"/>
      <point x="17" y="-225"/>
      <point x="-15" y="-196"/>
      <point x="-15" y="-152" type="curve" smooth="yes"/>
      <point x="-15" y="-119"/>
      <point x="2" y="-77"/>
      <point x="27" y="-48" type="curve" smooth="yes"/>
      <point x="47" y="-24"/>
      <point x="61" y="-15"/>
      <point x="99" y="0" type="curve"/>
      <point x="75" y="0" type="line"/>
      <point x="199" y="718" type="line"/>
    </contour>
  </outline>
</glyph>
<glyph name="iogonek" format="1">
  <advance width="182"/>
  <unicode hex="012F"/>
  <outline>
    <contour>
      <point x="218" y="523" type="line"/>
      <point x="127" y="0" type="line"/>
      <point x="77" y="-34"/>
      <point x="55" y="-54"/>
      <point x="42" y="-75" type="curve" smooth="yes"/>
      <point x="30" y="-94"/>
      <point x="22" y="-122"/>
      <point x="22" y="-143" type="curve" smooth="yes"/>
      <point x="22" y="-166"/>
      <point x="36" y="-178"/>
      <point x="61" y="-178" type="curve" smooth="yes"/>
      <point x="78" y="-178"/>
      <point x="90" y="-175"/>
      <point x="116" y="-163" type="curve"/>
      <point x="123" y="-203" type="line"/>
      <point x="90" y="-218"/>
      <point x="64" y="-225"/>
      <point x="38" y="-225" type="curve" smooth="yes"/>
      <point x="-10" y="-225"/>
      <point x="-42" y="-196"/>
      <point x="-42" y="-152" type="curve" smooth="yes"/>
      <point x="-42" y="-119"/>
      <point x="-25" y="-77"/>
      <point x="0" y="-48" type="curve" smooth="yes"/>
      <point x="20" y="-24"/>
      <point x="34" y="-15"/>
      <point x="72" y="0" type="curve"/>
      <point x="55" y="0" type="line"/>
      <point x="146" y="523" type="line"/>
    </contour>
    <contour>
      <point x="234" y="618" type="line"/>
      <point x="162" y="618" type="line"/>
      <point x="180" y="718" type="line"/>
      <point x="252" y="718" type="line"/>
    </contour>
  </outline>
</glyph>
<glyph name="Idotaccent" format="1">
  <advance width="228"/>
  <unicode hex="0130"/>
  <outline>
    <contour>
      <point x="279" y="718" type="line"/>
      <point x="154" y="0" type="line"/>
      <point x="75" y="0" type="line"/>
      <point x="200" y="718" type="line"/>
    </contour>
    <contour>
      <point x="308" y="901" type="line"/>
      <point x="290" y="799" type="line"/>
      <point x="215" y="799" type="line"/>
      <point x="233" y="901" type="line"/>
    </contour>
  </outline>
</glyph>
<glyph name="IJ" format="1">
  <advance width="624"/>
  <unicode hex="0132"/>
  <outline>
    <contour>
      <point x="255" y="231" type="line"/>
      <point x="329" y="231" type="line"/>
      <point x="321" y="181" type="line" smooth="yes"/>
      <point x="318" y="167"/>
      <point x="317" y="154"/>
      <point x="317" y="139" type="curve" smooth="yes"/>
      <point x="317" y="89"/>
      <point x="341" y="64"/>
      <point x="389" y="64" type="curve" smooth="yes"/>
      <point x="452" y="64"/>
      <point x="490" y="104"/>
      <point x="504" y="188" type="curve" smooth="yes"/>
      <point x="597" y="718" type="line"/>
      <point x="676" y="718" type="line"/>
      <point x="585" y="194" type="line" smooth="yes"/>
      <point x="561" y="58"/>
      <point x="486" y="-19"/>
      <point x="378" y="-19" type="curve" smooth="yes"/>
      <point x="289" y="-19"/>
      <point x="239" y="31"/>
      <point x="239" y="120" type="curve" smooth="yes"/>
      <point x="239" y="133"/>
      <point x="240" y="147"/>
      <point x="242" y="160" type="curve" smooth="yes"/>
    </contour>
    <contour>
      <point x="279" y="718" type="line"/>
      <point x="154" y="0" type="line"/>
      <point x="75" y="0" type="line"/>
      <point x="200" y="718" type="line"/>
    </contour>
  </outline>
</glyph>
<glyph name="ij" format="1">
  <advance width="320"/>
  <unicode hex="0133"/>
  <outline>
    <contour>
      <point x="358" y="523" type="line"/>
      <point x="254" y="-77" type="line" smooth="yes"/>
      <point x="238" y="-168"/>
      <point x="197" y="-210"/>
      <point x="123" y="-210" type="curve" smooth="yes"/>
      <point x="112" y="-210"/>
      <point x="102" y="-209"/>
      <point x="91" y="-207" type="curve"/>
      <point x="104" y="-131" type="line"/>
      <point x="119" y="-131" type="line" smooth="yes"/>
      <point x="165" y="-131"/>
      <point x="174" y="-122"/>
      <point x="183" y="-67" type="curve" smooth="yes"/>
      <point x="286" y="523" type="line"/>
    </contour>
    <contour>
      <point x="392" y="718" type="line"/>
      <point x="375" y="618" type="line"/>
      <point x="303" y="618" type="line"/>
      <point x="320" y="718" type="line"/>
    </contour>
    <contour>
      <point x="218" y="523" type="line"/>
      <point x="127" y="0" type="line"/>
      <point x="55" y="0" type="line"/>
      <point x="146" y="523" type="line"/>
    </contour>
    <contour>
      <point x="235" y="618" type="line"/>
      <point x="163" y="618" type="line"/>
      <point x="180" y="718" type="line"/>
      <point x="252" y="718" type="line"/>
    </contour>
  </outline>
</glyph>
<glyph name="jcircumflex" format="1">
  <advance width="182"/>
  <unicode hex="0135"/>
  <outline>
    <contour>
      <point x="218" y="523" type="line"/>
      <point x="114" y="-77" type="line" smooth="yes"/>
      <point x="98" y="-168"/>
      <point x="57" y="-210"/>
      <point x="-17" y="-210" type="curve" smooth="yes"/>
      <point x="-28" y="-210"/>
      <point x="-38" y="-209"/>
      <point x="-49" y="-207" type="curve"/>
      <point x="-36" y="-131" type="line"/>
      <point x="-21" y="-131" type="line" smooth="yes"/>
      <point x="25" y="-131"/>
      <point x="34" y="-122"/>
      <point x="43" y="-67" type="curve" smooth="yes"/>
      <point x="146" y="523" type="line"/>
    </contour>
    <contour>
      <point x="256" y="686" type="line"/>
      <point x="186" y="593" type="line"/>
      <point x="121" y="593" type="line"/>
      <point x="227" y="734" type="line"/>
      <point x="303" y="734" type="line"/>
      <point x="359" y="593" type="line"/>
      <point x="294" y="593" type="line"/>
    </contour>
  </outline>
</glyph>
<glyph name="Kcommaaccent" format="1">
  <advance width="547"/>
  <unicode hex="0136"/>
  <outline>
    <contour>
      <point x="185" y="252" type="line"/>
      <point x="142" y="0" type="line"/>
      <point x="62" y="0" type="line"/>
      <point x="187" y="718" type="line"/>
      <point x="267" y="718" type="line"/>
      <point x="206" y="370" type="line"/>
      <point x="552" y="718" type="line"/>
      <point x="662" y="718" type="line"/>
      <point x="366" y="428" type="line"/>
      <point x="543" y="0" type="line"/>
      <point x="440" y="0" type="line"/>
      <point x="297" y="360" type="line"/>
    </contour>
    <contour>
      <point x="223" y="-60" type="line"/>
      <point x="300" y="-60" type="line"/>
      <point x="284" y="-154" type="line" smooth="yes"/>
      <point x="270" y="-234"/>
      <point x="233" y="-282"/>
      <point x="184" y="-286" type="curve"/>
      <point x="191" y="-247" type="line"/>
      <point x="219" y="-244"/>
      <point x="237" y="-215"/>
      <point x="245" y="-161" type="curve"/>
      <point x="205" y="-161" type="line"/>
    </contour>
  </outline>
</glyph>
<glyph name="kcommaaccent" format="1">
  <advance width="410"/>
  <unicode hex="0137"/>
  <outline>
    <contour>
      <point x="294" y="328" type="line"/>
      <point x="411" y="0" type="line"/>
      <point x="318" y="0" type="line"/>
      <point x="231" y="264" type="line"/>
      <point x="159" y="198" type="line"/>
      <point x="125" y="0" type="line"/>
      <point x="55" y="0" type="line"/>
      <point x="180" y="718" type="line"/>
      <point x="250" y="718" type="line"/>
      <point x="177" y="302" type="line"/>
      <point x="400" y="523" type="line"/>
      <point x="492" y="523" type="line"/>
    </contour>
    <contour>
      <point x="155" y="-60" type="line"/>
      <point x="232" y="-60" type="line"/>
      <point x="216" y="-154" type="line" smooth="yes"/>
      <point x="202" y="-234"/>
      <point x="165" y="-282"/>
      <point x="116" y="-286" type="curve"/>
      <point x="123" y="-247" type="line"/>
      <point x="151" y="-244"/>
      <point x="169" y="-215"/>
      <point x="177" y="-161" type="curve"/>
      <point x="137" y="-161" type="line"/>
    </contour>
  </outline>
</glyph>
<glyph name="Lacute" format="1">
  <advance width="456"/>
  <unicode hex="0139"/>
  <outline>
    <contour>
      <point x="267" y="718" type="line"/>
      <point x="157" y="86" type="line"/>
      <point x="455" y="86" type="line"/>
      <point x="440" y="0" type="line"/>
      <point x="62" y="0" type="line"/>
      <point x="187" y="718" type="line"/>
    </contour>
    <contour>
      <point x="435" y="929" type="line"/>
      <point x="303" y="788" type="line"/>
      <point x="248" y="788" type="line"/>
      <point x="346" y="929" type="line"/>
    </contour>
  </outline>
</glyph>
<glyph name="lacute" format="1">
  <advance width="182"/>
  <unicode hex="013A"/>
  <outline>
    <contour>
      <point x="252" y="718" type="line"/>
      <point x="127" y="0" type="line"/>
      <point x="55" y="0" type="line"/>
      <point x="180" y="718" type="line"/>
    </contour>
    <contour>
      <point x="378" y="929" type="line"/>
      <point x="246" y="788" type="line"/>
      <point x="191" y="788" type="line"/>
      <point x="289" y="929" type="line"/>
    </contour>
  </outline>
</glyph>
<glyph name="Lcommaaccent" format="1">
  <advance width="456"/>
  <unicode hex="013B"/>
  <outline>
    <contour>
      <point x="267" y="718" type="line"/>
      <point x="157" y="86" type="line"/>
      <point x="455" y="86" type="line"/>
      <point x="440" y="0" type="line"/>
      <point x="62" y="0" type="line"/>
      <point x="187" y="718" type="line"/>
    </contour>
    <contour>
      <point x="198" y="-60" type="line"/>
      <point x="275" y="-60" type="line"/>
      <point x="259" y="-154" type="line" smooth="yes"/>
      <point x="245" y="-234"/>
      <point x="208" y="-282"/>
      <point x="159" y="-286" type="curve"/>
      <point x="166" y="-247" type="line"/>
      <point x="194" y="-244"/>
      <point x="212" y="-215"/>
      <point x="220" y="-161" type="curve"/>
      <point x="180" y="-161" type="line"/>
    </contour>
  </outline>
</glyph>
<glyph name="lcommaaccent" format="1">
  <advance width="182"/>
  <unicode hex="013C"/>
  <outline>
    <contour>
      <point x="252" y="718" type="line"/>
      <point x="127" y="0" type="line"/>
      <point x="55" y="0" type="line"/>
      <point x="180" y="718" type="line"/>
    </contour>
    <contour>
      <point x="41" y="-60" type="line"/>
      <point x="118" y="-60" type="line"/>
      <point x="102" y="-154" type="line" smooth="yes"/>
      <point x="88" y="-234"/>
      <point x="51" y="-282"/>
      <point x="2" y="-286" type="curve"/>
      <point x="9" y="-247" type="line"/>
      <point x="37" y="-244"/>
      <point x="55" y="-215"/>
      <point x="63" y="-161" type="curve"/>
      <point x="23" y="-161" type="line"/>
    </contour>
  </outline>
</glyph>
<glyph name="Lcaron" format="1">
  <advance width="456"/>
  <unicode hex="013D"/>
  <outline>
    <contour>
      <point x="267" y="718" type="line"/>
      <point x="157" y="86" type="line"/>
      <point x="455" y="86" type="line"/>
      <point x="440" y="0" type="line"/>
      <point x="62" y="0" type="line"/>
      <point x="187" y="718" type="line"/>
    </contour>
    <contour>
      <point x="459" y="718" type="line"/>
      <point x="536" y="718" type="line"/>
      <point x="520" y="624" type="line" smooth="yes"/>
      <point x="506" y="544"/>
      <point x="469" y="496"/>
      <point x="420" y="492" type="curve"/>
      <point x="427" y="531" type="line"/>
      <point x="455" y="534"/>
      <point x="473" y="563"/>
      <point x="481" y="617" type="curve"/>
      <point x="441" y="617" type="line"/>
    </contour>
  </outline>
</glyph>
<glyph name="lcaron" format="1">
  <advance width="217"/>
  <unicode hex="013E"/>
  <outline>
    <contour>
      <point x="252" y="718" type="line"/>
      <point x="127" y="0" type="line"/>
      <point x="55" y="0" type="line"/>
      <point x="180" y="718" type="line"/>
    </contour>
    <contour>
      <point x="280" y="718" type="line"/>
      <point x="357" y="718" type="line"/>
      <point x="341" y="624" type="line" smooth="yes"/>
      <point x="327" y="544"/>
      <point x="290" y="496"/>
      <point x="241" y="492" type="curve"/>
      <point x="248" y="531" type="line"/>
      <point x="276" y="534"/>
      <point x="294" y="563"/>
      <point x="302" y="617" type="curve"/>
      <point x="262" y="617" type="line"/>
    </contour>
  </outline>
</glyph>
<glyph name="Ldot" format="1">
  <advance width="456"/>
  <unicode hex="013F"/>
  <outline>
    <contour>
      <point x="325" y="421" type="curve" smooth="yes"/>
      <point x="348" y="421"/>
      <point x="366" y="399"/>
      <point x="366" y="370" type="curve" smooth="yes"/>
      <point x="366" y="333"/>
      <point x="334" y="296"/>
      <point x="302" y="296" type="curve" smooth="yes"/>
      <point x="279" y="296"/>
      <point x="261" y="317"/>
      <point x="261" y="345" type="curve" smooth="yes"/>
      <point x="261" y="384"/>
      <point x="292" y="421"/>
    </contour>
    <contour>
      <point x="267" y="718" type="line"/>
      <point x="157" y="86" type="line"/>
      <point x="455" y="86" type="line"/>
      <point x="440" y="0" type="line"/>
      <point x="62" y="0" type="line"/>
      <point x="187" y="718" type="line"/>
    </contour>
  </outline>
</glyph>
<glyph name="ldot" format="1">
  <advance width="410"/>
  <unicode hex="0140"/>
  <outline>
    <contour>
      <point x="352" y="315" type="curve" smooth="yes"/>
      <point x="375" y="315"/>
      <point x="393" y="293"/>
      <point x="393" y="264" type="curve" smooth="yes"/>
      <point x="393" y="227"/>
      <point x="361" y="190"/>
      <point x="329" y="190" type="curve" smooth="yes"/>
      <point x="306" y="190"/>
      <point x="288" y="211"/>
      <point x="288" y="239" type="curve" smooth="yes"/>
      <point x="288" y="278"/>
      <point x="319" y="315"/>
    </contour>
    <contour>
      <point x="252" y="718" type="line"/>
      <point x="127" y="0" type="line"/>
      <point x="55" y="0" type="line"/>
      <point x="180" y="718" type="line"/>
    </contour>
  </outline>
</glyph>
<glyph name="lslash" format="1">
  <advance width="182"/>
  <unicode hex="0142"/>
  <outline>
    <contour>
      <point x="274" y="435" type="line"/>
      <point x="194" y="385" type="line"/>
      <point x="127" y="0" type="line"/>
      <point x="55" y="0" type="line"/>
      <point x="114" y="339" type="line"/>
      <point x="34" y="289" type="line"/>
      <point x="44" y="347" type="line"/>
      <point x="124" y="397" type="line"/>
      <point x="180" y="718" type="line"/>
      <point x="252" y="718" type="line"/>
      <point x="204" y="443" type="line"/>
      <point x="284" y="493" type="line"/>
    </contour>
  </outline>
</glyph>
<glyph name="Nacute" format="1">
  <advance width="592"/>
  <unicode hex="0143"/>
  <outline>
    <contour>
      <point x="476" y="135" type="line"/>
      <point x="578" y="718" type="line"/>
      <point x="655" y="718" type="line"/>
      <point x="530" y="0" type="line"/>
      <point x="440" y="0" type="line"/>
      <point x="241" y="583" type="line"/>
      <point x="139" y="0" type="line"/>
      <point x="62" y="0" type="line"/>
      <point x="187" y="718" type="line"/>
      <point x="282" y="718" type="line"/>
    </contour>
    <contour>
      <point x="583" y="929" type="line"/>
      <point x="451" y="788" type="line"/>
      <point x="396" y="788" type="line"/>
      <point x="494" y="929" type="line"/>
    </contour>
  </outline>
</glyph>
<glyph name="Ncommaaccent" format="1">
  <advance width="592"/>
  <unicode hex="0145"/>
  <outline>
    <contour>
      <point x="476" y="135" type="line"/>
      <point x="578" y="718" type="line"/>
      <point x="655" y="718" type="line"/>
      <point x="530" y="0" type="line"/>
      <point x="440" y="0" type="line"/>
      <point x="241" y="583" type="line"/>
      <point x="139" y="0" type="line"/>
      <point x="62" y="0" type="line"/>
      <point x="187" y="718" type="line"/>
      <point x="282" y="718" type="line"/>
    </contour>
    <contour>
      <point x="246" y="-60" type="line"/>
      <point x="323" y="-60" type="line"/>
      <point x="307" y="-154" type="line" smooth="yes"/>
      <point x="293" y="-234"/>
      <point x="256" y="-282"/>
      <point x="207" y="-286" type="curve"/>
      <point x="214" y="-247" type="line"/>
      <point x="242" y="-244"/>
      <point x="260" y="-215"/>
      <point x="268" y="-161" type="curve"/>
      <point x="228" y="-161" type="line"/>
    </contour>
  </outline>
</glyph>
<glyph name="ncommaaccent" format="1">
  <advance width="456"/>
  <unicode hex="0146"/>
  <outline>
    <contour>
      <point x="212" y="523" type="line"/>
      <point x="199" y="446" type="line"/>
      <point x="249" y="511"/>
      <point x="293" y="538"/>
      <point x="352" y="538" type="curve" smooth="yes"/>
      <point x="426" y="538"/>
      <point x="470" y="490"/>
      <point x="470" y="410" type="curve" smooth="yes"/>
      <point x="470" y="393"/>
      <point x="468" y="375"/>
      <point x="465" y="356" type="curve" smooth="yes"/>
      <point x="403" y="0" type="line"/>
      <point x="331" y="0" type="line"/>
      <point x="387" y="322" type="line" smooth="yes"/>
      <point x="390" y="342"/>
      <point x="392" y="362"/>
      <point x="392" y="382" type="curve" smooth="yes"/>
      <point x="392" y="433"/>
      <point x="369" y="459"/>
      <point x="323" y="459" type="curve" smooth="yes"/>
      <point x="250" y="459"/>
      <point x="194" y="393"/>
      <point x="175" y="285" type="curve" smooth="yes"/>
      <point x="125" y="0" type="line"/>
      <point x="53" y="0" type="line"/>
      <point x="144" y="523" type="line"/>
    </contour>
    <contour>
      <point x="178" y="-60" type="line"/>
      <point x="255" y="-60" type="line"/>
      <point x="239" y="-154" type="line" smooth="yes"/>
      <point x="225" y="-234"/>
      <point x="188" y="-282"/>
      <point x="139" y="-286" type="curve"/>
      <point x="146" y="-247" type="line"/>
      <point x="174" y="-244"/>
      <point x="192" y="-215"/>
      <point x="200" y="-161" type="curve"/>
      <point x="160" y="-161" type="line"/>
    </contour>
  </outline>
</glyph>
<glyph name="Ncaron" format="1">
  <advance width="592"/>
  <unicode hex="0147"/>
  <outline>
    <contour>
      <point x="476" y="135" type="line"/>
      <point x="578" y="718" type="line"/>
      <point x="655" y="718" type="line"/>
      <point x="530" y="0" type="line"/>
      <point x="440" y="0" type="line"/>
      <point x="241" y="583" type="line"/>
      <point x="139" y="0" type="line"/>
      <point x="62" y="0" type="line"/>
      <point x="187" y="718" type="line"/>
      <point x="282" y="718" type="line"/>
    </contour>
    <contour>
      <point x="403" y="929" type="line"/>
      <point x="441" y="836" type="line"/>
      <point x="511" y="929" type="line"/>
      <point x="577" y="929" type="line"/>
      <point x="471" y="788" type="line"/>
      <point x="395" y="788" type="line"/>
      <point x="338" y="929" type="line"/>
    </contour>
  </outline>
</glyph>
<glyph name="napostrophe" format="1">
  <advance width="456"/>
  <unicode hex="0149"/>
  <outline>
    <contour>
      <point x="174" y="691" type="line"/>
      <point x="193" y="797" type="line"/>
      <point x="278" y="797" type="line"/>
      <point x="261" y="699" type="line" smooth="yes"/>
      <point x="245" y="608"/>
      <point x="210" y="559"/>
      <point x="148" y="542" type="curve"/>
      <point x="156" y="589" type="line"/>
      <point x="189" y="596"/>
      <point x="207" y="626"/>
      <point x="218" y="691" type="curve"/>
    </contour>
    <contour>
      <point x="212" y="523" type="line"/>
      <point x="199" y="446" type="line"/>
      <point x="249" y="511"/>
      <point x="293" y="538"/>
      <point x="352" y="538" type="curve" smooth="yes"/>
      <point x="426" y="538"/>
      <point x="470" y="490"/>
      <point x="470" y="410" type="curve" smooth="yes"/>
      <point x="470" y="393"/>
      <point x="468" y="375"/>
      <point x="465" y="356" type="curve" smooth="yes"/>
      <point x="403" y="0" type="line"/>
      <point x="331" y="0" type="line"/>
      <point x="387" y="322" type="line" smooth="yes"/>
      <point x="390" y="342"/>
      <point x="392" y="362"/>
      <point x="392" y="382" type="curve" smooth="yes"/>
      <point x="392" y="433"/>
      <point x="369" y="459"/>
      <point x="323" y="459" type="curve" smooth="yes"/>
      <point x="250" y="459"/>
      <point x="194" y="393"/>
      <point x="175" y="285" type="curve" smooth="yes"/>
      <point x="125" y="0" type="line"/>
      <point x="53" y="0" type="line"/>
      <point x="144" y="523" type="line"/>
    </contour>
  </outline>
</glyph>
<glyph name="Eng" format="1">
  <advance width="592"/>
  <unicode hex="014A"/>
  <outline>
    <contour>
      <point x="440" y="0" type="curve"/>
      <point x="241" y="583" type="line"/>
      <point x="139" y="0" type="line"/>
      <point x="62" y="0" type="line"/>
      <point x="187" y="718" type="line"/>
      <point x="282" y="718" type="line"/>
      <point x="476" y="135" type="line"/>
      <point x="578" y="718" type="line"/>
      <point x="655" y="718" type="line"/>
      <point x="530" y="0" type="line" smooth="yes"/>
      <point x="512" y="-106"/>
      <point x="382" y="-131"/>
      <point x="325" y="-131" type="curve"/>
      <point x="325" y="-46" type="line"/>
      <point x="364" y="-46"/>
      <point x="428" y="-22"/>
    </contour>
  </outline>
</glyph>
<glyph name="eng" format="1">
  <advance width="456"/>
  <unicode hex="014B"/>
  <outline>
    <contour>
      <point x="396" y="-53" type="line" smooth="yes"/>
      <point x="379" y="-152"/>
      <point x="283" y="-174"/>
      <point x="202" y="-174" type="curve"/>
      <point x="220" y="-102" type="line"/>
      <point x="271" y="-102"/>
      <point x="315" y="-90"/>
      <point x="323" y="-45" type="curve" smooth="yes"/>
      <point x="387" y="322" type="line" smooth="yes"/>
      <point x="390" y="342"/>
      <point x="392" y="362"/>
      <point x="392" y="382" type="curve" smooth="yes"/>
      <point x="392" y="433"/>
      <point x="369" y="459"/>
      <point x="323" y="459" type="curve" smooth="yes"/>
      <point x="250" y="459"/>
      <point x="194" y="393"/>
      <point x="175" y="285" type="curve" smooth="yes"/>
      <point x="125" y="0" type="line"/>
      <point x="53" y="0" type="line"/>
      <point x="144" y="523" type="line"/>
      <point x="212" y="523" type="line"/>
      <point x="199" y="446" type="line"/>
      <point x="249" y="511"/>
      <point x="293" y="538"/>
      <point x="352" y="538" type="curve" smooth="yes"/>
      <point x="426" y="538"/>
      <point x="470" y="490"/>
      <point x="470" y="410" type="curve" smooth="yes"/>
      <point x="470" y="393"/>
      <point x="468" y="375"/>
      <point x="465" y="356" type="curve" smooth="yes"/>
    </contour>
  </outline>
</glyph>
<glyph name="Obreve" format="1">
  <advance width="638"/>
  <unicode hex="014E"/>
  <outline>
    <contour>
      <point x="573" y="954" type="curve"/>
      <point x="612" y="954" type="line"/>
      <point x="599" y="910"/>
      <point x="589" y="890"/>
      <point x="570" y="867" type="curve" smooth="yes"/>
      <point x="543" y="835"/>
      <point x="504" y="818"/>
      <point x="459" y="818" type="curve" smooth="yes"/>
      <point x="393" y="818"/>
      <point x="358" y="855"/>
      <point x="358" y="925" type="curve"/>
      <point x="359" y="954" type="line"/>
      <point x="399" y="954" type="line"/>
      <point x="401" y="932"/>
      <point x="402" y="926"/>
      <point x="406" y="916" type="curve" smooth="yes"/>
      <point x="416" y="889"/>
      <point x="440" y="875"/>
      <point x="474" y="875" type="curve" smooth="yes"/>
      <point x="523" y="875"/>
      <point x="548" y="896"/>
    </contour>
    <contour>
      <point x="447" y="737" type="curve" smooth="yes"/>
      <point x="593" y="737"/>
      <point x="677" y="634"/>
      <point x="677" y="456" type="curve" smooth="yes"/>
      <point x="677" y="335"/>
      <point x="635" y="207"/>
      <point x="566" y="115" type="curve" smooth="yes"/>
      <point x="499" y="26"/>
      <point x="415" y="-19"/>
      <point x="316" y="-19" type="curve" smooth="yes"/>
      <point x="251" y="-19"/>
      <point x="193" y="3"/>
      <point x="156" y="42" type="curve" smooth="yes"/>
      <point x="114" y="86"/>
      <point x="86" y="173"/>
      <point x="86" y="261" type="curve" smooth="yes"/>
      <point x="86" y="383"/>
      <point x="128" y="512"/>
      <point x="196" y="603" type="curve" smooth="yes"/>
      <point x="263" y="691"/>
      <point x="349" y="737"/>
    </contour>
    <contour>
      <point x="432" y="651" type="curve" smooth="yes"/>
      <point x="287" y="651"/>
      <point x="169" y="482"/>
      <point x="169" y="274" type="curve" smooth="yes"/>
      <point x="169" y="145"/>
      <point x="230" y="67"/>
      <point x="330" y="67" type="curve" smooth="yes"/>
      <point x="415" y="67"/>
      <point x="491" y="121"/>
      <point x="540" y="216" type="curve" smooth="yes"/>
      <point x="574" y="283"/>
      <point x="594" y="366"/>
      <point x="594" y="445" type="curve" smooth="yes"/>
      <point x="594" y="573"/>
      <point x="533" y="651"/>
    </contour>
  </outline>
</glyph>
<glyph name="OE" format="1">
  <advance width="820"/>
  <unicode hex="0152"/>
  <outline>
    <contour>
      <point x="541" y="642" type="curve"/>
      <point x="554" y="718" type="line"/>
      <point x="915" y="718" type="line"/>
      <point x="900" y="632" type="line"/>
      <point x="614" y="632" type="line"/>
      <point x="575" y="412" type="line"/>
      <point x="849" y="412" type="line"/>
      <point x="834" y="326" type="line"/>
      <point x="560" y="326" type="line"/>
      <point x="518" y="86" type="line"/>
      <point x="806" y="86" type="line"/>
      <point x="791" y="0" type="line"/>
      <point x="428" y="0" type="line"/>
      <point x="441" y="78" type="line"/>
      <point x="383" y="5"/>
      <point x="340" y="-19"/>
      <point x="269" y="-19" type="curve" smooth="yes"/>
      <point x="217" y="-19"/>
      <point x="173" y="-2"/>
      <point x="142" y="31" type="curve" smooth="yes"/>
      <point x="105" y="70"/>
      <point x="80" y="151"/>
      <point x="80" y="235" type="curve" smooth="yes"/>
      <point x="80" y="342"/>
      <point x="108" y="459"/>
      <point x="156" y="553" type="curve" smooth="yes"/>
      <point x="216" y="672"/>
      <point x="305" y="737"/>
      <point x="408" y="737" type="curve" smooth="yes"/>
      <point x="478" y="737"/>
      <point x="517" y="709"/>
    </contour>
    <contour>
      <point x="464" y="230" type="curve" smooth="yes"/>
      <point x="509" y="492" type="line" smooth="yes"/>
      <point x="512" y="505"/>
      <point x="513" y="519"/>
      <point x="513" y="531" type="curve" smooth="yes"/>
      <point x="513" y="607"/>
      <point x="468" y="654"/>
      <point x="396" y="654" type="curve" smooth="yes"/>
      <point x="328" y="654"/>
      <point x="271" y="612"/>
      <point x="230" y="533" type="curve" smooth="yes"/>
      <point x="191" y="456"/>
      <point x="161" y="330"/>
      <point x="161" y="242" type="curve" smooth="yes"/>
      <point x="161" y="124"/>
      <point x="206" y="64"/>
      <point x="294" y="64" type="curve" smooth="yes"/>
      <point x="379" y="64"/>
      <point x="446" y="130"/>
    </contour>
  </outline>
</glyph>
<glyph name="rcommaaccent" format="1">
  <advance width="273"/>
  <unicode hex="0157"/>
  <outline>
    <contour>
      <point x="349" y="444" type="line"/>
      <point x="322" y="444" type="line" smooth="yes"/>
      <point x="259" y="444"/>
      <point x="202" y="385"/>
      <point x="188" y="304" type="curve" smooth="yes"/>
      <point x="135" y="0" type="line"/>
      <point x="63" y="0" type="line"/>
      <point x="154" y="523" type="line"/>
      <point x="222" y="523" type="line"/>
      <point x="206" y="433" type="line"/>
      <point x="258" y="509"/>
      <point x="296" y="538"/>
      <point x="347" y="538" type="curve" smooth="yes"/>
      <point x="354" y="538"/>
      <point x="359" y="537"/>
      <point x="365" y="535" type="curve"/>
    </contour>
    <contour>
      <point x="47" y="-60" type="line"/>
      <point x="124" y="-60" type="line"/>
      <point x="108" y="-154" type="line" smooth="yes"/>
      <point x="94" y="-234"/>
      <point x="57" y="-282"/>
      <point x="8" y="-286" type="curve"/>
      <point x="15" y="-247" type="line"/>
      <point x="43" y="-244"/>
      <point x="61" y="-215"/>
      <point x="69" y="-161" type="curve"/>
      <point x="29" y="-161" type="line"/>
    </contour>
  </outline>
</glyph>
<glyph name="rcaron" format="1">
  <advance width="273"/>
  <unicode hex="0159"/>
  <outline>
    <contour>
      <point x="349" y="444" type="line"/>
      <point x="322" y="444" type="line" smooth="yes"/>
      <point x="259" y="444"/>
      <point x="202" y="385"/>
      <point x="188" y="304" type="curve" smooth="yes"/>
      <point x="135" y="0" type="line"/>
      <point x="63" y="0" type="line"/>
      <point x="154" y="523" type="line"/>
      <point x="222" y="523" type="line"/>
      <point x="206" y="433" type="line"/>
      <point x="258" y="509"/>
      <point x="296" y="538"/>
      <point x="347" y="538" type="curve" smooth="yes"/>
      <point x="354" y="538"/>
      <point x="359" y="537"/>
      <point x="365" y="535" type="curve"/>
    </contour>
    <contour>
      <point x="210" y="734" type="line"/>
      <point x="248" y="641" type="line"/>
      <point x="318" y="734" type="line"/>
      <point x="384" y="734" type="line"/>
      <point x="278" y="593" type="line"/>
      <point x="202" y="593" type="line"/>
      <point x="145" y="734" type="line"/>
    </contour>
  </outline>
</glyph>
<glyph name="Scaron" format="1">
  <advance width="547"/>
  <unicode hex="0160"/>
  <outline>
    <contour>
      <point x="580" y="508" type="curve"/>
      <point x="505" y="508" type="line"/>
      <point x="506" y="521"/>
      <point x="507" y="532"/>
      <point x="507" y="541" type="curve" smooth="yes"/>
      <point x="507" y="611"/>
      <point x="460" y="654"/>
      <point x="384" y="654" type="curve" smooth="yes"/>
      <point x="292" y="654"/>
      <point x="227" y="593"/>
      <point x="227" y="506" type="curve" smooth="yes"/>
      <point x="227" y="470"/>
      <point x="245" y="448"/>
      <point x="283" y="437" type="curve" smooth="yes"/>
      <point x="442" y="390" type="line" smooth="yes"/>
      <point x="511" y="370"/>
      <point x="547" y="320"/>
      <point x="547" y="246" type="curve" smooth="yes"/>
      <point x="547" y="89"/>
      <point x="435" y="-19"/>
      <point x="272" y="-19" type="curve" smooth="yes"/>
      <point x="193" y="-19"/>
      <point x="144" y="2"/>
      <point x="109" y="50" type="curve"/>
      <point x="87" y="82"/>
      <point x="74" y="120"/>
      <point x="74" y="157" type="curve" smooth="yes"/>
      <point x="74" y="176"/>
      <point x="76" y="202"/>
      <point x="81" y="232" type="curve"/>
      <point x="156" y="232" type="line"/>
      <point x="153" y="214"/>
      <point x="152" y="197"/>
      <point x="152" y="186" type="curve" smooth="yes"/>
      <point x="152" y="110"/>
      <point x="205" y="64"/>
      <point x="291" y="64" type="curve" smooth="yes"/>
      <point x="399" y="64"/>
      <point x="467" y="123"/>
      <point x="467" y="217" type="curve" smooth="yes"/>
      <point x="467" y="265"/>
      <point x="441" y="288"/>
      <point x="360" y="312" type="curve" smooth="yes"/>
      <point x="246" y="346" type="line" smooth="yes"/>
      <point x="180" y="366"/>
      <point x="146" y="410"/>
      <point x="146" y="475" type="curve" smooth="yes"/>
      <point x="146" y="532"/>
      <point x="169" y="598"/>
      <point x="205" y="645" type="curve" smooth="yes"/>
      <point x="251" y="706"/>
      <point x="315" y="737"/>
      <point x="398" y="737" type="curve" smooth="yes"/>
      <point x="515" y="737"/>
      <point x="584" y="674"/>
      <point x="584" y="569" type="curve" smooth="yes"/>
      <point x="584" y="554"/>
      <point x="583" y="532"/>
    </contour>
    <contour>
      <point x="381" y="929" type="line"/>
      <point x="419" y="836" type="line"/>
      <point x="489" y="929" type="line"/>
      <point x="555" y="929" type="line"/>
      <point x="449" y="788" type="line"/>
      <point x="373" y="788" type="line"/>
      <point x="316" y="929" type="line"/>
    </contour>
  </outline>
</glyph>
<glyph name="Tcommaaccent" format="1">
  <advance width="501"/>
  <unicode hex="0162"/>
  <outline>
    <contour>
      <point x="122" y="632" type="line"/>
      <point x="137" y="718" type="line"/>
      <point x="615" y="718" type="line"/>
      <point x="600" y="632" type="line"/>
      <point x="401" y="632" type="line"/>
      <point x="291" y="0" type="line"/>
      <point x="211" y="0" type="line"/>
      <point x="321" y="632" type="line"/>
    </contour>
    <contour>
      <point x="200" y="-60" type="line"/>
      <point x="277" y="-60" type="line"/>
      <point x="261" y="-154" type="line" smooth="yes"/>
      <point x="247" y="-234"/>
      <point x="210" y="-282"/>
      <point x="161" y="-286" type="curve"/>
      <point x="168" y="-247" type="line"/>
      <point x="196" y="-244"/>
      <point x="214" y="-215"/>
      <point x="222" y="-161" type="curve"/>
      <point x="182" y="-161" type="line"/>
    </contour>
  </outline>
</glyph>
<glyph name="tcommaaccent" format="1">
  <advance width="228"/>
  <unicode hex="0163"/>
  <outline>
    <contour>
      <point x="290" y="450" type="line"/>
      <point x="221" y="450" type="line"/>
      <point x="161" y="110" type="line"/>
      <point x="160" y="98" type="line"/>
      <point x="160" y="77"/>
      <point x="171" y="69"/>
      <point x="198" y="69" type="curve" smooth="yes"/>
      <point x="223" y="69" type="line"/>
      <point x="211" y="0" type="line"/>
      <point x="194" y="-2"/>
      <point x="189" y="-3"/>
      <point x="178" y="-4" type="curve" smooth="yes"/>
      <point x="163" y="-6"/>
      <point x="157" y="-7"/>
      <point x="152" y="-7" type="curve" smooth="yes"/>
      <point x="108" y="-7"/>
      <point x="84" y="18"/>
      <point x="84" y="63" type="curve" smooth="yes"/>
      <point x="84" y="74"/>
      <point x="86" y="90"/>
      <point x="88" y="105" type="curve" smooth="yes"/>
      <point x="148" y="450" type="line"/>
      <point x="90" y="450" type="line"/>
      <point x="103" y="523" type="line"/>
      <point x="161" y="523" type="line"/>
      <point x="187" y="669" type="line"/>
      <point x="259" y="669" type="line"/>
      <point x="233" y="523" type="line"/>
      <point x="302" y="523" type="line"/>
    </contour>
    <contour>
      <point x="64" y="-60" type="line"/>
      <point x="141" y="-60" type="line"/>
      <point x="125" y="-154" type="line" smooth="yes"/>
      <point x="111" y="-234"/>
      <point x="74" y="-282"/>
      <point x="25" y="-286" type="curve"/>
      <point x="32" y="-247" type="line"/>
      <point x="60" y="-244"/>
      <point x="78" y="-215"/>
      <point x="86" y="-161" type="curve"/>
      <point x="46" y="-161" type="line"/>
    </contour>
  </outline>
</glyph>
<glyph name="Tcaron" format="1">
  <advance width="501"/>
  <unicode hex="0164"/>
  <outline>
    <contour>
      <point x="122" y="632" type="line"/>
      <point x="137" y="718" type="line"/>
      <point x="615" y="718" type="line"/>
      <point x="600" y="632" type="line"/>
      <point x="401" y="632" type="line"/>
      <point x="291" y="0" type="line"/>
      <point x="211" y="0" type="line"/>
      <point x="321" y="632" type="line"/>
    </contour>
    <contour>
      <point x="358" y="929" type="line"/>
      <point x="396" y="836" type="line"/>
      <point x="466" y="929" type="line"/>
      <point x="532" y="929" type="line"/>
      <point x="426" y="788" type="line"/>
      <point x="350" y="788" type="line"/>
      <point x="293" y="929" type="line"/>
    </contour>
  </outline>
</glyph>
<glyph name="Tbar" format="1">
  <advance width="501"/>
  <unicode hex="0166"/>
  <outline>
    <contour>
      <point x="122" y="632" type="line"/>
      <point x="137" y="718" type="line"/>
      <point x="615" y="718" type="line"/>
      <point x="600" y="632" type="line"/>
      <point x="401" y="632" type="line"/>
      <point x="370" y="452" type="line"/>
      <point x="528" y="452" type="line"/>
      <point x="515" y="379" type="line"/>
      <point x="357" y="379" type="line"/>
      <point x="291" y="0" type="line"/>
      <point x="211" y="0" type="line"/>
      <point x="277" y="379" type="line"/>
      <point x="101" y="379" type="line"/>
      <point x="114" y="452" type="line"/>
      <point x="290" y="452" type="line"/>
      <point x="321" y="632" type="line"/>
    </contour>
  </outline>
</glyph>
<glyph name="tbar" format="1">
  <advance width="228"/>
  <unicode hex="0167"/>
  <outline>
    <contour>
      <point x="289" y="450" type="line"/>
      <point x="220" y="450" type="line"/>
      <point x="208" y="379" type="line"/>
      <point x="275" y="379" type="line"/>
      <point x="262" y="306" type="line"/>
      <point x="195" y="306" type="line"/>
      <point x="161" y="110" type="line" smooth="yes"/>
      <point x="160" y="106"/>
      <point x="160" y="103"/>
      <point x="160" y="98" type="curve" smooth="yes"/>
      <point x="160" y="77"/>
      <point x="171" y="69"/>
      <point x="197" y="69" type="curve" smooth="yes"/>
      <point x="223" y="69" type="line"/>
      <point x="211" y="0" type="line"/>
      <point x="194" y="-2"/>
      <point x="189" y="-3"/>
      <point x="177" y="-4" type="curve" smooth="yes"/>
      <point x="163" y="-6"/>
      <point x="157" y="-7"/>
      <point x="151" y="-7" type="curve" smooth="yes"/>
      <point x="108" y="-7"/>
      <point x="84" y="18"/>
      <point x="84" y="63" type="curve" smooth="yes"/>
      <point x="84" y="76"/>
      <point x="85" y="91"/>
      <point x="88" y="105" type="curve" smooth="yes"/>
      <point x="123" y="306" type="line"/>
      <point x="63" y="306" type="line"/>
      <point x="76" y="379" type="line"/>
      <point x="136" y="379" type="line"/>
      <point x="148" y="450" type="line"/>
      <point x="90" y="450" type="line"/>
      <point x="103" y="523" type="line"/>
      <point x="161" y="523" type="line"/>
      <point x="186" y="669" type="line"/>
      <point x="259" y="669" type="line"/>
      <point x="233" y="523" type="line"/>
      <point x="302" y="523" type="line"/>
    </contour>
  </outline>
</glyph>
<glyph name="Utilde" format="1">
  <advance width="592"/>
  <unicode hex="0168"/>
  <outline>
    <contour>
      <point x="558" y="934" type="curve"/>
      <point x="599" y="934" type="line"/>
      <point x="577" y="863"/>
      <point x="542" y="825"/>
      <point x="497" y="825" type="curve" smooth="yes"/>
      <point x="485" y="825"/>
      <point x="472" y="829"/>
      <point x="452" y="838" type="curve" smooth="yes"/>
      <point x="432" y="847" type="line" smooth="yes"/>
      <point x="409" y="858"/>
      <point x="395" y="862"/>
      <point x="385" y="862" type="curve" smooth="yes"/>
      <point x="365" y="862"/>
      <point x="352" y="850"/>
      <point x="338" y="818" type="curve"/>
      <point x="299" y="818" type="line"/>
      <point x="322" y="892"/>
      <point x="354" y="925"/>
      <point x="403" y="925" type="curve" smooth="yes"/>
      <point x="419" y="925"/>
      <point x="438" y="920"/>
      <point x="456" y="910" type="curve" smooth="yes"/>
      <point x="473" y="901" type="line" smooth="yes"/>
      <point x="488" y="893"/>
      <point x="502" y="888"/>
      <point x="511" y="888" type="curve" smooth="yes"/>
      <point x="533" y="888"/>
      <point x="546" y="901"/>
    </contour>
    <contour>
      <point x="574" y="718" type="line"/>
      <point x="653" y="718" type="line"/>
      <point x="572" y="252" type="line" smooth="yes"/>
      <point x="543" y="87"/>
      <point x="433" y="-19"/>
      <point x="289" y="-19" type="curve" smooth="yes"/>
      <point x="169" y="-19"/>
      <point x="101" y="52"/>
      <point x="101" y="176" type="curve" smooth="yes"/>
      <point x="101" y="197"/>
      <point x="103" y="218"/>
      <point x="106" y="239" type="curve" smooth="yes"/>
      <point x="190" y="718" type="line"/>
      <point x="269" y="718" type="line"/>
      <point x="191" y="266" type="line" smooth="yes"/>
      <point x="187" y="245"/>
      <point x="185" y="223"/>
      <point x="185" y="202" type="curve" smooth="yes"/>
      <point x="185" y="115"/>
      <point x="228" y="67"/>
      <point x="307" y="67" type="curve" smooth="yes"/>
      <point x="404" y="67"/>
      <point x="473" y="139"/>
      <point x="494" y="264" type="curve"/>
    </contour>
  </outline>
</glyph>
<glyph name="utilde" format="1">
  <advance width="456"/>
  <unicode hex="0169"/>
  <outline>
    <contour>
      <point x="456" y="739" type="curve"/>
      <point x="497" y="739" type="line"/>
      <point x="475" y="668"/>
      <point x="440" y="630"/>
      <point x="395" y="630" type="curve" smooth="yes"/>
      <point x="383" y="630"/>
      <point x="370" y="634"/>
      <point x="350" y="643" type="curve" smooth="yes"/>
      <point x="330" y="652" type="line" smooth="yes"/>
      <point x="307" y="663"/>
      <point x="293" y="667"/>
      <point x="283" y="667" type="curve" smooth="yes"/>
      <point x="263" y="667"/>
      <point x="250" y="655"/>
      <point x="236" y="623" type="curve"/>
      <point x="197" y="623" type="line"/>
      <point x="220" y="697"/>
      <point x="252" y="730"/>
      <point x="301" y="730" type="curve" smooth="yes"/>
      <point x="317" y="730"/>
      <point x="336" y="725"/>
      <point x="354" y="715" type="curve" smooth="yes"/>
      <point x="371" y="706" type="line" smooth="yes"/>
      <point x="386" y="698"/>
      <point x="400" y="693"/>
      <point x="409" y="693" type="curve" smooth="yes"/>
      <point x="431" y="693"/>
      <point x="444" y="706"/>
    </contour>
    <contour>
      <point x="401" y="0" type="line"/>
      <point x="333" y="0" type="line"/>
      <point x="347" y="81" type="line"/>
      <point x="296" y="9"/>
      <point x="258" y="-15"/>
      <point x="195" y="-15" type="curve" smooth="yes"/>
      <point x="120" y="-15"/>
      <point x="77" y="28"/>
      <point x="77" y="103" type="curve" smooth="yes"/>
      <point x="77" y="118"/>
      <point x="78" y="132"/>
      <point x="81" y="147" type="curve" smooth="yes"/>
      <point x="146" y="523" type="line"/>
      <point x="219" y="523" type="line"/>
      <point x="158" y="176" type="line" smooth="yes"/>
      <point x="156" y="163"/>
      <point x="155" y="153"/>
      <point x="155" y="136" type="curve" smooth="yes"/>
      <point x="155" y="87"/>
      <point x="178" y="61"/>
      <point x="222" y="61" type="curve" smooth="yes"/>
      <point x="294" y="61"/>
      <point x="351" y="128"/>
      <point x="370" y="235" type="curve" smooth="yes"/>
      <point x="420" y="523" type="line"/>
      <point x="492" y="523" type="line"/>
    </contour>
  </outline>
</glyph>
<glyph name="Ubreve" format="1">
  <advance width="592"/>
  <unicode hex="016C"/>
  <outline>
    <contour>
      <point x="550" y="954" type="curve"/>
      <point x="589" y="954" type="line"/>
      <point x="576" y="910"/>
      <point x="566" y="890"/>
      <point x="547" y="867" type="curve" smooth="yes"/>
      <point x="520" y="835"/>
      <point x="481" y="818"/>
      <point x="436" y="818" type="curve" smooth="yes"/>
      <point x="370" y="818"/>
      <point x="335" y="855"/>
      <point x="335" y="925" type="curve"/>
      <point x="336" y="954" type="line"/>
      <point x="376" y="954" type="line"/>
      <point x="378" y="932"/>
      <point x="379" y="926"/>
      <point x="383" y="916" type="curve" smooth="yes"/>
      <point x="393" y="889"/>
      <point x="417" y="875"/>
      <point x="451" y="875" type="curve" smooth="yes"/>
      <point x="500" y="875"/>
      <point x="525" y="896"/>
    </contour>
    <contour>
      <point x="574" y="718" type="line"/>
      <point x="653" y="718" type="line"/>
      <point x="572" y="252" type="line" smooth="yes"/>
      <point x="543" y="87"/>
      <point x="433" y="-19"/>
      <point x="289" y="-19" type="curve" smooth="yes"/>
      <point x="169" y="-19"/>
      <point x="101" y="52"/>
      <point x="101" y="176" type="curve" smooth="yes"/>
      <point x="101" y="197"/>
      <point x="103" y="218"/>
      <point x="106" y="239" type="curve" smooth="yes"/>
      <point x="190" y="718" type="line"/>
      <point x="269" y="718" type="line"/>
      <point x="191" y="266" type="line" smooth="yes"/>
      <point x="187" y="245"/>
      <point x="185" y="223"/>
      <point x="185" y="202" type="curve" smooth="yes"/>
      <point x="185" y="115"/>
      <point x="228" y="67"/>
      <point x="307" y="67" type="curve" smooth="yes"/>
      <point x="404" y="67"/>
      <point x="473" y="139"/>
      <point x="494" y="264" type="curve"/>
    </contour>
  </outline>
</glyph>
<glyph name="ubreve" format="1">
  <advance width="456"/>
  <unicode hex="016D"/>
  <outline>
    <contour>
      <point x="448" y="759" type="curve"/>
      <point x="487" y="759" type="line"/>
      <point x="474" y="715"/>
      <point x="464" y="695"/>
      <point x="445" y="672" type="curve" smooth="yes"/>
      <point x="418" y="640"/>
      <point x="379" y="623"/>
      <point x="334" y="623" type="curve" smooth="yes"/>
      <point x="268" y="623"/>
      <point x="233" y="660"/>
      <point x="233" y="730" type="curve"/>
      <point x="234" y="759" type="line"/>
      <point x="274" y="759" type="line"/>
      <point x="276" y="737"/>
      <point x="277" y="731"/>
      <point x="281" y="721" type="curve" smooth="yes"/>
      <point x="291" y="694"/>
      <point x="315" y="680"/>
      <point x="349" y="680" type="curve" smooth="yes"/>
      <point x="398" y="680"/>
      <point x="423" y="701"/>
    </contour>
    <contour>
      <point x="401" y="0" type="line"/>
      <point x="333" y="0" type="line"/>
      <point x="347" y="81" type="line"/>
      <point x="296" y="9"/>
      <point x="258" y="-15"/>
      <point x="195" y="-15" type="curve" smooth="yes"/>
      <point x="120" y="-15"/>
      <point x="77" y="28"/>
      <point x="77" y="103" type="curve" smooth="yes"/>
      <point x="77" y="118"/>
      <point x="78" y="132"/>
      <point x="81" y="147" type="curve" smooth="yes"/>
      <point x="146" y="523" type="line"/>
      <point x="219" y="523" type="line"/>
      <point x="158" y="176" type="line" smooth="yes"/>
      <point x="156" y="163"/>
      <point x="155" y="153"/>
      <point x="155" y="136" type="curve" smooth="yes"/>
      <point x="155" y="87"/>
      <point x="178" y="61"/>
      <point x="222" y="61" type="curve" smooth="yes"/>
      <point x="294" y="61"/>
      <point x="351" y="128"/>
      <point x="370" y="235" type="curve" smooth="yes"/>
      <point x="420" y="523" type="line"/>
      <point x="492" y="523" type="line"/>
    </contour>
  </outline>
</glyph>
<glyph name="Uring" format="1">
  <advance width="592"/>
  <unicode hex="016E"/>
  <outline>
    <contour>
      <point x="574" y="718" type="line"/>
      <point x="653" y="718" type="line"/>
      <point x="572" y="252" type="line" smooth="yes"/>
      <point x="543" y="87"/>
      <point x="433" y="-19"/>
      <point x="289" y="-19" type="curve" smooth="yes"/>
      <point x="169" y="-19"/>
      <point x="101" y="52"/>
      <point x="101" y="176" type="curve" smooth="yes"/>
      <point x="101" y="197"/>
      <point x="103" y="218"/>
      <point x="106" y="239" type="curve" smooth="yes"/>
      <point x="190" y="718" type="line"/>
      <point x="269" y="718" type="line"/>
      <point x="191" y="266" type="line" smooth="yes"/>
      <point x="187" y="245"/>
      <point x="185" y="223"/>
      <point x="185" y="202" type="curve" smooth="yes"/>
      <point x="185" y="115"/>
      <point x="228" y="67"/>
      <point x="307" y="67" type="curve" smooth="yes"/>
      <point x="404" y="67"/>
      <point x="473" y="139"/>
      <point x="494" y="264" type="curve"/>
    </contour>
    <contour>
      <point x="462" y="951" type="curve" smooth="yes"/>
      <point x="498" y="951"/>
      <point x="523" y="922"/>
      <point x="523" y="880" type="curve" smooth="yes"/>
      <point x="523" y="819"/>
      <point x="479" y="767"/>
      <point x="429" y="767" type="curve" smooth="yes"/>
      <point x="393" y="767"/>
      <point x="368" y="795"/>
      <point x="368" y="838" type="curve" smooth="yes"/>
      <point x="368" y="899"/>
      <point x="411" y="951"/>
    </contour>
    <contour>
      <point x="455" y="911" type="curve" smooth="yes"/>
      <point x="427" y="911"/>
      <point x="402" y="881"/>
      <point x="402" y="848" type="curve" smooth="yes"/>
      <point x="402" y="824"/>
      <point x="416" y="807"/>
      <point x="436" y="807" type="curve" smooth="yes"/>
      <point x="463" y="807"/>
      <point x="489" y="838"/>
      <point x="489" y="870" type="curve" smooth="yes"/>
      <point x="489" y="894"/>
      <point x="474" y="911"/>
    </contour>
  </outline>
</glyph>
<glyph name="uring" format="1">
  <advance width="456"/>
  <unicode hex="016F"/>
  <outline>
    <contour>
      <point x="401" y="0" type="line"/>
      <point x="333" y="0" type="line"/>
      <point x="347" y="81" type="line"/>
      <point x="296" y="9"/>
      <point x="258" y="-15"/>
      <point x="195" y="-15" type="curve" smooth="yes"/>
      <point x="120" y="-15"/>
      <point x="77" y="28"/>
      <point x="77" y="103" type="curve" smooth="yes"/>
      <point x="77" y="118"/>
      <point x="78" y="132"/>
      <point x="81" y="147" type="curve" smooth="yes"/>
      <point x="146" y="523" type="line"/>
      <point x="219" y="523" type="line"/>
      <point x="158" y="176" type="line" smooth="yes"/>
      <point x="156" y="163"/>
      <point x="155" y="153"/>
      <point x="155" y="136" type="curve" smooth="yes"/>
      <point x="155" y="87"/>
      <point x="178" y="61"/>
      <point x="222" y="61" type="curve" smooth="yes"/>
      <point x="294" y="61"/>
      <point x="351" y="128"/>
      <point x="370" y="235" type="curve" smooth="yes"/>
      <point x="420" y="523" type="line"/>
      <point x="492" y="523" type="line"/>
    </contour>
    <contour>
      <point x="360" y="756" type="curve" smooth="yes"/>
      <point x="396" y="756"/>
      <point x="421" y="727"/>
      <point x="421" y="685" type="curve" smooth="yes"/>
      <point x="421" y="624"/>
      <point x="377" y="572"/>
      <point x="327" y="572" type="curve" smooth="yes"/>
      <point x="291" y="572"/>
      <point x="266" y="600"/>
      <point x="266" y="643" type="curve" smooth="yes"/>
      <point x="266" y="704"/>
      <point x="309" y="756"/>
    </contour>
    <contour>
      <point x="353" y="716" type="curve" smooth="yes"/>
      <point x="325" y="716"/>
      <point x="300" y="686"/>
      <point x="300" y="653" type="curve" smooth="yes"/>
      <point x="300" y="629"/>
      <point x="314" y="612"/>
      <point x="334" y="612" type="curve" smooth="yes"/>
      <point x="361" y="612"/>
      <point x="387" y="643"/>
      <point x="387" y="675" type="curve" smooth="yes"/>
      <point x="387" y="699"/>
      <point x="372" y="716"/>
    </contour>
  </outline>
</glyph>
<glyph name="uhungarumlaut" format="1">
  <advance width="456"/>
  <unicode hex="0171"/>
  <outline>
    <contour>
      <point x="401" y="0" type="line"/>
      <point x="333" y="0" type="line"/>
      <point x="347" y="81" type="line"/>
      <point x="296" y="9"/>
      <point x="258" y="-15"/>
      <point x="195" y="-15" type="curve" smooth="yes"/>
      <point x="120" y="-15"/>
      <point x="77" y="28"/>
      <point x="77" y="103" type="curve" smooth="yes"/>
      <point x="77" y="118"/>
      <point x="78" y="132"/>
      <point x="81" y="147" type="curve" smooth="yes"/>
      <point x="146" y="523" type="line"/>
      <point x="219" y="523" type="line"/>
      <point x="158" y="176" type="line" smooth="yes"/>
      <point x="156" y="163"/>
      <point x="155" y="153"/>
      <point x="155" y="136" type="curve" smooth="yes"/>
      <point x="155" y="87"/>
      <point x="178" y="61"/>
      <point x="222" y="61" type="curve" smooth="yes"/>
      <point x="294" y="61"/>
      <point x="351" y="128"/>
      <point x="370" y="235" type="curve" smooth="yes"/>
      <point x="420" y="523" type="line"/>
      <point x="492" y="523" type="line"/>
    </contour>
    <contour>
      <point x="408" y="734" type="line"/>
      <point x="276" y="593" type="line"/>
      <point x="221" y="593" type="line"/>
      <point x="318" y="734" type="line"/>
    </contour>
    <contour>
      <point x="555" y="734" type="line"/>
      <point x="423" y="593" type="line"/>
      <point x="368" y="593" type="line"/>
      <point x="466" y="734" type="line"/>
    </contour>
  </outline>
</glyph>
<glyph name="Uogonek" format="1">
  <advance width="592"/>
  <unicode hex="0172"/>
  <outline>
    <contour>
      <point x="269" y="718" type="line"/>
      <point x="191" y="266" type="line" smooth="yes"/>
      <point x="187" y="245"/>
      <point x="185" y="223"/>
      <point x="185" y="202" type="curve" smooth="yes"/>
      <point x="185" y="115"/>
      <point x="228" y="67"/>
      <point x="307" y="67" type="curve" smooth="yes"/>
      <point x="404" y="67"/>
      <point x="473" y="139"/>
      <point x="494" y="264" type="curve"/>
      <point x="574" y="718" type="line"/>
      <point x="653" y="718" type="line"/>
      <point x="572" y="252" type="line" smooth="yes"/>
      <point x="562" y="196"/>
      <point x="538" y="135"/>
      <point x="509" y="95" type="curve" smooth="yes"/>
      <point x="496" y="77"/>
      <point x="481" y="60"/>
      <point x="465" y="45" type="curve" smooth="yes"/>
      <point x="384" y="-29" type="line" smooth="yes"/>
      <point x="347" y="-63"/>
      <point x="325" y="-105"/>
      <point x="325" y="-143" type="curve" smooth="yes"/>
      <point x="325" y="-166"/>
      <point x="339" y="-178"/>
      <point x="364" y="-178" type="curve" smooth="yes"/>
      <point x="381" y="-178"/>
      <point x="393" y="-175"/>
      <point x="419" y="-163" type="curve"/>
      <point x="426" y="-203" type="line"/>
      <point x="393" y="-218"/>
      <point x="367" y="-225"/>
      <point x="341" y="-225" type="curve" smooth="yes"/>
      <point x="293" y="-225"/>
      <point x="261" y="-196"/>
      <point x="261" y="-152" type="curve" smooth="yes"/>
      <point x="261" y="-100"/>
      <point x="296" y="-41"/>
      <point x="344" y="-14" type="curve"/>
      <point x="322" y="-18"/>
      <point x="307" y="-19"/>
      <point x="289" y="-19" type="curve" smooth="yes"/>
      <point x="169" y="-19"/>
      <point x="101" y="52"/>
      <point x="101" y="176" type="curve" smooth="yes"/>
      <point x="101" y="197"/>
      <point x="103" y="218"/>
      <point x="106" y="239" type="curve" smooth="yes"/>
      <point x="190" y="718" type="line"/>
    </contour>
  </outline>
</glyph>
<glyph name="uogonek" format="1">
  <advance width="456"/>
  <unicode hex="0173"/>
  <outline>
    <contour>
      <point x="492" y="523" type="line"/>
      <point x="401" y="0" type="line"/>
      <point x="352" y="-34"/>
      <point x="329" y="-54"/>
      <point x="316" y="-75" type="curve" smooth="yes"/>
      <point x="304" y="-94"/>
      <point x="296" y="-122"/>
      <point x="296" y="-143" type="curve" smooth="yes"/>
      <point x="296" y="-166"/>
      <point x="310" y="-178"/>
      <point x="335" y="-178" type="curve" smooth="yes"/>
      <point x="351" y="-178"/>
      <point x="364" y="-175"/>
      <point x="390" y="-163" type="curve"/>
      <point x="397" y="-203" type="line"/>
      <point x="363" y="-218"/>
      <point x="337" y="-225"/>
      <point x="312" y="-225" type="curve" smooth="yes"/>
      <point x="264" y="-225"/>
      <point x="232" y="-196"/>
      <point x="232" y="-152" type="curve" smooth="yes"/>
      <point x="232" y="-119"/>
      <point x="249" y="-77"/>
      <point x="274" y="-48" type="curve"/>
      <point x="293" y="-24"/>
      <point x="308" y="-15"/>
      <point x="346" y="0" type="curve"/>
      <point x="333" y="0" type="line"/>
      <point x="347" y="81" type="line"/>
      <point x="296" y="9"/>
      <point x="258" y="-15"/>
      <point x="195" y="-15" type="curve" smooth="yes"/>
      <point x="120" y="-15"/>
      <point x="77" y="28"/>
      <point x="77" y="103" type="curve" smooth="yes"/>
      <point x="77" y="118"/>
      <point x="78" y="132"/>
      <point x="81" y="147" type="curve" smooth="yes"/>
      <point x="146" y="523" type="line"/>
      <point x="219" y="523" type="line"/>
      <point x="158" y="176" type="line" smooth="yes"/>
      <point x="156" y="163"/>
      <point x="155" y="153"/>
      <point x="155" y="136" type="curve" smooth="yes"/>
      <point x="155" y="87"/>
      <point x="178" y="61"/>
      <point x="222" y="61" type="curve" smooth="yes"/>
      <point x="294" y="61"/>
      <point x="351" y="128"/>
      <point x="370" y="235" type="curve" smooth="yes"/>
      <point x="420" y="523" type="line"/>
    </contour>
  </outline>
</glyph>
<glyph name="Wcircumflex" format="1">
  <advance width="774"/>
  <unicode hex="0174"/>
  <outline>
    <contour>
      <point x="546" y="911" type="line"/>
      <point x="476" y="818" type="line"/>
      <point x="411" y="818" type="line"/>
      <point x="517" y="959" type="line"/>
      <point x="593" y="959" type="line"/>
      <point x="649" y="818" type="line"/>
      <point x="584" y="818" type="line"/>
    </contour>
    <contour>
      <point x="491" y="599" type="line"/>
      <point x="250" y="0" type="line"/>
      <point x="166" y="0" type="line"/>
      <point x="138" y="718" type="line"/>
      <point x="224" y="718" type="line"/>
      <point x="232" y="130" type="line"/>
      <point x="468" y="718" type="line"/>
      <point x="555" y="718" type="line"/>
      <point x="585" y="130" type="line"/>
      <point x="798" y="718" type="line"/>
      <point x="886" y="718" type="line"/>
      <point x="606" y="0" type="line"/>
      <point x="522" y="0" type="line"/>
    </contour>
  </outline>
</glyph>
<glyph name="wcircumflex" format="1">
  <advance width="592"/>
  <unicode hex="0175"/>
  <outline>
    <contour>
      <point x="422" y="716" type="line"/>
      <point x="352" y="623" type="line"/>
      <point x="287" y="623" type="line"/>
      <point x="393" y="764" type="line"/>
      <point x="469" y="764" type="line"/>
      <point x="525" y="623" type="line"/>
      <point x="460" y="623" type="line"/>
    </contour>
    <contour>
      <point x="366" y="409" type="line"/>
      <point x="210" y="0" type="line"/>
      <point x="136" y="0" type="line"/>
      <point x="103" y="523" type="line"/>
      <point x="182" y="523" type="line"/>
      <point x="192" y="108" type="line"/>
      <point x="348" y="523" type="line"/>
      <point x="429" y="523" type="line"/>
      <point x="441" y="108" type="line"/>
      <point x="601" y="523" type="line"/>
      <point x="673" y="523" type="line"/>
      <point x="457" y="0" type="line"/>
      <point x="383" y="0" type="line"/>
    </contour>
  </outline>
</glyph>
<glyph name="Ycircumflex" format="1">
  <advance width="547"/>
  <unicode hex="0176"/>
  <outline>
    <contour>
      <point x="433" y="911" type="line"/>
      <point x="363" y="818" type="line"/>
      <point x="298" y="818" type="line"/>
      <point x="404" y="959" type="line"/>
      <point x="480" y="959" type="line"/>
      <point x="536" y="818" type="line"/>
      <point x="471" y="818" type="line"/>
    </contour>
    <contour>
      <point x="364" y="289" type="line"/>
      <point x="314" y="0" type="line"/>
      <point x="234" y="0" type="line"/>
      <point x="284" y="289" type="line"/>
      <point x="137" y="718" type="line"/>
      <point x="230" y="718" type="line"/>
      <point x="338" y="373" type="line"/>
      <point x="568" y="718" type="line"/>
      <point x="661" y="718" type="line"/>
    </contour>
  </outline>
</glyph>
<glyph name="Zdotaccent" format="1">
  <advance width="501"/>
  <unicode hex="017B"/>
  <outline>
    <contour>
      <point x="497" y="86" type="line"/>
      <point x="482" y="0" type="line"/>
      <point x="19" y="0" type="line"/>
      <point x="33" y="81" type="line"/>
      <point x="490" y="632" type="line"/>
      <point x="156" y="632" type="line"/>
      <point x="171" y="718" type="line"/>
      <point x="607" y="718" type="line"/>
      <point x="592" y="634" type="line"/>
      <point x="135" y="86" type="line"/>
    </contour>
    <contour>
      <point x="445" y="901" type="line"/>
      <point x="427" y="799" type="line"/>
      <point x="352" y="799" type="line"/>
      <point x="370" y="901" type="line"/>
    </contour>
  </outline>
</glyph>
<glyph name="zcaron" format="1">
  <advance width="410"/>
  <unicode hex="017E"/>
  <outline>
    <contour>
      <point x="455" y="451" type="line"/>
      <point x="134" y="73" type="line"/>
      <point x="397" y="73" type="line"/>
      <point x="384" y="0" type="line"/>
      <point x="25" y="0" type="line"/>
      <point x="37" y="69" type="line"/>
      <point x="362" y="450" type="line"/>
      <point x="123" y="450" type="line"/>
      <point x="136" y="523" type="line"/>
      <point x="468" y="523" type="line"/>
    </contour>
    <contour>
      <point x="278" y="734" type="line"/>
      <point x="316" y="641" type="line"/>
      <point x="386" y="734" type="line"/>
      <point x="452" y="734" type="line"/>
      <point x="346" y="593" type="line"/>
      <point x="270" y="593" type="line"/>
      <point x="213" y="734" type="line"/>
    </contour>
  </outline>
</glyph>
<glyph name="longs" format="1">
  <advance width="228"/>
  <unicode hex="017F"/>
  <outline>
    <contour>
      <point x="143" y="0" type="line"/>
      <point x="71" y="0" type="line"/>
      <point x="149" y="450" type="line"/>
      <point x="90" y="450" type="line"/>
      <point x="103" y="523" type="line"/>
      <point x="162" y="523" type="line"/>
      <point x="177" y="613" type="line" smooth="yes"/>
      <point x="190" y="688"/>
      <point x="235" y="728"/>
      <point x="307" y="728" type="curve" smooth="yes"/>
      <point x="315" y="728"/>
      <point x="319" y="728"/>
      <point x="341" y="726" type="curve"/>
      <point x="327" y="647" type="line"/>
      <point x="314" y="648"/>
      <point x="304" y="649"/>
      <point x="298" y="649" type="curve" smooth="yes"/>
      <point x="268" y="649"/>
      <point x="253" y="631"/>
      <point x="245" y="588" type="curve" smooth="yes"/>
    </contour>
  </outline>
</glyph>
<glyph name="florin" format="1">
  <advance width="456"/>
  <unicode hex="0192"/>
  <outline>
    <contour>
      <point x="537" y="722" type="curve"/>
      <point x="511" y="644" type="line"/>
      <point x="485" y="658"/>
      <point x="478" y="661"/>
      <point x="467" y="661" type="curve" smooth="yes"/>
      <point x="435" y="661"/>
      <point x="404" y="625"/>
      <point x="384" y="564" type="curve" smooth="yes"/>
      <point x="350" y="461" type="line"/>
      <point x="443" y="461" type="line"/>
      <point x="431" y="391" type="line"/>
      <point x="327" y="391" type="line"/>
      <point x="220" y="64" type="line"/>
      <point x="160" y="-124"/>
      <point x="93" y="-207"/>
      <point x="3" y="-207" type="curve" smooth="yes"/>
      <point x="-17" y="-207"/>
      <point x="-29" y="-204"/>
      <point x="-43" y="-195" type="curve"/>
      <point x="-17" y="-114" type="line"/>
      <point x="-1" y="-124"/>
      <point x="10" y="-128"/>
      <point x="23" y="-128" type="curve" smooth="yes"/>
      <point x="68" y="-128"/>
      <point x="95" y="-88"/>
      <point x="139" y="46" type="curve" smooth="yes"/>
      <point x="251" y="391" type="line"/>
      <point x="162" y="391" type="line"/>
      <point x="174" y="461" type="line"/>
      <point x="275" y="461" type="line"/>
      <point x="319" y="585" type="line" smooth="yes"/>
      <point x="352" y="676"/>
      <point x="416" y="737"/>
      <point x="478" y="737" type="curve" smooth="yes"/>
      <point x="500" y="737"/>
      <point x="514" y="734"/>
    </contour>
  </outline>
</glyph>
<glyph name="circumflex" format="1">
  <advance width="273"/>
  <unicode hex="02C6"/>
  <outline>
    <contour>
      <point x="256" y="686" type="line"/>
      <point x="186" y="593" type="line"/>
      <point x="121" y="593" type="line"/>
      <point x="227" y="734" type="line"/>
      <point x="303" y="734" type="line"/>
      <point x="359" y="593" type="line"/>
      <point x="294" y="593" type="line"/>
    </contour>
  </outline>
</glyph>
<glyph name="dotaccent" format="1">
  <advance width="273"/>
  <unicode hex="02D9"/>
  <outline>
    <contour>
      <point x="297" y="706" type="line"/>
      <point x="279" y="604" type="line"/>
      <point x="204" y="604" type="line"/>
      <point x="222" y="706" type="line"/>
    </contour>
  </outline>
</glyph>
<glyph name="ring" format="1">
  <advance width="273"/>
  <unicode hex="02DA"/>
  <outline>
    <contour>
      <point x="269" y="756" type="curve" smooth="yes"/>
      <point x="305" y="756"/>
      <point x="330" y="727"/>
      <point x="330" y="685" type="curve" smooth="yes"/>
      <point x="330" y="624"/>
      <point x="286" y="572"/>
      <point x="236" y="572" type="curve" smooth="yes"/>
      <point x="200" y="572"/>
      <point x="175" y="600"/>
      <point x="175" y="643" type="curve" smooth="yes"/>
      <point x="175" y="704"/>
      <point x="218" y="756"/>
    </contour>
    <contour>
      <point x="262" y="716" type="curve" smooth="yes"/>
      <point x="234" y="716"/>
      <point x="209" y="686"/>
      <point x="209" y="653" type="curve" smooth="yes"/>
      <point x="209" y="629"/>
      <point x="223" y="612"/>
      <point x="243" y="612" type="curve" smooth="yes"/>
      <point x="270" y="612"/>
      <point x="296" y="643"/>
      <point x="296" y="675" type="curve" smooth="yes"/>
      <point x="296" y="699"/>
      <point x="281" y="716"/>
    </contour>
  </outline>
</glyph>
<glyph name="ogonek" format="1">
  <advance width="273"/>
  <unicode hex="02DB"/>
  <outline>
    <contour>
      <point x="193" y="-163" type="curve"/>
      <point x="200" y="-203" type="line"/>
      <point x="167" y="-218"/>
      <point x="141" y="-225"/>
      <point x="115" y="-225" type="curve" smooth="yes"/>
      <point x="67" y="-225"/>
      <point x="35" y="-196"/>
      <point x="35" y="-152" type="curve" smooth="yes"/>
      <point x="35" y="-129"/>
      <point x="43" y="-101"/>
      <point x="57" y="-76" type="curve" smooth="yes"/>
      <point x="79" y="-37"/>
      <point x="102" y="-18"/>
      <point x="149" y="0" type="curve"/>
      <point x="204" y="0" type="line"/>
      <point x="203" y="-4" type="line"/>
      <point x="154" y="-35"/>
      <point x="134" y="-52"/>
      <point x="119" y="-75" type="curve" smooth="yes"/>
      <point x="107" y="-94"/>
      <point x="99" y="-122"/>
      <point x="99" y="-143" type="curve" smooth="yes"/>
      <point x="99" y="-166"/>
      <point x="113" y="-178"/>
      <point x="138" y="-178" type="curve" smooth="yes"/>
      <point x="155" y="-178"/>
      <point x="167" y="-175"/>
    </contour>
  </outline>
</glyph>
<glyph name="tilde" format="1">
  <advance width="273"/>
  <unicode hex="02DC"/>
  <outline>
    <contour>
      <point x="361" y="722" type="curve"/>
      <point x="402" y="722" type="line"/>
      <point x="380" y="651"/>
      <point x="345" y="613"/>
      <point x="300" y="613" type="curve" smooth="yes"/>
      <point x="288" y="613"/>
      <point x="275" y="617"/>
      <point x="255" y="626" type="curve" smooth="yes"/>
      <point x="235" y="635" type="line" smooth="yes"/>
      <point x="212" y="646"/>
      <point x="198" y="650"/>
      <point x="188" y="650" type="curve" smooth="yes"/>
      <point x="168" y="650"/>
      <point x="155" y="638"/>
      <point x="141" y="606" type="curve"/>
      <point x="102" y="606" type="line"/>
      <point x="125" y="680"/>
      <point x="157" y="713"/>
      <point x="206" y="713" type="curve" smooth="yes"/>
      <point x="222" y="713"/>
      <point x="241" y="708"/>
      <point x="259" y="698" type="curve" smooth="yes"/>
      <point x="276" y="689" type="line" smooth="yes"/>
      <point x="291" y="681"/>
      <point x="305" y="676"/>
      <point x="314" y="676" type="curve" smooth="yes"/>
      <point x="336" y="676"/>
      <point x="349" y="689"/>
    </contour>
  </outline>
</glyph>
